<?xml version="1.0" encoding="UTF-8"?>
<svg id="Layer_2" data-name="Layer 2" xmlns="http://www.w3.org/2000/svg" viewBox="0 0 77.43 94.5">
  <defs>
    <style>
      .cls-1 {
        fill: none;
        stroke: #fff;
        stroke-linecap: round;
        stroke-linejoin: round;
        stroke-width: 2px;
      }
    </style>
  </defs>
  <g id="Layer_2-2" data-name="Layer 2">
    <g>
      <circle class="cls-1" cx="19.01" cy="38.65" r="5.73"/>
      <circle class="cls-1" cx="41.11" cy="19.83" r="5.73"/>
      <path class="cls-1" d="M40.12,13.77c.64,1.9,.99,3.94,.99,6.05,0,10.4-8.43,18.83-18.83,18.83-3.07,0-5.97-.73-8.53-2.04"/>
      <path class="cls-1" d="M6.93,30.72c-2.19-3.08-3.47-6.83-3.47-10.89,0-10.4,8.43-18.83,18.83-18.83,6.16,0,11.63,2.96,15.07,7.54"/>
      <path class="cls-1" d="M37.02,45.2c0,7.94-5.14,14.69-12.28,17.08v5.61l-3.27,3.6,3.27,3.18v3.95l-3.27,4,3.27,4.33-6.55,6.55-6.55-6.55v-25.32c-6.27-2.81-10.64-9.11-10.64-16.43,0-9.95,8.06-18.01,18.01-18.01s18.01,8.06,18.01,18.01Z"/>
      <rect class="cls-1" x="24.74" y="19.83" width="56.48" height="23.74" rx="11.87" ry="11.87" transform="translate(37.93 -28.18) rotate(45)"/>
    </g>
  </g>
</svg>