<?xml version="1.0" encoding="UTF-8"?>
<svg id="Layer_2" data-name="Layer 2" xmlns="http://www.w3.org/2000/svg" viewBox="0 0 103.26 53">
  <defs>
    <style>
      .cls-1 {
        fill: none;
        stroke: #fff;
        stroke-linecap: round;
        stroke-linejoin: round;
        stroke-width: 2px;
      }
    </style>
  </defs>
  <g id="Layer_2-2" data-name="Layer 2">
    <g>
      <path class="cls-1" d="M79.26,10.68v31.32h-29.25c-.89-3.45-4.02-6-7.75-6s-6.86,2.55-7.75,6h-10.25V1h45.32c5.35,0,9.68,4.33,9.68,9.68Z"/>
      <path class="cls-1" d="M102.26,21.68v20.32h-3.25c-.89-3.45-4.02-6-7.75-6s-6.86,2.55-7.75,6h-4.25V12h13.32c5.35,0,9.68,4.33,9.68,9.68Z"/>
      <path class="cls-1" d="M50.26,44c0,4.42-3.58,8-8,8s-8-3.58-8-8c0-.69,.09-1.36,.25-2,.89-3.45,4.02-6,7.75-6s6.86,2.55,7.75,6c.16,.64,.25,1.31,.25,2Z"/>
      <path class="cls-1" d="M99.26,44c0,4.42-3.58,8-8,8s-8-3.58-8-8c0-.69,.09-1.36,.25-2,.89-3.45,4.02-6,7.75-6s6.86,2.55,7.75,6c.16,.64,.25,1.31,.25,2Z"/>
      <line class="cls-1" x1="19.26" y1="23" x2="1" y2="23"/>
      <g>
        <line class="cls-1" x1="19.26" y1="13" x2="1" y2="13"/>
        <line class="cls-1" x1="19.26" y1="33" x2="1" y2="33"/>
      </g>
      <path class="cls-1" d="M82.76,15.5h9.74c3.46,0,6.26,2.81,6.26,6.26v5.74h-16V15.5h0Z"/>
    </g>
  </g>
</svg>