<?xml version="1.0" encoding="UTF-8"?>
<svg id="Layer_2" data-name="Layer 2" xmlns="http://www.w3.org/2000/svg" viewBox="0 0 94.9 84.68">
  <defs>
    <style>
      .cls-1 {
        fill: none;
        stroke: #fff;
        stroke-linecap: round;
        stroke-linejoin: round;
        stroke-width: 2px;
      }
    </style>
  </defs>
  <g id="Layer_2-2" data-name="Layer 2">
    <g>
      <path class="cls-1" d="M53.5,74.93c0,4.83-3.92,8.75-8.75,8.75s-8.75-3.92-8.75-8.75c0-.75,.1-1.49,.27-2.19,.78-3.01,3.11-5.39,6.1-6.23,.75-.21,1.55-.33,2.38-.33,3.35,0,6.26,1.89,7.73,4.66,.32,.59,.58,1.23,.75,1.9,.17,.7,.27,1.44,.27,2.19Z"/>
      <line class="cls-1" x1="84.3" y1="58.73" x2="52.48" y2="70.84"/>
      <polyline class="cls-1" points="1 13.68 23.01 13.68 42.37 66.51"/>
      <rect class="cls-1" x="29.89" y="5.03" width="25" height="9" transform="translate(-.69 15.19) rotate(-20.15)"/>
      <rect class="cls-1" x="34.78" y="17.56" width="34" height="9" transform="translate(-4.43 19.19) rotate(-20.15)"/>
      <rect class="cls-1" x="43.17" y="28.76" width="47" height="30" transform="translate(-11 25.65) rotate(-20.15)"/>
    </g>
  </g>
</svg>