<?xml version="1.0" encoding="UTF-8"?>
<svg id="Layer_2" data-name="Layer 2" xmlns="http://www.w3.org/2000/svg" viewBox="0 0 78.21 78.21">
  <defs>
    <style>
      .cls-1 {
        fill: none;
        stroke: #fff;
        stroke-linecap: round;
        stroke-linejoin: round;
        stroke-width: 2px;
      }
    </style>
  </defs>
  <g id="Layer_2-2" data-name="Layer 2">
    <g>
      <path class="cls-1" d="M42.6,33.23l-8.35,8.35c-5.05-5.03-10.01-9.8-14.77-14.23-1.26,.4-2.6,.6-3.99,.6-7.44,0-13.48-6.04-13.47-13.48,0-.83,.07-1.63,.22-2.41,.12-.66,.29-1.3,.5-1.92l8.84,8.84,8.42-8.42L11.16,1.72c.62-.21,1.26-.38,1.92-.5,.77-.15,1.58-.23,2.41-.22,7.44,0,13.48,6.03,13.48,13.47,0,1.39-.2,2.73-.6,3.99,4.43,4.76,9.2,9.72,14.23,14.77Z"/>
      <path class="cls-1" d="M77.21,62.72c0,.83-.07,1.63-.22,2.41-.12,.66-.29,1.3-.5,1.92l-8.84-8.84-8.42,8.42,8.84,8.84c-.62,.21-1.26,.38-1.92,.5-.77,.15-1.58,.23-2.41,.22-7.44,0-13.48-6.03-13.48-13.47,0-1.39,.2-2.73,.6-3.99-4.43-4.76-9.2-9.72-14.23-14.77l8.35-8.35c5.05,5.03,10.01,9.8,14.77,14.23,1.26-.4,2.6-.6,3.99-.6,7.44,0,13.48,6.04,13.47,13.48Z"/>
      <path class="cls-1" d="M75.28,7.7l-8.27,10.79-2.45-2.45-19.58,19.58-8.35,8.35-4.84,4.84c2,3.1,1.66,7.28-1.06,9.99l-17.33,17.34c-1.45,1.45-3.8,1.45-5.25,0l-6.07-6.07c-1.45-1.45-1.45-3.8,0-5.25l17.34-17.33c2.71-2.72,6.89-3.07,9.99-1.06l13.18-13.18L62.17,13.65l-2.45-2.45,10.79-8.27,4.77,4.77Z"/>
    </g>
  </g>
</svg>