<svg xmlns="http://www.w3.org/2000/svg" viewBox="0 0 300 60.61"><defs><style>.cls-1{fill:#608f38;}.cls-1,.cls-2{fill-rule:evenodd;}.cls-2,.cls-3{fill:#fff;}</style></defs><g id="Layer_2" data-name="Layer 2"><g id="Layer_1-2" data-name="Layer 1"><path class="cls-1" d="M60.61,7.56V53.05a7.55,7.55,0,0,1-7.56,7.56H7.56a7.49,7.49,0,0,1-5.79-2.7,1.46,1.46,0,0,1-.16-.21h0A7.47,7.47,0,0,1,0,53.05V7.56A7.55,7.55,0,0,1,7.56,0H53.05A7.55,7.55,0,0,1,60.61,7.56Z"/><path class="cls-2" d="M1.36,56.83a1.51,1.51,0,0,1,.25.87A7.47,7.47,0,0,1,0,53.05V51s0,0,.1,0a4.91,4.91,0,0,1,.64.79c.08.16,0,.43.12.58s.2.14.23.32,0,.93,0,1,.22.25.25.53-.09.59-.08,1l.13.27A4.52,4.52,0,0,1,1.36,56.83Z"/><path class="cls-2" d="M7.87,60.41a.44.44,0,0,1,0,.2h-.3a7.49,7.49,0,0,1-5.79-2.7c0-.36,0-1.21.28-1.25,0-.32,0-.63,0-.95a1.81,1.81,0,0,0,.28-1c0-.15.16-.22.16-.3,0-.28-.12-.64.11-1,.06-.06.06-.06.15,0L3,52.76l.23,0,.09-.22a.85.85,0,0,1,.39.13c.07-.07.09-.11.18-.12a1.64,1.64,0,0,0,.48.46c0,.33,0,.73.09,1.06l.16.22c0,.07-.09,1.12-.1,1.19l.29.19.12-.18A1.27,1.27,0,0,1,5,54.68a.46.46,0,0,1,.27,0c.23-.35,0-.46,0-.72s.17-.31.24-.46a1.3,1.3,0,0,1,.42.14l0-.09c.2,0,.22.14.32.25l.3.17.21.79.18.23c.09.32,0,.72.16,1l.16.2a4.21,4.21,0,0,1,.07,1.08c0,.15.17.22.2.36l.06,1.07-.19.54c.29.22.25.31.3.64C7.75,60.12,7.81,60.26,7.87,60.41Z"/><path class="cls-2" d="M15.87,45c-.19.37,0,.72-.3,1a3.21,3.21,0,0,1-1.19.61c-.07,0-.1.23-.16.32-.19.32-.61,1.06-1,.73h0c-.11.55,0,.63-.34,1.18a1.1,1.1,0,0,1-.26,0l-.18.49c-.15.25-.46.7-.73.59-.14.46-.51,1-.88.81a1.61,1.61,0,0,1-.57.51l-.08-.13a.76.76,0,0,1-.58.33.5.5,0,0,0,0-.13l-.27,0c-.08-.09,0-.17-.2-.18l0,0c0-.11.08-.22.11-.32L9,50.76s0,0,0,0a.75.75,0,0,1,.25-.58A.36.36,0,0,1,9.18,50a3.3,3.3,0,0,1,.23-.41c.05-.07.12-.12.18-.19a1.52,1.52,0,0,1,0-.23,1.49,1.49,0,0,1,.6-.82,1.59,1.59,0,0,1,.61-1.13.06.06,0,0,1,0,0,.38.38,0,0,0-.1,0,.42.42,0,0,1,.11-.38l0-.05a1.42,1.42,0,0,1-.35,0c-.1.12-.1.29-.21.45a2.34,2.34,0,0,1-.69.68c-.07,0-.07,0-.11-.08-.3.36-.48.85-.87.93a.34.34,0,0,1-.06-.12c-.2.22-.73.86-1,.66a1,1,0,0,1-.79.49,1,1,0,0,1,0-.1.71.71,0,0,1-.84-.26A1.46,1.46,0,0,1,6,49l-.18-.1c.05-.26.24-.35.33-.51s0-.16,0-.27.39-.33.49-.51,0-.23.09-.31l.6-.54c.13-.19.17-.34.3-.5L8,45.88c-.18-.13.06-.42.15-.62-.24.05-.2.12-.5.07A3.24,3.24,0,0,1,7,46.4c-.09,0-.09.05-.14,0-.27.32-.5,1.09-.88,1l0,.08s0,0,.07.07c-.19,0-.41.33-.58.48s-.16,0-.27,0l-.32.21a2.69,2.69,0,0,1-.79-.14c0-.07,0-.15,0-.22l-.19-.09A1.11,1.11,0,0,1,4,47.39a.36.36,0,0,1-.09-.08,1.14,1.14,0,0,1,.4-.64l-.08-.16a3.07,3.07,0,0,1,.46-.69c0-.11,0-.22,0-.34a2.37,2.37,0,0,1,.66-.82.8.8,0,0,1,.06-.51l-.15,0c-.22.2-.64,1.08-.91.92a4,4,0,0,0-.23.34L3.46,46a.2.2,0,0,1-.11-.06,1.22,1.22,0,0,1-.76.5.25.25,0,0,0,0-.07l-.46.24h0l0-.18c-.1,0-.24,0-.33-.08s0-.17-.15-.25a2.39,2.39,0,0,0,.13-.28c-.31-.28.12-.64.23-.95s.34-.34.44-.53,0-.18,0-.26l.27-.29.39-.35a1.69,1.69,0,0,0,.05-.24,1.83,1.83,0,0,1,.51-.59c0-.2-.12-.26-.08-.46-.25,0-.62.51-.93.58-.1,0-.1-.08-.23-.13-.26.42-.38.84-.82.89a.48.48,0,0,0-.11-.09A1.47,1.47,0,0,1,.51,44c-.06,0,0,0-.07-.09a1.92,1.92,0,0,1-.44.32V42l.47-.37s0-.09,0-.14A1.56,1.56,0,0,1,1,41c0-.09-.07-.18-.1-.27a3.19,3.19,0,0,1,.41-.94c-.41,0-.88.45-1.32.71V33.15l0,0c.1.15.06.34.12.51s.21.13.24.25,0,.74,0,.9.11.07.1.19c0,.35-.14.65-.12,1l.09.17a9.83,9.83,0,0,0,.28,1.22l.13,0c0-.07,0,0,.08-.09.2-.24,0-.49.16-.82s0-.67,0-1l.08-.23c0-.15,0-.3-.05-.45s.09-.28.1-.44a4.48,4.48,0,0,1,0-.63l.17-.06c.18-.17.09-.57.46-.54s.51.42.6.57.17.11.23.2.09.54.13.73S3,34.9,3,35a2.75,2.75,0,0,1,0,1l.19.2A4.54,4.54,0,0,1,3,37.55a2.45,2.45,0,0,1,.33,1.25l.06.07h0c.06,0,.1-.06.15-.08-.06-.29-.18-.76.11-1.06-.06-.26-.22-.82,0-1.07a3.48,3.48,0,0,1-.2-.86c0-.06,0-.13.07-.2,0-.24-.1-.48-.16-.72s.09-.12.11-.22v-.43l.18-.11a1.69,1.69,0,0,1,0-.23l.24-.16c.1,0,.23.07.32,0s.14.13.23.21l.26.11c.22.18.16.51.28.73l.16.1A2.9,2.9,0,0,1,5.38,36c0,.05.08.06.12.11a2.86,2.86,0,0,1,0,1.25.24.24,0,0,0,.15.09,3.6,3.6,0,0,1-.1,1.27,1.63,1.63,0,0,1,.34,1.09c0,.05,0,.07.1.12s.12-.08.24,0c0-.3-.13-.74.17-.94a2.31,2.31,0,0,1,0-.78l.1-.21c0-.2-.06-.4-.08-.59s.13-.29.15-.4-.08-.47,0-.73A1.27,1.27,0,0,0,6.88,36c.25-.18.55.09.74,0a1.72,1.72,0,0,1,.7,1.23l.06.05c0-.16.13-.35.17-.52s0-.44.11-.63,0-.06.12,0l.1-.27c.34-.27.28.1.56.07.05,0,.05,0,.14,0a3.51,3.51,0,0,1,.54.68c.08.14.05.37.12.51s.17.11.2.27,0,.81,0,.91.19.21.22.46-.08.5-.08.82l.12.23a4.34,4.34,0,0,1-.05,1.18,1.25,1.25,0,0,1,.19.91c0,.06.07.1.13.11l0,0c0-.17,0-1.16.25-1.19l0-.82a1.53,1.53,0,0,0,.24-.85c0-.13.14-.19.14-.25,0-.25-.1-.56.1-.83,0-.06,0-.06.12,0,0-.19.1-.39.16-.58h.19l.08-.19a.89.89,0,0,1,.34.11.36.36,0,0,1,.15-.1,1.57,1.57,0,0,0,.41.4c0,.28,0,.63.09.92,0,.07.09.12.13.19s-.07,1-.08,1l.25.16.11-.16a1,1,0,0,1,0-.71.41.41,0,0,1,.23,0c.2-.3,0-.39,0-.62s.15-.27.21-.4a1.17,1.17,0,0,1,.36.12l0-.08c.16,0,.19.13.27.21l.26.15.18.69.16.19c.08.29,0,.63.14.91l.14.18a3.88,3.88,0,0,1,.06.92c0,.13.14.2.17.32,0,.3,0,.61,0,.92,0,.15-.11.31-.16.47.25.19.21.27.26.55.06.13.11.26.16.38C16.36,44.41,16,44.76,15.87,45Z"/><path class="cls-2" d="M25.52,33.51l.08.33c0,.33-.33.55-.47.75s-.07.58-.35.78a2.8,2.8,0,0,1-1,.32c-.06,0-.11.16-.16.23-.2.23-.61.75-.9.42h0c-.16.43-.05.51-.41.9l-.21,0c-.07.13-.14.25-.2.38s-.46.48-.65.36c-.17.34-.52.69-.8.51a1.21,1.21,0,0,1-.52.32l-.05-.11a.6.6,0,0,1-.5.18.41.41,0,0,0,0-.11l-.22-.08c-.05-.08,0-.13-.14-.17a0,0,0,0,0,0,0l.11-.25-.1-.05a0,0,0,0,1,0,0,.58.58,0,0,1,.27-.42.42.42,0,0,1,0-.16,3.15,3.15,0,0,1,.24-.3l.16-.11a1.15,1.15,0,0,1,0-.19,1.19,1.19,0,0,1,.57-.58,1.25,1.25,0,0,1,.62-.81l0,0-.08,0a.31.31,0,0,1,.14-.28v0a1.8,1.8,0,0,1-.27-.07c-.1.07-.12.21-.22.33a1.68,1.68,0,0,1-.63.44l-.08-.08c-.28.25-.48.61-.81.61l0-.1c-.18.15-.68.58-.85.38a.75.75,0,0,1-.69.28.31.31,0,0,1,0-.08.61.61,0,0,1-.64-.34,1.23,1.23,0,0,1,.12-.26l-.13-.1c.07-.21.23-.25.32-.36s0-.14.07-.22.35-.2.45-.33,0-.19.11-.24l.54-.34c.13-.13.18-.25.3-.35l.33-.24c-.13-.14.09-.33.19-.47-.19,0-.17.06-.4,0a2.92,2.92,0,0,1-.66.76c-.07,0-.07,0-.11,0-.25.22-.53.8-.82.68l0,.05s0,0,0,.08c-.16,0-.37.19-.53.29s-.13,0-.21,0-.19.09-.29.12a2.38,2.38,0,0,1-.62-.23,1.1,1.1,0,0,0,0-.18,1.1,1.1,0,0,0-.14-.09,1.12,1.12,0,0,1,.16-.33l-.06-.07a.88.88,0,0,1,.4-.46.74.74,0,0,1,0-.14c.12-.25.3-.33.44-.49l.06-.26a1.94,1.94,0,0,1,.62-.57.62.62,0,0,1,.11-.39h-.13c-.19.13-.63.78-.83.61l-.22.23-.62.35s0,0-.07-.07a1,1,0,0,1-.67.29.14.14,0,0,1,0-.07l-.4.13h0v-.15c-.08,0-.19,0-.25-.12s0-.13-.09-.22.09-.13.14-.2c-.22-.28.17-.49.29-.73s.31-.23.42-.36l.06-.2.25-.2.35-.21c0-.06.05-.13.07-.18a1.39,1.39,0,0,1,.47-.41c0-.16-.06-.23,0-.38-.21,0-.56.32-.81.33-.08-.05-.08-.09-.17-.15-.26.31-.41.63-.76.59l-.08-.08a1.12,1.12,0,0,1-.82.39c-.05,0,0,0-.05-.09-.18.09-.51.39-.69.08-.14.06-.55,0-.59-.26s.17-.27.18-.41l0-.14c.07-.12.15-.23.23-.36s.37-.19.53-.3l.11-.16.57-.31,0-.1a1.4,1.4,0,0,1,.46-.3c0-.07,0-.15-.05-.23a3.55,3.55,0,0,1,.44-.7c-.48,0-1.19.57-1.63.43a1.26,1.26,0,0,1-.91.59l0-.07-.33.25-.33.09-.07-.1a2.38,2.38,0,0,1-.59.12c-.07-.05-.06-.05,0-.12a.83.83,0,0,1-.28-.09A1.05,1.05,0,0,0,9.75,29c0-.08.05-.11.1-.18l-.12-.09v0c.18-.28.46-.39.65-.59s.08-.21.18-.27l.41-.19.16-.21.41-.25c.14-.15.16-.57.28-.74-.21-.08-.46.23-.64.29s-.25.11-.36.13a3.45,3.45,0,0,0-.48,0c-.2.11-.4.33-.63.45s-.27,0-.42.1a.68.68,0,0,1-.39.09s0,0,0-.06a.39.39,0,0,1-.26,0c-.06-.05,0,0,0-.11-.25-.13-.27-.17-.34-.4A2.72,2.72,0,0,1,9,26.1c.26-.19.73-.4.8-.91a0,0,0,0,1,0,0c-.14,0-.31.21-.44.28L9,25.56c-.07,0-.1.1-.17.12H8.7l-.2.18a2.69,2.69,0,0,1-.62.22.14.14,0,0,0,0-.06c-.19,0-.43.18-.64.13a5,5,0,0,1-.58-.31,2.11,2.11,0,0,0,0-.36c.09-.12.13-.33.28-.43s.78-.32,1.09-.56a5.1,5.1,0,0,0,.24-.65c-.12,0-.58.23-.72.29a3.35,3.35,0,0,1-.45.19l-.1,0a4.58,4.58,0,0,1-1.1.41c-.28,0-.74-.23-.69-.59.18-.17.29-.4.51-.53L6,23.49a1.84,1.84,0,0,0,.73-.67c0-.05,0,0,0-.09s-.26.08-.37.09a4.2,4.2,0,0,1-1.44.25,1.48,1.48,0,0,0-.19,0,.74.74,0,0,1-.58-.58c.13-.11.22-.28.36-.35s.89-.17.93-.51a0,0,0,0,0,0,0l0,0A5.53,5.53,0,0,1,3.78,22a1.09,1.09,0,0,1-.57-.39.86.86,0,0,0,0-.16c.18-.3.38-.24.6-.36a1,1,0,0,0,.27-.26l0-.06h0A6.24,6.24,0,0,1,3,20.94c-.18,0-.45-.18-.48-.36a.73.73,0,0,1,.58-.45l.12-.22s0,0,0-.06-.15,0-.23,0c-.44.05-.93.19-1.34-.28.05-.2.39-.22.51-.44a.28.28,0,0,0,0-.09c-.3,0-1,.29-1.2-.22,0-.05,0-.11,0-.16s.17-.08.27-.15l0-.06s0,0,0,0a1.09,1.09,0,0,1-.87-.2c0-.18.13-.23.27-.34l0,0-.36,0A.56.56,0,0,1,0,17.7V16.35c.26.12.33.42.51.59h0c0-.15,0-.25.08-.38h.1c.28.05.52.7.58.88l0,0,0,0c0-.16-.07-.29,0-.45.5-.24.73.82.85,1.07.15.05.15-.5.12-.6l.09-.1c.57,0,.58.94.89,1.19,0-.19.08-.36.12-.54s.11-.16.18-.26c.57,0,.51,1.2.71,1.52a.46.46,0,0,0,.07.07l0,0c0-.22,0-.43.06-.64a.22.22,0,0,0,.1-.14.38.38,0,0,1,.16,0c.5.12.36,1.56.7,1.84h0a4.7,4.7,0,0,1,.22-1.41l.2-.1c.61.19.52.78.59,1.2l.08.17A3.32,3.32,0,0,0,6.7,21l.08,0s0,0,0,0,0-.2,0-.29a2.47,2.47,0,0,0,.09-.5l-.06-.38c0-.09.18-.57.31-.58s.56.37.62.51A4.08,4.08,0,0,1,8,21.31c.07.32.13.64.2,1,0,0,0,0,0,0s.15-.15.19-.26a1.69,1.69,0,0,1,0-.23c.1-.68,0-1.43.48-1.91.59,0,.79.62.81,1.1,0,.13.13.22.14.34.05.31-.16.65-.15,1s.12.6.14.9-.05.63.16.86a.65.65,0,0,1,.36-.55,3.39,3.39,0,0,0,.09-1.22c0-.11.07-.12.08-.22s0-.29,0-.44l.11,0c0-.43.51-.45.66-.08.08,0,.09,0,.16,0a1.75,1.75,0,0,1,.26,1.07c0,.05,0,.08.13.13a4.24,4.24,0,0,1-.09.78l-.06.17.06.15A4.12,4.12,0,0,0,12.05,25l0,.05c.09-.08.2-.2.31-.21s0-.26,0-.38l.19-.34c0-.14,0-.41,0-.57s.14-.28.19-.48L13,22.5c.11-.05.13-.07.21-.24.31-.06.37.08.56.31l.16.14c.07.13,0,.28,0,.43s.15.13.16.23S14,24,14,24.1s.08.07.06.17c-.05.28-.19.5-.22.76a.88.88,0,0,1,.05.15,8.76,8.76,0,0,0,.09,1l.09,0a.14.14,0,0,1,.08-.06c.19-.16.05-.39.22-.64s0-.54.09-.78l.09-.17c0-.12,0-.24,0-.36s.11-.22.13-.36a3.7,3.7,0,0,1,.09-.49l.13,0c.17-.11.16-.45.44-.36s.36.41.41.54.12.11.16.19a1.77,1.77,0,0,1,0,.61c0,.12.12.2.12.31a2.19,2.19,0,0,1-.15.77,1.37,1.37,0,0,0,.13.2,4.27,4.27,0,0,1-.3,1.05,2,2,0,0,1,.11,1,.21.21,0,0,1,0,.06h0l.13-.05c0-.24-.06-.64.21-.83,0-.21-.07-.69.14-.85a2.55,2.55,0,0,1-.07-.73,1.19,1.19,0,0,0,.09-.15l0-.6c0-.1.09-.08.11-.16s0-.23.05-.34l.15-.07c0-.06,0-.12,0-.18l.21-.09c.08,0,.17.1.26.05s.09.13.16.21l.19.12c.15.18.06.44.14.63a1.14,1.14,0,0,1,.11.11,2.44,2.44,0,0,1,0,.9.45.45,0,0,0,.09.1,2.61,2.61,0,0,1-.12,1,.33.33,0,0,0,.1.11,2.74,2.74,0,0,1-.23,1,1.26,1.26,0,0,1,.14.92.23.23,0,0,0,.07.11c.08,0,.11-.05.2,0,0-.25,0-.61.25-.73a1.77,1.77,0,0,1,.11-.62l.12-.16V27c0-.15.14-.21.16-.3s0-.39.07-.59A.89.89,0,0,0,19,26c.23-.12.44.15.6.11a1.5,1.5,0,0,1,.41,1.1l0,.05c.05-.13.15-.27.19-.4s0-.36.16-.49,0,0,.11,0l.11-.21c.31-.15.21.13.44.15,0,0,.05,0,.12,0a3.94,3.94,0,0,1,.36.63c0,.13,0,.31,0,.42s.12.12.12.25-.1.65-.08.74.13.2.11.4-.12.39-.16.64c0,.07.05.14.07.2a3.19,3.19,0,0,1-.18.94,1.18,1.18,0,0,1,.06.77s0,.09.08.1l0,0c0-.13.09-.93.34-.92l.12-.65a1.21,1.21,0,0,0,.29-.65c0-.09.14-.12.14-.17.05-.2,0-.47.18-.66.05,0,0,0,.1,0,.07-.14.13-.29.2-.44l.15,0a1,1,0,0,0,.08-.14.74.74,0,0,1,.26.14.19.19,0,0,1,.13-.06,1.6,1.6,0,0,0,.29.38,6.17,6.17,0,0,0,0,.75,1.3,1.3,0,0,0,.08.17c0,.05-.17.77-.19.82l.18.16.11-.11a.83.83,0,0,1,.12-.56.24.24,0,0,1,.18.07c.2-.22,0-.32.07-.51s.15-.19.21-.28.19.09.27.15l.05-.06c.13,0,.13.13.19.21l.19.16.06.58.11.18c0,.24,0,.51,0,.75l.09.15a2.85,2.85,0,0,1-.06.76c0,.11.09.18.1.27,0,.25-.05.5-.07.76l-.18.34C25.56,33.22,25.51,33.27,25.52,33.51Z"/><path class="cls-2" d="M19.08,8.84c-.19-.23-.09-.92-.5-1l-.08.06c0,.08-.06.49-.17.43-.06-.21-.09-1-.49-.93-.05.11,0,.21,0,.33h0l0,0c0-.14-.12-.67-.31-.75h-.08c-.08.09-.07.16-.11.27h0c-.11-.16-.12-.4-.3-.53l-.1.06-.47-.5-.17-.13c-.1-.13-.3-.38-.43-.4s0,0,0,0l0,.21a2.55,2.55,0,0,0,.69,1s-.05,0-.06.08.26.21.33.32l-.08.07s0,0,0,0,.2.3.33.37l.26.07v0C17,8,16.9,8,16.88,8.1a.81.81,0,0,0,.62.29s0,0,0,0l0,0c-.08,0-.14,0-.21.07a.49.49,0,0,0,0,.12c.1.42.64.29.86.36a.64.64,0,0,1,0,.07c-.11.15-.37.1-.43.25.24.41.62.39.95.42.06,0,.11,0,.18,0v.05l-.11.14a.5.5,0,0,0-.48.24c0,.14.18.29.3.35a4.06,4.06,0,0,0,.86,0l0,0,0,0c-.09.06-.13.12-.23.15s-.32,0-.49.16c0,0,0,.09,0,.13a.91.91,0,0,0,.37.38,4.39,4.39,0,0,0,1.2,0l0,0v0c-.07.24-.6.18-.76.22s-.2.15-.31.21a.56.56,0,0,0,.35.52h.15a3.34,3.34,0,0,0,1.09.06c.09,0,.2,0,.29,0s0,0,0,.07a1.3,1.3,0,0,1-.62.38h-.22c-.17.06-.29.22-.45.32-.08.25.23.52.44.55a3.66,3.66,0,0,0,.87-.13l.07,0a2.46,2.46,0,0,0,.36-.06c.11,0,.48-.15.57-.1a2.64,2.64,0,0,1-.27.44c-.25.13-.62.14-.88.25s-.17.19-.26.27a1.24,1.24,0,0,1,0,.27,2.92,2.92,0,0,0,.39.32c.15.08.34,0,.49,0v0a1.61,1.61,0,0,0,.49-.06l.16-.1.12,0c.06,0,.09,0,.15-.06l.28,0c.1,0,.26-.17.36-.14v0c-.12.36-.5.45-.71.54a2.1,2.1,0,0,0-.72.56.45.45,0,0,0,.2.36.11.11,0,0,0,0,.09.35.35,0,0,0,.2,0s0,0,0,.05a.51.51,0,0,0,.3,0c.12,0,.22,0,.33,0s.35-.18.52-.23a1.63,1.63,0,0,1,.36.05c.08,0,.19,0,.28,0s.37-.2.51-.12c-.1.11-.17.42-.3.51l-.33.12-.15.13-.33.08c-.08,0-.09.11-.17.17s-.39.15-.56.33h0l.08.09a.28.28,0,0,0-.1.12.89.89,0,0,1,.09.26.5.5,0,0,0,.2.11c0,.05,0,.05,0,.1s.29,0,.45,0,0,0,0,.08l.25,0,.28-.13s0,0,0,.06a.83.83,0,0,0,.74-.29c.31.18.92-.17,1.27-.05a1.83,1.83,0,0,0-.41.45v.18a1,1,0,0,0-.38.14.16.16,0,0,1,0,.07l-.46.14a.94.94,0,0,1-.1.1c-.14.06-.3,0-.44.14l-.21.23s0,.07,0,.11-.18.17-.19.28.29.31.4.28c.09.26.38.1.53.06s0,0,0,.08a.89.89,0,0,0,.67-.16l.05.07c.25.08.41-.13.63-.31.06.06.06.09.11.13s.49-.17.64-.11c-.06.11,0,.18,0,.29a.79.79,0,0,0-.4.22l-.08.12-.29.11-.21.1c0,.05,0,.1-.07.14s-.28.09-.36.2-.43.26-.31.5l-.12.13c0,.07,0,.1,0,.17s.12.1.17.13,0,.08,0,.11,0,0,0,0l.31,0V22a.68.68,0,0,0,.53-.11.18.18,0,0,0,.05.07l.5-.16.2-.14c.12.16.53-.25.69-.31l.1,0a.47.47,0,0,0-.14.28,1.3,1.3,0,0,0-.53.32c0,.06-.05.12-.08.19s-.27.12-.39.29,0,.07,0,.11a.62.62,0,0,0-.35.27l0,.06a1,1,0,0,0-.16.22l.09.09,0,.14a2.41,2.41,0,0,0,.43.28l.22,0c.06,0,.08.06.16,0s.31-.18.43-.14,0,0,0-.05l0,0c.21.13.48-.25.69-.37,0,.05,0,0,.08,0a1.9,1.9,0,0,0,.59-.46c.16.11.15.06.29.09-.09.09-.28.2-.2.32l-.27.12c-.11.06-.16.14-.27.21l-.45.17c-.06,0-.06.12-.11.16s-.26.09-.37.17-.05.12-.09.15-.2.08-.28.22l.09.09a1,1,0,0,0-.13.18.48.48,0,0,0,.43.35s0,0,0,.07a.59.59,0,0,0,.55-.09c.09.17.52-.07.67-.15a.22.22,0,0,1,0,.08c.25,0,.44-.18.68-.32,0,0,0,0,.05.07a1.19,1.19,0,0,0,.52-.23c.09-.06.13-.16.21-.2a.79.79,0,0,0,.19.09v0a.22.22,0,0,0-.14.19l.05,0,0,0a.88.88,0,0,0-.56.5.81.81,0,0,0-.5.34l0,.13-.14.07a1.81,1.81,0,0,0-.21.18.24.24,0,0,0,0,.12.46.46,0,0,0-.26.27v0l.08.06-.12.17v0c.1,0,0,.08.08.15l.15.09v.08a.39.39,0,0,0,.39,0,.36.36,0,0,1,0,.1.91.91,0,0,0,.43-.16c.18.18.49,0,.66-.25.13.12.39-.06.53-.16l.19-.25a.76.76,0,0,0,.16.06c.31-.23.25-.31.41-.61h0c.17.29.55,0,.72-.17S32,25,32,25a1.83,1.83,0,0,0,.8-.06c.23-.11.18-.36.36-.53s.4-.23.45-.48a2.11,2.11,0,0,1,0-.26c0-.17.06-.21-.05-.38l.19-.23c0-.18.09-.37.14-.55s-.05-.14,0-.22a3,3,0,0,0,.14-.55l-.05-.13c0-.19.09-.38.1-.56L34,20.85l0-.45-.12-.14c0-.07,0-.15-.11-.19l0,0a.83.83,0,0,0-.19-.15c0,.06-.15.07-.19.17s.06.24-.12.37a.21.21,0,0,0-.12-.08.67.67,0,0,0-.17.4l-.09.06-.11-.15s.24-.54.25-.58A.57.57,0,0,1,33,20c0-.18.1-.37.12-.55a1.42,1.42,0,0,1-.16-.33.12.12,0,0,0-.1,0c-.06-.06-.12-.13-.17-.14l-.09.09-.1-.06-.2.3s0,0-.08,0-.15.32-.22.46-.09,0-.12.11a.92.92,0,0,1-.31.43l-.17.47c-.18-.05-.34.53-.37.62h0s0,0-.05-.09a.91.91,0,0,0,.06-.58,2.61,2.61,0,0,0,.25-.67l0-.16c.06-.18.16-.29.2-.46s0-.19,0-.31.14-.42.16-.54-.05-.11-.07-.2.05-.22,0-.32a3.35,3.35,0,0,0-.19-.53s0,0-.08,0-.06-.25-.31-.18l-.11.13s0,0-.08,0-.12.24-.18.34-.14.18-.19.27a.13.13,0,0,1,0,0,1.16,1.16,0,0,0-.16-.88c-.13,0-.25-.23-.43-.19a.49.49,0,0,1-.19.07c-.08.13-.06.31-.13.43s-.12.09-.16.19l-.06.36a.47.47,0,0,0-.1.1,1.15,1.15,0,0,0-.17.44c-.21,0-.24.32-.28.5-.06-.05-.09,0-.14,0s0-.05,0-.09a1,1,0,0,0,0-.71,1.84,1.84,0,0,0,.3-.71.35.35,0,0,1-.06-.09,2,2,0,0,0,.22-.73s0-.05-.05-.1a2,2,0,0,0,.09-.67l-.07-.1c0-.16.06-.34,0-.49l-.12-.13c0-.07,0-.12-.09-.18s-.12-.07-.19-.08l-.16,0-.06.13-.11,0-.09.24c0,.06-.07,0-.1.11s0,.3-.05.45l-.08.1a2.05,2.05,0,0,0-.05.55c-.18.08-.19.45-.21.61-.22.1-.25.4-.27.59h-.1a.08.08,0,0,1,0-.05,1.7,1.7,0,0,0,.05-.8,2.57,2.57,0,0,0,.35-.73L27.54,16a1.69,1.69,0,0,0,.21-.55c0-.08-.06-.16-.05-.25s.1-.35.06-.46-.07-.1-.09-.16-.08-.4-.23-.48-.23.15-.37.2H27a2.17,2.17,0,0,0-.12.36c0,.09-.11.13-.15.23l-.05.28-.09.11c-.06.17-.05.45-.17.57s-.09.34-.24.43l-.07,0-.07,0c0-.27.06-.51.07-.78,0,0,0-.08,0-.12a5.16,5.16,0,0,1,.26-.53c0-.07,0-.08,0-.14s.15-.39.16-.53-.09-.13-.09-.2.06-.21,0-.32l-.11-.14c-.11-.2-.14-.32-.37-.31s-.1.12-.19.14-.09.26-.14.4-.14.2-.19.32-.07.31-.11.42l-.18.21L25,15a.47.47,0,0,0-.26.1s0,0,0,0a2.61,2.61,0,0,1,0-.88l0-.11a.75.75,0,0,1,.07-.12,3,3,0,0,0,.16-.57.35.35,0,0,1-.08-.12,1.31,1.31,0,0,0-.05-.83s-.06,0-.11,0c-.07-.3-.41-.36-.5,0h-.09c0,.1-.06.21-.08.31s-.07.08-.09.16a2.38,2.38,0,0,1-.22.89c-.18,0-.26.15-.34.35-.12-.2,0-.45,0-.66s0-.48,0-.7.23-.46.24-.69-.08-.18-.07-.28c.05-.36,0-.85-.45-1-.42.28-.44.85-.61,1.34l0,.17c0,.07-.13.09-.18.16l0,0,0-.75a3.36,3.36,0,0,0,.05-1.18c0-.11-.26-.48-.39-.48s-.3.32-.31.38v.3a2.24,2.24,0,0,1-.14.36c0,.06,0,.15-.06.2s0,0-.05,0l0,0a2.84,2.84,0,0,1,0-.65.74.74,0,0,0,0-.14c0-.32.15-.75-.28-1l-.16,0a3.35,3.35,0,0,0-.34,1h0c-.21-.26.09-1.31-.28-1.48H20a.12.12,0,0,1-.09.09,4.77,4.77,0,0,1-.13.47h0l-.05-.06c-.1-.27.1-1.13-.32-1.25-.06,0-.13.07-.17.16s-.1.25-.16.38Z"/><path class="cls-2" d="M29.86,5.1c-.14-.19,0-.7-.33-.81l-.07,0c0,.06-.07.37-.14.31s0-.79-.33-.73c0,.07,0,.16,0,.24h0l0,0c0-.12-.06-.52-.2-.6h-.06a.52.52,0,0,0-.09.2h0c-.08-.13-.07-.31-.2-.42a.15.15,0,0,0-.08,0l-.33-.42-.12-.1c-.07-.11-.21-.31-.31-.34l0,0s0,.11,0,.16a2,2,0,0,0,.47.79s0,0,0,.06.19.17.24.26l-.07,0v0a1.17,1.17,0,0,0,.22.3l.2.08h0c-.09,0-.17,0-.19.15a.65.65,0,0,0,.45.26s0,0,0,0l0,0c-.06,0-.1,0-.16,0a.28.28,0,0,0,0,.09c.05.32.47.26.63.33,0,0,0,0,0,.05s-.29,0-.34.16c.16.33.45.33.69.38a.35.35,0,0,1,.14,0v0l-.09.1a.4.4,0,0,0-.38.15c0,.11.12.23.21.29a3.32,3.32,0,0,0,.65.07l0,0,0,0a.41.41,0,0,1-.18.1c-.14,0-.24,0-.38.09s0,.07,0,.1a.72.72,0,0,0,.26.31,3.46,3.46,0,0,0,.91.07l0,0h0c-.07.18-.47.1-.58.12a1,1,0,0,0-.25.14.45.45,0,0,0,.23.42s.09,0,.12,0a2.54,2.54,0,0,0,.82.11c.07,0,.16,0,.22,0s0,0,0,.05a1,1,0,0,1-.5.25h-.16c-.14,0-.23.14-.36.21s.15.41.31.45a3,3,0,0,0,.66,0l.05,0a1.42,1.42,0,0,0,.28,0c.08,0,.37-.09.43,0a2.49,2.49,0,0,1-.22.32c-.2.08-.48.07-.68.13s-.14.13-.22.19a.75.75,0,0,1,0,.2A3.29,3.29,0,0,0,31,10c.11.07.26,0,.37,0v0a1.22,1.22,0,0,0,.38,0l.13-.06L32,10s.07,0,.11,0h.21c.08,0,.21-.11.28-.08h0c-.11.26-.39.31-.56.36a1.5,1.5,0,0,0-.57.38.33.33,0,0,0,.13.29s0,0,0,.06a.25.25,0,0,0,.14,0s0,0,0,0a.36.36,0,0,0,.23,0c.09,0,.17,0,.25,0s.27-.12.4-.14a1.47,1.47,0,0,1,.27.06,1.64,1.64,0,0,0,.22,0c.11,0,.29-.12.39,0-.09.08-.15.31-.25.37l-.26.07-.12.08-.25,0c-.07,0-.08.08-.14.12a2.2,2.2,0,0,0-.44.21h0a.35.35,0,0,0,.05.08S32,12,32,12a.37.37,0,0,1,.05.2.56.56,0,0,0,.15.1s0,0,0,.07a1.32,1.32,0,0,0,.34,0l0,.07h.19l.22-.08v.05a.65.65,0,0,0,.58-.18c.22.16.7-.07,1,0a1.56,1.56,0,0,0-.34.31v.14a.67.67,0,0,0-.3.08l0,0-.36.08-.08.07c-.1,0-.23,0-.34.08l-.17.15v.09c0,.07-.14.11-.15.2s.2.25.28.24c.06.2.28.1.4.08s0,0,0,.05a.62.62,0,0,0,.51-.07L34,14c.19.08.32-.07.5-.2,0,.05,0,.07.07.11s.38-.1.49,0c-.05.08,0,.13,0,.21a.67.67,0,0,0-.32.15l-.06.08-.23.06-.16.07-.07.1c-.07.06-.21.05-.28.13s-.34.16-.26.35l-.1.09c0,.06,0,.09,0,.14s.08.08.12.11a.19.19,0,0,1,0,.08v0h.24v0a.49.49,0,0,0,.41,0s0,0,0,.05l.38-.09.16-.09c.09.13.41-.15.54-.19l.07,0a.37.37,0,0,0-.11.2,1.22,1.22,0,0,0-.43.21l-.06.14a1,1,0,0,0-.31.19V16a.44.44,0,0,0-.28.18s0,0,0,.05a.48.48,0,0,0-.13.16l.06.07,0,.1a1.3,1.3,0,0,0,.31.24l.17,0s.06.06.12,0,.25-.12.33-.07l0-.05,0,0c.14.12.37-.15.54-.23,0,0,0,0,.05,0a1.37,1.37,0,0,0,.47-.31c.12.09.12.05.22.08-.07.06-.22.13-.17.23l-.21.08a2,2,0,0,0-.22.14l-.34.1c-.05,0-.06.08-.09.11s-.21.05-.3.11,0,.08-.06.1-.16.05-.23.15l.06.08a.63.63,0,0,0-.11.12.39.39,0,0,0,.31.3v.05a.45.45,0,0,0,.42,0c.07.14.4,0,.52-.07v.06c.19.06.35-.11.54-.2,0,0,0,0,0,.06a1,1,0,0,0,.41-.14c.07,0,.1-.12.16-.14a.74.74,0,0,0,.15.08l0,0a.16.16,0,0,0-.11.13.08.08,0,0,0,0,0l0,0a.63.63,0,0,0-.45.34.65.65,0,0,0-.4.22l0,.1-.11,0c-.07,0-.1.09-.17.13a.27.27,0,0,0,0,.09c-.06,0-.2.11-.2.19h0s0,0,0,.05l-.1.12v0c.07,0,0,.06,0,.12l.11.08a.13.13,0,0,0,0,.06.35.35,0,0,0,.3,0s0,0,0,.07a.68.68,0,0,0,.33-.09c.13.15.37,0,.51-.15.1.1.3,0,.41-.09l.16-.17a.61.61,0,0,0,.12.05c.25-.15.2-.22.34-.43h0c.11.23.41,0,.55-.09s.09-.09.13-.1a1.51,1.51,0,0,0,.6,0c.19-.07.17-.26.31-.38s.32-.15.36-.33v-.2c0-.13.06-.16,0-.29l.15-.17c0-.13.09-.27.14-.4s0-.12,0-.17a2.49,2.49,0,0,0,.14-.41l0-.1c0-.15.08-.28.1-.42l0-.12c0-.11,0-.22,0-.33a.91.91,0,0,1-.08-.13c0-.05,0-.11-.08-.14l0,0a.53.53,0,0,0-.13-.13s-.12,0-.16.12,0,.18-.1.27a.24.24,0,0,0-.09-.07.43.43,0,0,0-.15.29l-.07.05L39.58,15s.21-.39.22-.42l0-.11c0-.14.1-.28.13-.41a1,1,0,0,1-.11-.26s0,0-.08,0-.08-.11-.12-.12l-.07.06-.08,0c0,.08-.11.15-.16.22s0,0-.06,0-.13.24-.18.34-.08,0-.11.07a.7.7,0,0,1-.25.31,3.54,3.54,0,0,1-.16.34c-.13-.05-.28.38-.31.45h0a.09.09,0,0,1,0-.07.7.7,0,0,0,.08-.44,1.8,1.8,0,0,0,.22-.49.49.49,0,0,0,0-.12c.06-.14.14-.21.18-.33s0-.15,0-.25.13-.31.15-.39,0-.09,0-.16,0-.16,0-.24a1.91,1.91,0,0,0-.11-.41s0,0-.06,0,0-.19-.23-.15l-.08.09s0,0-.06,0-.1.17-.16.25-.12.12-.16.18,0,0,0,0a.91.91,0,0,0-.07-.68c-.1,0-.18-.18-.32-.16a.74.74,0,0,1-.14,0c-.07.09-.07.23-.12.31s-.1.06-.13.13a2.68,2.68,0,0,0-.07.27l-.08.07a.81.81,0,0,0-.15.33c-.17,0-.2.22-.24.36,0,0-.06,0-.11,0a.13.13,0,0,1,0-.08.81.81,0,0,0,0-.53,1.58,1.58,0,0,0,.26-.52.1.1,0,0,1,0-.08,1.32,1.32,0,0,0,.2-.54.15.15,0,0,1,0-.07,1.59,1.59,0,0,0,.1-.51.56.56,0,0,1-.05-.08c0-.12.07-.25,0-.37l-.09-.1c0-.06,0-.1-.06-.15s-.08-.06-.13-.07h-.13l0,.1H36.4l-.07.18s-.06,0-.09.07l-.06.34-.07.07a1.93,1.93,0,0,0-.06.42c-.14,0-.17.32-.19.44-.18.07-.21.29-.23.43h-.08l0,0a1.15,1.15,0,0,0,.08-.6,2.28,2.28,0,0,0,.31-.54s0-.08,0-.13a1.13,1.13,0,0,0,.19-.4c0-.06,0-.13,0-.2s.1-.25.08-.34-.06-.08-.07-.13,0-.3-.15-.37-.18.09-.29.12h-.08a1.33,1.33,0,0,0-.11.26c0,.07-.09.1-.13.17a1.17,1.17,0,0,1,0,.2l-.07.08c-.06.13-.06.34-.16.42s-.08.26-.21.32l0,0,0,0c0-.2.08-.38.1-.58a.28.28,0,0,1,0-.09,4,4,0,0,1,.23-.39c0-.05,0-.06,0-.11s.13-.28.15-.39-.06-.1-.06-.16.06-.15,0-.24l-.07-.11C35,9,35,8.89,34.79,8.88s-.07.08-.14.09-.09.2-.13.3-.12.14-.17.23-.06.23-.1.31L34.1,10l-.08.21a.39.39,0,0,0-.2.06l0,0a2.57,2.57,0,0,1,.06-.67s0-.06,0-.09l.06-.09a2.1,2.1,0,0,0,.15-.42.28.28,0,0,1,0-.09,1,1,0,0,0,0-.64s0,0-.08,0c0-.23-.29-.3-.38-.07h-.07c0,.08,0,.16-.07.24s-.06.05-.08.11a1.76,1.76,0,0,1-.21.66.36.36,0,0,0-.27.24c-.09-.16,0-.34,0-.5s0-.36,0-.52.2-.34.22-.52-.05-.13,0-.21c.06-.27,0-.64-.29-.75-.33.18-.37.62-.53,1l0,.14s-.1,0-.15.11l0,0c0-.19,0-.38,0-.57a2.44,2.44,0,0,0,.1-.88c0-.1-.17-.39-.28-.39s-.23.21-.24.26a1.8,1.8,0,0,0,0,.22,1.13,1.13,0,0,1-.13.27s0,.12-.05.15,0,0,0,0l0,0a2,2,0,0,1,0-.49l0-.11c0-.24.16-.56-.16-.77l-.12,0c-.21.24-.2.49-.31.75h0c-.14-.22.13-1-.13-1.15h-.09a.12.12,0,0,1-.08.06c0,.11-.07.23-.12.35h0a.1.1,0,0,1,0-.05c-.06-.21.13-.84-.18-1-.05,0-.1,0-.14.11s-.09.19-.13.28Z"/><path class="cls-2" d="M38.4,4.2c-.08-.13,0-.47-.17-.56l0,0s-.07.24-.11.2,0-.53-.18-.52c0,.05,0,.11,0,.16h0c0-.08,0-.36-.1-.41l0,0s0,.08-.08.13h0c0-.09,0-.22-.11-.3l0,0-.2-.3-.08-.08c0-.07-.12-.22-.18-.24h0a.49.49,0,0,1,0,.11,1.41,1.41,0,0,0,.28.56s0,0,0,0,.11.13.14.2l0,0h0a.83.83,0,0,0,.14.22l.12.06h0c-.06,0-.12,0-.14.09a.48.48,0,0,0,.29.2s0,0,0,0l0,0c-.05,0-.08,0-.12,0a.18.18,0,0,1,0,.06c0,.22.3.2.4.26s0,0,0,0-.2,0-.24.09c.09.23.29.25.45.3s0,0,.09,0v0l-.07.06a.28.28,0,0,0-.27.07c0,.07.07.17.13.21a1.93,1.93,0,0,0,.43.09h0l0,0s-.07.05-.13.06-.15,0-.26,0v.06a.42.42,0,0,0,.15.23,2.06,2.06,0,0,0,.61.11h0c0,.12-.31,0-.39,0a1,1,0,0,0-.18.08.32.32,0,0,0,.14.29l.07,0a1.71,1.71,0,0,0,.55.14s.1,0,.14,0v0a.65.65,0,0,1-.34.13l-.11,0c-.09,0-.16.09-.25.12s.07.29.18.32a1.3,1.3,0,0,0,.44,0s0,0,0,0h.19c.06,0,.26,0,.29,0a2,2,0,0,1-.16.2,3.67,3.67,0,0,1-.46,0c-.07,0-.11.08-.16.12a.79.79,0,0,1,0,.13,1.25,1.25,0,0,0,.17.2c.07,0,.17,0,.25,0v0a.69.69,0,0,0,.25,0l.09,0,.05,0s0,0,.09,0h.14s.14-.06.19,0h0c-.09.18-.28.18-.4.21a1,1,0,0,0-.4.21.22.22,0,0,0,.07.2s0,0,0,0a.14.14,0,0,0,.09,0s0,0,0,0a.25.25,0,0,0,.15,0c.06,0,.11,0,.17,0s.19-.06.27-.07.14.05.18.06h.15c.07,0,.2-.06.26,0s-.12.19-.19.22l-.17,0L40,8.7h-.17s0,0-.1.07a1.45,1.45,0,0,0-.31.11h0l0,0s0,0-.05.05a.34.34,0,0,1,0,.14.65.65,0,0,0,.09.08s0,0,0,0,.15,0,.23.06v0l.13,0,.15,0v0a.41.41,0,0,0,.4-.08c.14.13.47,0,.64.1a.94.94,0,0,0-.24.19.28.28,0,0,0,0,.09.36.36,0,0,0-.2,0l0,0-.24,0-.06,0c-.07,0-.16,0-.23,0L40,9.92V10s-.11.07-.12.12.12.19.18.19.18.08.26.08,0,0,0,0a.41.41,0,0,0,.34,0l0,0c.12.07.21,0,.34-.09a.35.35,0,0,1,0,.08c.09,0,.26,0,.33,0s0,.09-.05.14a.63.63,0,0,0-.22.07l0,.06-.16,0-.11,0,0,.06s-.14,0-.19.07-.24.08-.19.22l-.08.05s0,0,0,.09.05.06.07.08a.14.14,0,0,1,0,.06h.17v0a.39.39,0,0,0,.28,0s0,0,0,0a1.09,1.09,0,0,1,.26,0l.11-.06c.05.1.28-.07.37-.09l0,0a.19.19,0,0,0-.09.13.65.65,0,0,0-.29.11l-.06.09a.61.61,0,0,0-.22.1v.06a.35.35,0,0,0-.2.1s0,0,0,0a.32.32,0,0,0-.1.1l0,.05a.25.25,0,0,1,0,.07,1.57,1.57,0,0,0,.19.18H41s0,.05.07,0,.18-.06.23,0v0h0c.09.08.26-.08.37-.12s0,0,0,0A1,1,0,0,0,42,12c.07.07.07,0,.14.07s-.15.08-.13.14l-.14,0a1.09,1.09,0,0,0-.15.08l-.24,0s0,.06-.07.07-.14,0-.2,0,0,.06,0,.07-.11,0-.16.08l0,.06L41,12.8a.24.24,0,0,0,.19.22v0a.28.28,0,0,0,.28,0c0,.09.26,0,.35,0v0c.12.05.23,0,.36-.1l0,0a.59.59,0,0,0,.28-.06c.05,0,.08-.07.12-.08a.24.24,0,0,0,.09.06h0s-.08,0-.08.08l0,0h0a.45.45,0,0,0-.32.2.43.43,0,0,0-.28.12l0,.07h-.07s-.07.06-.12.08,0,0,0,.06-.14.06-.15.11h0l0,0a.46.46,0,0,0-.07.07h0s0,.05,0,.08l.07.06s0,0,0,.05a.23.23,0,0,0,.2,0,.09.09,0,0,0,0,0,.36.36,0,0,0,.22,0c.08.11.25,0,.35-.06.06.07.2,0,.28,0l.12-.11.07,0c.18-.09.15-.14.26-.27h0c.06.16.28,0,.37,0s.07-.06.09-.06a1.13,1.13,0,0,0,.41.05c.13,0,.12-.16.22-.23s.22-.08.26-.2a.66.66,0,0,0,0-.14c0-.08.05-.1,0-.19l.11-.1.12-.26s0-.08,0-.12a1.45,1.45,0,0,0,.11-.26.2.2,0,0,1,0-.07,2.29,2.29,0,0,1,.09-.28l0-.08c0-.07,0-.15,0-.22l0-.09s0-.07,0-.1h0a.9.9,0,0,0-.09-.1s-.08,0-.11.08,0,.12-.08.17a.13.13,0,0,0-.06-.05.29.29,0,0,0-.11.18l-.05,0,0-.09.17-.27s0,0,0-.07a2.18,2.18,0,0,1,.11-.27.94.94,0,0,1-.06-.18h-.05a.18.18,0,0,0-.08-.09l0,0-.05,0-.12.13s0,0,0,0-.1.14-.14.21S44,11,44,11a.44.44,0,0,1-.19.19l-.12.22c-.09,0-.21.23-.24.28h0a.06.06,0,0,1,0,0,.39.39,0,0,0,.07-.29,1.13,1.13,0,0,0,.19-.31V11a2.39,2.39,0,0,0,.13-.21c0-.07,0-.1,0-.16a2.72,2.72,0,0,1,.12-.25c0-.05,0-.06,0-.11s0-.11,0-.16a2.33,2.33,0,0,0,0-.28s0,0,0,0,0-.13-.14-.12l-.06.06,0,0c-.06,0-.08.11-.12.16a1.31,1.31,0,0,1-.12.11s0,0,0,0a.57.57,0,0,0,0-.46c-.06,0-.11-.14-.2-.14l-.1,0c0,.05-.06.15-.1.2s-.06,0-.09.08l-.06.18-.06,0a.47.47,0,0,0-.12.2c-.11,0-.15.14-.18.23s0,0-.07,0a.11.11,0,0,1,0,0,.57.57,0,0,0,.06-.36c.13-.11.14-.22.21-.33s0,0,0,0a1,1,0,0,0,.17-.35.08.08,0,0,1,0,0,1,1,0,0,0,.1-.33l0-.06c0-.08.06-.16,0-.25l-.06-.07s0-.07,0-.1-.06,0-.09-.06h-.08l0,.06h-.06l-.06.12s0,0-.06,0l-.06.22,0,0a.88.88,0,0,0-.06.28c-.1,0-.14.2-.16.28s-.15.18-.18.27H41.8v0a.73.73,0,0,0,.09-.4,1.08,1.08,0,0,0,.23-.34.29.29,0,0,0,0-.09.88.88,0,0,0,.16-.25s0-.09,0-.13.08-.17.07-.23,0-.06,0-.09,0-.21-.08-.26-.13,0-.2.06l-.05,0a1.47,1.47,0,0,0-.09.17s-.07.06-.09.11a.69.69,0,0,0,0,.13l-.06,0c0,.08,0,.22-.12.27s-.07.16-.16.2,0,0,0,0l0,0a2.79,2.79,0,0,1,.1-.39V8.19c0-.09.12-.15.17-.24s0,0,0-.08.1-.18.12-.25,0-.07,0-.11a.75.75,0,0,0,0-.16l0-.07c0-.12,0-.18-.17-.2s-.06,0-.1,0l-.1.19c0,.06-.09.09-.13.15s0,.15-.08.2L41,7.76a.83.83,0,0,1-.07.13.21.21,0,0,0-.13,0v0a1.68,1.68,0,0,1,.07-.44.13.13,0,0,0,0-.06l0,0c0-.09.1-.19.13-.28S41,7,41,7a.61.61,0,0,0,0-.42l0,0c0-.16-.18-.22-.25-.07h0a1,1,0,0,0-.07.15s0,0-.05.07a1.18,1.18,0,0,1-.19.43.23.23,0,0,0-.19.14c0-.11,0-.22,0-.33s0-.24.07-.35.15-.21.17-.33,0-.09,0-.14a.43.43,0,0,0-.16-.53c-.23.1-.28.39-.4.62a.41.41,0,0,0,0,.08s-.07,0-.11.07v0c0-.13,0-.25,0-.38a1.52,1.52,0,0,0,.12-.59c0-.06-.09-.27-.16-.28s-.17.13-.18.16l0,.15a1.31,1.31,0,0,1-.09.17s0,.08-.05.1h0l0,0a1.19,1.19,0,0,1,0-.33.17.17,0,0,1,0-.07c0-.16.13-.37-.07-.53H39.2c-.15.15-.16.32-.25.48h0c-.08-.16.15-.66,0-.78h-.06a.07.07,0,0,1-.06,0,1.46,1.46,0,0,1-.1.23h0a.08.08,0,0,1,0,0c0-.14.13-.56-.08-.66,0,0-.06,0-.09.07s-.07.11-.11.17Z"/><path class="cls-2" d="M51.7,18.32c.1.07.42,0,.46.18l0,0s-.23,0-.2.06.47,0,.41.18a.77.77,0,0,1-.15,0h0c.06,0,.3,0,.33.11v0a.33.33,0,0,1-.13,0h0c.07,0,.18,0,.23.11s0,0,0,0l.21.17.06.06c.06,0,.16.11.17.16h0l-.1,0a1.07,1.07,0,0,1-.42-.25l0,0c-.06,0-.09-.1-.14-.12l0,0h0s-.13-.07-.16-.12l0-.1h0s0,.09-.1.1a.31.31,0,0,1-.12-.23h0s0,.06,0,.08h-.06c-.18,0-.11-.24-.14-.32h0c-.07,0-.06.14-.12.16s-.17-.23-.18-.35a.09.09,0,0,0,0-.07h0l-.06,0a.22.22,0,0,1-.12.19.2.2,0,0,1-.15-.11c0-.06,0-.25,0-.33h0a.34.34,0,0,0-.08.09c0,.06,0,.11-.08.18h-.06a.37.37,0,0,1-.16-.14,1.16,1.16,0,0,1,0-.45h0c-.11,0-.1.23-.12.28s-.07.08-.1.12a.25.25,0,0,1-.23-.12s0-.05,0-.06,0-.27,0-.41,0-.07,0-.11h0a.52.52,0,0,0-.19.24v.08a1.14,1.14,0,0,1-.15.17.21.21,0,0,1-.24-.16,1.39,1.39,0,0,1,.07-.33l0,0a1,1,0,0,1,0-.14s.08-.18.06-.21l-.21.1c-.06.1-.07.24-.13.33s-.09.07-.13.11a.25.25,0,0,0-.12,0l-.14-.15s0-.13,0-.18h0a.41.41,0,0,1,0-.19l0-.06v0s0,0,0-.06,0-.07,0-.1.08-.1.07-.14h0c-.16.05-.21.19-.26.27a.85.85,0,0,1-.26.28c-.09,0-.11,0-.16-.08h0a.2.2,0,0,1,0-.07h0s0-.08,0-.11,0-.09,0-.13.09-.13.11-.19a.66.66,0,0,0,0-.14s0-.07,0-.11.1-.13.06-.19-.19.07-.23.12l-.06.13-.07.05a.65.65,0,0,1,0,.13s-.05,0-.08.06-.08.15-.16.22h0s0,0,0,0,0,0-.05,0l-.11,0s0,0,0-.07h0c0-.06,0-.11,0-.17l0,0s0-.06,0-.09l.07-.11h0a.32.32,0,0,1,.15-.28c-.07-.12.1-.35.05-.48a1,1,0,0,1-.21.16h-.08a.34.34,0,0,1-.08.14l0,0c0,.06,0,.11-.07.17l0,0c0,.05,0,.11-.07.17l-.11.08h0s-.08.08-.13.08a.13.13,0,0,1-.12-.15c-.11,0,0-.14,0-.2s0,0,0,0a.28.28,0,0,1,.09-.25l0,0c0-.09.07-.15.16-.24l-.06,0c0-.07.09-.19.06-.24s-.08,0-.13,0a.31.31,0,0,1-.11.15l0,0-.06.11a.35.35,0,0,1,0,.08l-.06,0s0,.1-.1.13-.13.17-.23.12l-.06.05s0,0-.08,0,0,0-.06-.06h0a.5.5,0,0,1,0-.12h0a.23.23,0,0,1,.06-.2l0,0a1.08,1.08,0,0,0,.08-.19.46.46,0,0,0,.07-.07c-.07,0,.13-.2.16-.27a0,0,0,0,1,0,0,.27.27,0,0,1-.13,0,.55.55,0,0,1-.15.2l-.09,0c-.05.05-.06.11-.14.16h-.05a.29.29,0,0,1-.13.14l0,0-.1.07s0,0,0,0l-.07,0a1.16,1.16,0,0,1-.11-.16.29.29,0,0,0,0-.09s0,0,0-.05.09-.12.07-.17h0c0-.07.13-.18.19-.26s0,0,0,0a.77.77,0,0,1,.22-.22c0-.06,0-.06,0-.11s-.1.1-.15.08a.86.86,0,0,0-.07.1s-.06.06-.1.1l-.08.17-.08,0s0,.1-.08.15-.06,0-.07,0,0,.07-.1.1l-.05,0-.08,0a.17.17,0,0,1-.15-.16h0a.2.2,0,0,1,0-.2c-.08,0,0-.2.08-.26h0c0-.09.09-.17.16-.26l0,0a.55.55,0,0,1,.12-.2s.08,0,.1-.07a.2.2,0,0,1,0-.08h0a.09.09,0,0,1-.08,0l0,0h0c0,.1-.12.16-.24.22a.4.4,0,0,1-.16.19h-.07l0,.05s-.06,0-.08.08h-.06a.19.19,0,0,1-.13.1h0l0,0-.08,0h0s0,0-.07,0l0-.05h0a.14.14,0,0,1,0-.15h0a.34.34,0,0,1,.08-.16c-.08-.07,0-.18.12-.25s0-.14.09-.2l.11-.07s0,0,0-.06.15-.09.28-.16h0c-.13-.06,0-.21.09-.27s.07,0,.07-.06a.61.61,0,0,1,.05-.3c0-.09.16-.08.25-.15s.11-.15.22-.17h.12c.08,0,.1,0,.17,0l.11-.07.25-.06s.06,0,.1,0a1.23,1.23,0,0,1,.25-.05h.06a2.34,2.34,0,0,0,.26,0l.06,0,.2,0,.07,0s.07,0,.08,0h0S47,13,47,13s0,.06-.08.08-.11,0-.17,0,0,0,0,.05a.4.4,0,0,1-.18.07l0,0,.07,0,.26-.1.07,0,.25-.06a.42.42,0,0,0,.14.06s0,0,0,0,.06,0,.06.06l0,0,0,0-.14.07s0,0,0,0-.15.06-.21.09,0,0-.06.05a.43.43,0,0,0-.2.11l-.21.07c0,.07-.25.13-.29.15h0l0,0a.51.51,0,0,1,.27,0,1.18,1.18,0,0,1,.3-.1h.08a.9.9,0,0,1,.21-.08c.07,0,.08,0,.14,0l.25-.07s0,0,.09,0a.66.66,0,0,0,.14,0l.24.06s0,0,0,0,.11,0,.08.11L48,14s0,0,0,0a.46.46,0,0,1-.16.07l-.12.08h0a.61.61,0,0,1,.4.05s.1.09.08.16a.13.13,0,0,0,0,.07c-.06,0-.14,0-.19,0s0,.05-.09.06l-.17,0,0,0-.21.06c0,.08-.15.1-.23.11s0,0,0,.06h0a.5.5,0,0,1,.32,0,1.34,1.34,0,0,1,.33-.12l0,0a.88.88,0,0,1,.34-.08h0a1.1,1.1,0,0,1,.31,0l0,0c.07,0,.15,0,.22,0l.06.05s0,0,.07,0,0,.05,0,.07,0,0,0,.06l-.06,0A.43.43,0,0,1,49,15l-.11,0s0,0-.06,0l-.2,0-.05,0a2,2,0,0,1-.25,0c0,.07-.21.08-.28.08s-.19.1-.27.11,0,0,0,0h0a.75.75,0,0,1,.36,0,1.63,1.63,0,0,1,.34-.14l.07,0a1,1,0,0,1,.26-.08s.07,0,.11,0a1.77,1.77,0,0,1,.21,0l.07,0c.05,0,.18,0,.22.08s-.08.09-.1.14v0l-.17.05-.11.06-.12,0,0,0a1.07,1.07,0,0,0-.27.06c-.07.07-.15,0-.2.1v0l.36,0h0a2.6,2.6,0,0,0,.25-.1s0,0,.06,0,.18-.06.24-.06.06,0,.09,0,.1,0,.15,0l.06,0c.09,0,.14.05.13.14s-.05,0-.07.07l-.18.05a1.09,1.09,0,0,1-.15.08l-.19,0-.1.08-.13,0a.24.24,0,0,1-.05.1h0a1.94,1.94,0,0,0,.41,0l.05,0,0,0a1.25,1.25,0,0,1,.26-.07.09.09,0,0,0,.06,0,.77.77,0,0,1,.37,0s0,0,0,0,.15.15,0,.19v0l-.14,0s0,0-.07,0a1.43,1.43,0,0,0-.41.09.24.24,0,0,1-.17.13c.09.05.21,0,.3,0H50c.11,0,.21-.09.32-.1s.08,0,.12,0,.39,0,.42.17c-.13.16-.39.17-.61.23l-.09,0-.07.07h.35a1.91,1.91,0,0,1,.53,0c.05,0,.21.1.21.15s-.15.11-.18.11h-.13l-.17.05s-.07,0-.09,0,0,0,0,0v0a1.5,1.5,0,0,0,.3,0H51c.15,0,.34-.06.44.1a.14.14,0,0,1,0,.06,1.68,1.68,0,0,1-.47.14h0c.12.08.6,0,.67.09v0s0,0,0,0l-.22.05h0s0,0,0,0,.52,0,.56.11,0,0-.07.06l-.18.07Z"/><path class="cls-2" d="M44.68,3.74c0-.11,0-.34-.09-.42h0s-.06.17-.09.13.06-.38-.1-.38,0,.07,0,.11h0c0-.06,0-.26,0-.31h0s0,.05-.07.09h0c0-.07,0-.15-.06-.22h0l-.13-.23,0-.06a.58.58,0,0,0-.13-.2h0l0,.08a.91.91,0,0,0,.16.42s0,0,0,0,.08.1.09.15h0a.68.68,0,0,0,.09.17l.08.06h0s-.08,0-.1,0a.28.28,0,0,0,.19.17s0,0,0,0h0s0,0-.08,0a.09.09,0,0,0,0,0c0,.16.2.17.27.22v0c-.05,0-.14,0-.18,0s.19.21.3.26l.07,0s0,0,0,0l-.05,0a.19.19,0,0,0-.19,0c0,.05,0,.12.08.16a1.75,1.75,0,0,0,.3.1h0s-.06,0-.1,0-.11,0-.18,0l0,0a.32.32,0,0,0,.1.17,1.53,1.53,0,0,0,.43.13h0c-.05.08-.23,0-.29,0a.5.5,0,0,0-.13,0,.26.26,0,0,0,.08.23l.05,0a1.3,1.3,0,0,0,.39.14s.07,0,.1,0,0,0,0,0a.45.45,0,0,1-.26.07l-.07,0a.62.62,0,0,0-.19.07c-.05.08,0,.21.11.24a1.13,1.13,0,0,0,.32,0l0,0,.13,0s.18,0,.21,0a1.58,1.58,0,0,1-.13.13c-.1,0-.24,0-.33,0s-.09.05-.12.07l0,.09a1.42,1.42,0,0,0,.11.16s.13,0,.18.06v0l.18,0,.06,0,0,0h.06l.1,0s.11,0,.14,0h0a.36.36,0,0,1-.3.12.74.74,0,0,0-.31.12.18.18,0,0,0,0,.15s0,0,0,0,0,0,.07,0v0s.08,0,.11,0,.08,0,.12,0a1.5,1.5,0,0,1,.2,0s.1,0,.13.05l.1,0c.06,0,.15,0,.19,0s-.1.13-.15.15h-.13l-.06,0h-.12s-.05,0-.08,0-.15,0-.23.06h0l0,0s0,0,0,0a.38.38,0,0,1,0,.1.17.17,0,0,0,.06.06s0,0,0,0a1.42,1.42,0,0,0,.16,0s0,0,0,0l.09,0,.11,0v0a.28.28,0,0,0,.29,0c.1.1.34,0,.46.12a.59.59,0,0,0-.19.12s0,0,0,.06a.38.38,0,0,0-.15,0l0,0h-.18l0,0s-.11,0-.17,0l-.1.06V8s-.08,0-.09.08.07.14.12.14.12.08.18.08,0,0,0,0a.31.31,0,0,0,.25,0v0c.08.06.16,0,.25,0s0,0,0,0,.19,0,.23,0,0,.06,0,.09a.53.53,0,0,0-.17,0l0,0H46l0,0s-.1,0-.14,0-.18,0-.16.14a.1.1,0,0,1,0,0s0,0,0,.06,0,0,.06.07a.05.05,0,0,0,0,0h0l.12,0v0a.25.25,0,0,0,.19,0l0,0h.19l.08,0c0,.07.21,0,.27,0l0,0a.15.15,0,0,0-.08.08.42.42,0,0,0-.21.06l0,.06c-.05,0-.1,0-.16.06v0a.19.19,0,0,0-.15.06v0a.27.27,0,0,0-.08.07l0,0,0,0,.13.15H46s0,0,.05,0,.13,0,.16,0v0h0c.06.08.2,0,.28-.05s0,0,0,0a.6.6,0,0,0,.25-.1.18.18,0,0,0,.1.06s-.11,0-.1.1H46.7l-.11.05h-.17s0,0-.06,0a.68.68,0,0,1-.15,0s0,0,0,0-.08,0-.12,0l0,0s0,0-.06.05a.17.17,0,0,0,.12.17,0,0,0,0,1,0,0,.22.22,0,0,0,.21,0c0,.08.19,0,.25,0v0c.08,0,.17,0,.27,0v0a.35.35,0,0,0,.2,0s.06,0,.09-.05l.07.06h0s-.06,0-.07.05l0,0h0a.28.28,0,0,0-.24.12.28.28,0,0,0-.21.07l0,0h0l-.09,0a.08.08,0,0,0,0,0,.16.16,0,0,0-.11.07h0l0,0,0,.05h0s0,0,0,.07l0,.05s0,0,0,0a.14.14,0,0,0,.14,0v0c.06,0,.11,0,.17,0s.17,0,.25,0,.15,0,.21,0l.09-.07a.1.1,0,0,0,.05,0c.13,0,.11-.08.2-.17h0c0,.13.2.05.27,0s0,0,.07,0a.73.73,0,0,0,.29.07c.09,0,.1-.11.18-.15s.16,0,.19-.12,0-.07,0-.1,0-.07,0-.14l.08-.06a1.62,1.62,0,0,0,.1-.18s0-.06,0-.09a1,1,0,0,0,.1-.18.09.09,0,0,1,0-.05c0-.07.06-.13.08-.19V9.68A1,1,0,0,1,49,9.52l0-.06s0-.06,0-.08h0s0-.07-.06-.08-.06,0-.08,0,0,.09-.07.12l0,0a.18.18,0,0,0-.09.12l0,0,0-.07.14-.18V9.26a1.51,1.51,0,0,1,.09-.18.89.89,0,0,1,0-.14h0a.13.13,0,0,0-.05-.07l0,0,0,0-.1.09,0,0c-.07,0-.08.1-.12.14s0,0-.05,0a.29.29,0,0,1-.15.12l-.1.15c-.06,0-.17.15-.19.18h0a.06.06,0,0,1,0,0,.27.27,0,0,0,.07-.2A.91.91,0,0,0,48,9.1s0,0,0-.06.08-.09.11-.15,0-.07,0-.11.09-.14.11-.18,0,0,0-.08,0-.07,0-.11a.75.75,0,0,0,0-.21h0s0-.1-.09-.1l0,0s0,0,0,0-.06.07-.09.1a.31.31,0,0,0-.09.07v0a.46.46,0,0,0,0-.33s-.07-.11-.14-.12H47.7s-.05.1-.08.14a.15.15,0,0,0-.08,0l0,.12,0,0a.41.41,0,0,0-.1.14c-.08,0-.12.09-.14.15a.06.06,0,0,0-.05,0v0a.45.45,0,0,0,.07-.25c.1-.08.11-.15.17-.23a.05.05,0,0,1,0,0,.62.62,0,0,0,.14-.23s0,0,0,0a.7.7,0,0,0,.09-.24v0c0-.06.05-.11,0-.18l0,0s0,0,0-.08,0,0-.06,0h-.06l0,0h0a.35.35,0,0,1,0,.08s0,0,0,0l-.06.16,0,0a1.06,1.06,0,0,0-.06.19c-.07,0-.11.14-.13.2s-.12.11-.14.18h0v0a.65.65,0,0,0,.09-.29.66.66,0,0,0,.19-.22.13.13,0,0,0,0-.06,1,1,0,0,0,.13-.18s0-.07,0-.09a.64.64,0,0,0,.06-.16s0-.05,0-.07a.25.25,0,0,0,0-.2c-.06-.06-.09,0-.15,0h0s0,.08-.08.11l-.07.07,0,.09,0,0c0,.06-.05.16-.1.19s-.07.11-.13.13h0l0,0c0-.09.07-.17.1-.27v0c0-.07.1-.1.14-.17s0,0,0-.05.09-.12.1-.17,0-.06,0-.08,0-.07,0-.11l0-.06c0-.09,0-.13-.1-.16a.1.1,0,0,1-.08,0l-.09.13a.81.81,0,0,1-.1.09.61.61,0,0,1-.07.14l-.08.06-.06.09a.17.17,0,0,0-.1,0v0a.89.89,0,0,1,.08-.31v0l0,0L46.37,6s0,0,0,0a.47.47,0,0,0,.06-.31l0,0c0-.12-.11-.18-.17-.07h0a.47.47,0,0,0,0,.1s0,0,0,0a.8.8,0,0,1-.16.3c-.06,0-.1,0-.15.08a.43.43,0,0,1,.06-.24c0-.07,0-.17.06-.24s.13-.14.15-.23,0-.07,0-.1.07-.31-.08-.39-.23.25-.33.41l0,.06s0,0-.08,0v0c0-.09,0-.18,0-.27a1,1,0,0,0,.12-.41c0-.05-.05-.2-.1-.22s-.13.08-.14.1a.43.43,0,0,0,0,.11,1,1,0,0,1-.08.11s0,.06,0,.07h0l0,0a1,1,0,0,1,0-.23V4.55c0-.11.11-.25,0-.38h-.06c-.12.1-.13.22-.21.33h0c0-.11.14-.46,0-.56h0l0,0a1.09,1.09,0,0,1-.08.15h0s0,0,0,0,.13-.39,0-.48-.05,0-.07,0l-.09.12Z"/><path class="cls-2" d="M48.76,3.88c0-.08,0-.26-.07-.33h0s0,.13-.07.11,0-.29-.07-.3a.32.32,0,0,0,0,.09h0s0-.19,0-.23h0s0,0-.05.07h0s0-.12,0-.17h0a1,1,0,0,0-.1-.17l0,0a.43.43,0,0,0-.09-.15h0l0,.06a.72.72,0,0,0,.13.32s0,0,0,0,.06.07.07.11h0s0,.1.07.13l.06,0h0s-.06,0-.07,0,.09.1.14.13h0s0,0-.06,0,0,0,0,0,.16.13.21.16v0s-.11,0-.14,0,.15.16.23.2a.06.06,0,0,1,0,0h0l0,0a.14.14,0,0,0-.15,0s0,.09.06.12a1.55,1.55,0,0,0,.23.07h0l-.07,0s-.08,0-.14,0v0a.21.21,0,0,0,.07.13,1.24,1.24,0,0,0,.33.09h0c0,.06-.18,0-.22,0a.29.29,0,0,0-.1,0,.19.19,0,0,0,.06.17h0c.09.08.19.07.29.11S49,5,49,5v0a.3.3,0,0,1-.2,0h-.05a.44.44,0,0,0-.15,0,.16.16,0,0,0,.09.18.67.67,0,0,0,.24,0v0h.11s.13,0,.15,0l-.1.1c-.07,0-.17,0-.25,0s-.06,0-.09,0a.14.14,0,0,1,0,.07.81.81,0,0,0,.08.12s.09,0,.13,0h0l.14,0h0l0,0h0l.08,0s.08,0,.11,0h0c0,.08-.16.08-.22.09A.48.48,0,0,0,49,6a.15.15,0,0,0,0,.11v0l0,0s0,0,0,0,.06,0,.08,0l.09,0,.15,0,.1,0h.08s.11,0,.14,0-.07.1-.11.11h-.1l-.05,0h-.09s0,0-.06,0a.59.59,0,0,0-.17,0h0s0,0,0,0l0,0a.11.11,0,0,1,0,.08l0,0s0,0,0,0,.08,0,.12,0v0h.16v0a.25.25,0,0,0,.22,0c.07.08.25,0,.34.09a.46.46,0,0,0-.14.09s0,0,0,0-.08,0-.11,0h-.15l0,0s-.09,0-.13,0l-.07,0s0,0,0,0-.06,0-.07.06.06.11.09.11.1.06.14.06v0a.21.21,0,0,0,.19,0,0,0,0,0,0,0,0c.06,0,.12,0,.19,0l0,0c.05,0,.14,0,.18,0s0,0,0,.07a.24.24,0,0,0-.12,0l0,0h-.15l0,0s-.08,0-.11,0-.13,0-.11.11l0,0s0,0,0,0,0,0,0,0v0h0l.08,0h0a.26.26,0,0,0,.15,0V8h.15l.06,0c0,.06.16,0,.21,0h0a.12.12,0,0,0-.05.07.35.35,0,0,0-.17,0l0,0s-.08,0-.13.05v0a.17.17,0,0,0-.11,0v0l-.06,0,0,0a.08.08,0,0,1,0,0l.1.11h.07s0,0,0,0,.09,0,.12,0v0h0s.14,0,.21,0l0,0a.71.71,0,0,0,.18-.08s0,0,.08.05-.09,0-.08.07h-.08l-.09,0h-.13s0,0,0,0-.07,0-.11,0,0,0,0,0-.06,0-.09,0v0s0,0,0,0a.14.14,0,0,0,.09.13v0a.14.14,0,0,0,.15,0c0,.06.15,0,.2,0v0c.07,0,.13,0,.21,0v0a.23.23,0,0,0,.16,0s0,0,.07,0l0,0h0a.1.1,0,0,0,0,0V9h0a.24.24,0,0,0-.18.09.25.25,0,0,0-.16,0s0,0,0,0h0l-.06,0a.06.06,0,0,0,0,0s-.08,0-.09,0h0l0,0-.05,0h0s0,0,0,.05l0,0v0a.09.09,0,0,0,.11,0v0a.3.3,0,0,0,.13,0c0,.07.13,0,.19,0s.11,0,.15,0l.07-.05,0,0c.1,0,.09-.06.15-.13h0c0,.09.15,0,.21,0l0,0a.54.54,0,0,0,.22,0c.07,0,.07-.08.13-.11s.13,0,.15-.1a.17.17,0,0,0,0-.07c0-.05,0-.05,0-.11l.06-.05.08-.13s0-.05,0-.06a1,1,0,0,0,.08-.14s0,0,0,0L52,8.41a.06.06,0,0,1,0,0l0-.12,0-.05s0,0,0-.06h0s0-.05,0-.06,0,0-.06,0,0,.07,0,.09l0,0a.15.15,0,0,0-.07.09h0a.08.08,0,0,1,0,0l.1-.13v0s.05-.09.07-.14,0-.06,0-.1h0s0,0,0,0h0l0,0-.07.06h0c-.06,0-.07.08-.09.11s0,0,0,0a.31.31,0,0,1-.11.09.83.83,0,0,0-.08.12c-.05,0-.13.11-.14.13h0a0,0,0,0,1,0,0,.21.21,0,0,0,0-.15.61.61,0,0,0,.12-.16v0a.44.44,0,0,0,.08-.11s0,0,0-.08.07-.11.08-.14,0,0,0-.06,0,0,0-.08a.88.88,0,0,0,0-.16h0s0-.07-.07-.07l0,0s0,0,0,0,0,.06-.07.08l-.07.06v0a.36.36,0,0,0,0-.25S51.15,7,51.1,7H51s0,.08-.06.1,0,0,0,0a.36.36,0,0,0,0,.09l0,0a.34.34,0,0,0-.07.11c-.06,0-.09.06-.11.11s0,0,0,0v0a.3.3,0,0,0,0-.19A.52.52,0,0,0,50.81,7l0,0a.38.38,0,0,0,.11-.18s0,0,0,0A.36.36,0,0,0,51,6.62v0s0-.08,0-.13l0,0a.11.11,0,0,0,0-.06s0,0,0,0h0l0,0h0a.21.21,0,0,1,0,.06s0,0,0,0l0,.12,0,0a.38.38,0,0,0,0,.15c-.06,0-.09.1-.1.15s-.09.08-.11.13h0V7a.58.58,0,0,0,.07-.21,1,1,0,0,0,.14-.17.07.07,0,0,0,0,0,.57.57,0,0,0,.1-.13.22.22,0,0,1,0-.08s.05-.08.05-.12,0,0,0,0,0-.11,0-.15-.07,0-.11,0l0,0-.06.09s0,0-.05.05l0,.07,0,0s0,.12-.08.14,0,.08-.09.09h0l0,0c0-.07,0-.13.07-.2s0,0,0,0,.07-.07.1-.12,0,0,0,0,.07-.09.08-.13,0,0,0-.06,0,0,0-.09l0,0c0-.07,0-.1-.08-.12l-.06,0-.06.1s-.06,0-.08.07l-.06.11L50,6,50,6h-.08a.71.71,0,0,1,.06-.24v0l0,0s.06-.09.08-.14l0,0a.36.36,0,0,0,0-.23s0,0,0,0-.09-.13-.13,0h0l0,.08,0,0a.94.94,0,0,1-.12.22.14.14,0,0,0-.12.07.27.27,0,0,1,0-.18c0-.06,0-.13,0-.19s.1-.11.11-.17,0-.05,0-.08a.22.22,0,0,0-.06-.3c-.13,0-.17.2-.25.32a.08.08,0,0,1,0,0s0,0-.06,0h0c0-.07,0-.14,0-.21a.8.8,0,0,0,.09-.31s0-.15-.08-.16-.09.06-.1.08,0,0,0,.08l-.06.08s0,0,0,0,0,0,0,0h0a1.16,1.16,0,0,1,0-.18v0c0-.09.08-.19,0-.29h0c-.09.07-.1.16-.16.24h0c0-.09.11-.35,0-.43H49a.75.75,0,0,1-.07.12h0v0c0-.08.1-.3,0-.37s0,0-.05,0a.61.61,0,0,0-.07.1Z"/><path class="cls-2" d="M57.44,6.77c.08,0,.22.09.3,0s0,0,0,0-.1-.08-.07-.1.24.1.27,0,0,0-.07-.06h0s.17,0,.21,0v0A.1.1,0,0,0,58,6.45h0c.05,0,.1,0,.16,0v0l.17-.08,0,0a.31.31,0,0,0,.14-.07v0l0,0a.5.5,0,0,0-.3.08s0,0,0,0-.08,0-.12,0v0h0a.26.26,0,0,0-.12,0l-.05.06h0s0-.07,0-.09-.11.08-.14.14h0v0s0,0,0-.07h0c-.11,0-.15.14-.19.19h0s0-.12,0-.15-.16.13-.21.22,0,0,0,0h0l0-.05a.22.22,0,0,0,0-.16s-.09,0-.12,0a1.33,1.33,0,0,0-.11.24h0a.27.27,0,0,1,0-.09s0-.08,0-.15l0,0a.16.16,0,0,0-.13.06,1.3,1.3,0,0,0-.15.34h0c-.05,0,0-.19,0-.23a.48.48,0,0,0,0-.12.13.13,0,0,0-.16,0l0,0a1.05,1.05,0,0,0-.15.3s0,.06,0,.08h0a.42.42,0,0,1,0-.22l0-.07a.86.86,0,0,0,0-.16s-.15,0-.18,0a1.34,1.34,0,0,0-.09.26v0l0,.11S56,7,56,7l-.06-.13A2.61,2.61,0,0,1,56,6.63a.29.29,0,0,0,0-.11l-.06,0-.12.07s0,.1-.06.14h0a.66.66,0,0,0,0,.15s0,0,0,0l0,0a.07.07,0,0,0,0,0l0,.08s0,.09,0,.11h0a.37.37,0,0,1,0-.27.64.64,0,0,0,0-.27.12.12,0,0,0-.11,0h0a.13.13,0,0,0,0,0h0a.36.36,0,0,0,0,.09s0,.06,0,.09,0,.13,0,.18,0,.07,0,.09a.32.32,0,0,0,0,.09s0,.13,0,.16-.07-.1-.08-.15,0-.07,0-.11,0,0,0-.06l0-.1s0,0,0-.06,0-.14,0-.2h0a.08.08,0,0,0,0,0H55l-.05,0s0,0,0,0,0,.08-.06.13h0l0,.07a.31.31,0,0,0,0,.1h0a.41.41,0,0,0,0,.25c-.08.06-.08.28-.15.36a.68.68,0,0,0,0-.17l-.05,0a.23.23,0,0,0,0-.12v0l0-.15v0c0-.05,0-.09,0-.14a.29.29,0,0,0,0-.09h0s0-.07,0-.08-.11,0-.12.07-.07.1-.08.14h0a.38.38,0,0,0,0,.21h0c0,.06,0,.13,0,.22h0s0,.16-.05.2,0,0-.06,0a.33.33,0,0,0,0-.14l0,0,0-.09V7.21s0,0,0,0,0-.09,0-.12,0-.16-.07-.15a.11.11,0,0,1,0-.05h0a.09.09,0,0,0-.05,0l0,0h0l0,.09h0a.3.3,0,0,0,0,.16h0l0,.16a.17.17,0,0,1,0,.07c-.05,0,0,.18,0,.24l0,0a.09.09,0,0,0,0-.07.41.41,0,0,0,0-.19l0,0a.34.34,0,0,0,0-.14h0a.2.2,0,0,0,0-.13h0a.24.24,0,0,0,0-.07h0l0,0L53.24,7a.19.19,0,0,0,0,.07s0,0,0,0,0,.11,0,.14h0s0,.17,0,.24,0,0,0,0a.44.44,0,0,0,0,.22s0,0-.06.07,0-.1-.05-.1a.28.28,0,0,0,0-.09s0-.06,0-.1a.59.59,0,0,1,0-.14s0,0,0-.06,0-.08,0-.12,0,0,0,0a.22.22,0,0,0,0-.11h0L53,7a.13.13,0,0,0-.14.07h0a.19.19,0,0,0-.05.16c-.06,0,0,.16-.06.21h0c0,.06,0,.14,0,.23h0a.36.36,0,0,0,0,.18s0,0,0,.08l0,0h0a.12.12,0,0,0,0-.07h0a.29.29,0,0,0,0-.22.41.41,0,0,0,0-.19l0,0v0s0,0,0-.08h0a.12.12,0,0,0,0-.11h0s0,0,0,0h0s0,0,0,0l0,0h0a.16.16,0,0,0,0,.12h0a.34.34,0,0,0,0,.14c-.07,0-.06.14,0,.22s0,.12,0,.17l0,.08s0,0,0,0,0,.11.09.19h0c-.08,0-.06.16,0,.23s0,0,0,.06a.92.92,0,0,0-.09.23c0,.08.06.1.07.17s0,.14.06.18l.06,0a.08.08,0,0,0,.09,0,.24.24,0,0,1,0,.08l.11.11h.05s.07.09.11.11h0l.12.1h0l.09.06h0s0,0,.06,0,0,0,0,0l.06,0s0,0,0-.08-.06,0-.07-.07l0,0a.17.17,0,0,0-.06-.1v0h0l.1.14h0a1,1,0,0,1,.1.11.18.18,0,0,1,.1,0,0,0,0,0,0,0,0l0,0v0l0,0a.36.36,0,0,1,0-.09s0,0,0,0a.21.21,0,0,0-.08-.12.05.05,0,0,0,0-.05.24.24,0,0,1-.05-.14l-.08-.1s-.08-.16-.1-.18h0a.15.15,0,0,0,.12.09.58.58,0,0,0,.11.15l0,0s0,.08.08.11,0,0,.07,0,.08.09.1.11h0s.05,0,.07.05h.14l0,0s.06,0,.08-.06L54,9V9S54,9,54,8.93a.94.94,0,0,0,0-.09h0a.29.29,0,0,0,.22.06s.08,0,.09-.1,0,0,0-.06-.06-.06-.08-.09,0-.05,0-.07l-.07-.06v0a.27.27,0,0,0-.08-.1c0-.07,0-.11-.08-.14s0,0,0,0h0c0,.05.09.1.15.09a.5.5,0,0,0,.12.17h0a.51.51,0,0,0,.14.15h0a.39.39,0,0,0,.15.11h0s.06.06.11.06l0,0h0s0,0,.05,0v0l0,0a.06.06,0,0,1,0,0l-.05-.05s0,0,0,0l-.09-.07s0,0,0,0l-.12-.08c0-.06-.07-.11-.11-.13S54.43,8,54.39,8V8h0s.13.12.17.11a.69.69,0,0,0,.12.19h0a.25.25,0,0,0,.09.13s0,0,.06,0,.07.07.1.07h.05s.09,0,.13,0,0-.09,0-.13v0a.55.55,0,0,0-.06-.08s0-.05,0-.07l0,0s0,0,0,0S55,8,54.94,8s-.07-.07-.07-.12,0,0,0,0h0l.17.11h0s0,.1.08.14,0,0,0,0,.06.09.09.11,0,0,.06,0,0,0,.07,0h0c.06,0,.09,0,.12-.06a.1.1,0,0,1,0-.07L55.51,8l0-.1a.34.34,0,0,1-.09-.08.19.19,0,0,0,0-.07l0-.06a.28.28,0,0,0,0-.09h0c.06,0,.15.08.2.11h0s0,0,0,0l.11.11h0a.27.27,0,0,0,.19.08l0,0A.08.08,0,0,0,56,7.79v0L56,7.7s0,0,0,0-.13-.09-.17-.17a.17.17,0,0,0,0-.14c.06,0,.1.05.15.08a1.19,1.19,0,0,1,.15.09s.07.12.12.15h.08a.18.18,0,0,0,.27,0c0-.15-.14-.23-.23-.33l0,0s0,0,0-.07h0l.18.08a.56.56,0,0,0,.25.16s.14,0,.16,0,0-.12,0-.13l-.06,0s0-.06-.06-.08,0,0,0,0h0l.15.07h0c.07,0,.15.14.26,0v0C57,7.05,57,7,56.89,7h0c.09,0,.29.18.37.1l0,0a.06.06,0,0,1,0,0l-.09-.09h0c.07,0,.24.16.32.06a.15.15,0,0,0,0-.07l-.07-.09Z"/><path class="cls-2" d="M54.55,14.21c0,.07,0,.26.09.3l0,0s.05-.13.07-.11,0,.29.1.27,0-.06,0-.09h0s0,.19.05.22h0s0,0,.05-.07h0s0,.11.06.15h0l.11.15s0,0,0,0a.31.31,0,0,0,.1.12h0a.14.14,0,0,0,0-.06.71.71,0,0,0-.14-.29l0,0-.08-.09,0,0h0a.36.36,0,0,0-.07-.1l-.07,0h0s.07,0,.08,0-.1-.08-.16-.1,0,0,0,0H55a0,0,0,0,0,0,0c0-.12-.16-.1-.22-.12v0s.11,0,.13-.06-.15-.12-.24-.14h0l0,0a.13.13,0,0,0,.14-.05s0-.09-.07-.11a1.52,1.52,0,0,0-.23,0h0l.07,0s.09,0,.15,0v0a.22.22,0,0,0-.09-.12,1.77,1.77,0,0,0-.33,0h0c0-.07.18,0,.23,0l.1-.05a.15.15,0,0,0-.08-.15h0a.75.75,0,0,0-.3,0s-.06,0-.08,0v0a.55.55,0,0,1,.19-.09h.06a.91.91,0,0,0,.14-.07c0-.07,0-.15-.09-.16a1,1,0,0,0-.25,0h0a.21.21,0,0,0-.11,0s-.14,0-.16,0a.55.55,0,0,1,.1-.11,2.38,2.38,0,0,1,.26-.05s.06,0,.09-.07a.19.19,0,0,1,0-.07l-.1-.1a.33.33,0,0,0-.14,0v0H54l0,0h0l-.05,0h-.07s-.08.05-.11,0h0c.05-.1.16-.11.23-.13a.79.79,0,0,0,.23-.14.1.1,0,0,0,0-.1v0h-.06s0,0,0,0S54,12,54,12s-.06,0-.09,0l-.16.05-.09,0h-.09s-.11,0-.15,0,.08-.11.12-.13l.09,0,0,0h.1l0-.05a.67.67,0,0,0,.18-.07h0l0,0,0,0a.11.11,0,0,1,0-.08l-.06,0s0,0,0,0-.09,0-.13,0v0h-.07l-.09,0v0a.29.29,0,0,0-.22.07c-.08-.06-.27,0-.36,0a.67.67,0,0,0,.14-.11.09.09,0,0,1,0-.05.45.45,0,0,0,.11,0v0l.14,0,0,0s.09,0,.13,0l.08-.06v0s.06,0,.06-.07-.06-.09-.09-.09-.1,0-.15,0v0a.26.26,0,0,0-.19,0v0c-.07,0-.12,0-.2.07l0,0s-.15,0-.19,0S53,11,53,11a.26.26,0,0,0,.12-.05l0,0,.09,0,.06,0,0,0,.11,0s.13-.06.11-.13l0,0s0,0,0-.06,0,0,0,0v0h-.09a.23.23,0,0,0-.16,0s0,0,0,0l-.15,0-.06,0s-.16.06-.21.07h0a.19.19,0,0,0,.06-.07.37.37,0,0,0,.16-.07l0-.06a.33.33,0,0,0,.13-.07v0a.17.17,0,0,0,.11-.06v0l0-.06,0,0,0,0L53.26,10H53.2s0,0-.05,0-.09,0-.12,0v0h0c-.05,0-.15.06-.21.09l0,0a.52.52,0,0,0-.19.11s0,0-.08,0,.09,0,.07-.08l.09,0,.08-.05.14,0,0,0s.07,0,.11,0,0,0,0,0,.06,0,.09-.06l0,0,0-.05a.13.13,0,0,0-.1-.11v0a.19.19,0,0,0-.16,0c0-.05-.15,0-.19,0v0c-.07,0-.14,0-.21.07v0a.58.58,0,0,0-.16.05s0,0-.07.05l0,0h0s0,0,0,0l0,0h0a.28.28,0,0,0,.18-.13.23.23,0,0,0,.16-.08l0,0,0,0,.07,0v0a.11.11,0,0,0,.09-.07h0l0,0,.05,0h0s0,0,0,0l0,0v0a.13.13,0,0,0-.12,0v0a.22.22,0,0,0-.13,0c0-.05-.13,0-.19,0s-.12,0-.16,0l-.07.06,0,0c-.1.06-.08.08-.15.16h0c0-.08-.15,0-.21,0l0,0a.59.59,0,0,0-.23,0c-.07,0-.07.09-.13.14s-.12,0-.15.12v.07s0,.06,0,.11l-.06.05a1,1,0,0,0-.07.15s0,0,0,.06a.66.66,0,0,0-.07.15s0,0,0,0,0,.1-.06.15v0l0,.12,0,.05s0,0,0,0h0s0,0,.05.05,0,0,.06-.05,0-.06,0-.09l0,0a.2.2,0,0,0,.07-.1l0,0,0,.05-.1.15v0l-.07.15s0,.06,0,.09h0a.07.07,0,0,0,.05,0l0,0,0,0,.07-.08h0s.06-.08.09-.12l0,0a.27.27,0,0,1,.1-.11l.08-.12s.12-.14.13-.16h0a0,0,0,0,1,0,0,.23.23,0,0,0,0,.16.62.62,0,0,0-.11.17v.05s-.06.07-.08.12,0,.05,0,.08l-.08.15s0,0,0,.06,0,0,0,.08a.68.68,0,0,0,0,.15h0s0,.07.07,0l0,0h0a.31.31,0,0,0,.07-.09l.07-.06h0a.36.36,0,0,0,0,.25s.06.06.12.06l0,0a.6.6,0,0,0,.06-.11s0,0,.06,0l0-.1,0,0a.25.25,0,0,0,.07-.12c.06,0,.09-.08.11-.13h0v0a.27.27,0,0,0,0,.19.84.84,0,0,0-.12.19l0,0s-.11.16-.1.19v0a.64.64,0,0,0-.06.18s0,0,0,0,0,.09,0,.14l0,0s0,0,0,0,0,0,.05,0h0l0,0h0a.43.43,0,0,1,0-.07l0,0,0-.13,0,0a1.13,1.13,0,0,0,0-.15c.05,0,.08-.12.09-.17s.09-.1.1-.15h0v0a.42.42,0,0,0-.06.21.86.86,0,0,0-.13.2.11.11,0,0,0,0,.05.31.31,0,0,0-.09.14s0,.05,0,.07,0,.09,0,.12,0,0,0,0,0,.11,0,.14.07,0,.11-.05h0a.93.93,0,0,0,0-.1l.06-.06,0-.07,0,0s0-.13.07-.15,0-.1.09-.12h0l0,0a1.66,1.66,0,0,1-.06.21v0a1.21,1.21,0,0,1-.1.14s0,0,0,0-.06.11-.07.14,0,0,0,.06a.32.32,0,0,0,0,.09l0,0c0,.05,0,.09.08.09s0,0,.06,0l.06-.11.07-.08s0-.09.06-.12l.06,0,0-.08s.05,0,.07,0h0a.79.79,0,0,1-.05.25,0,0,0,0,0,0,0l0,0a1.09,1.09,0,0,0-.08.15s0,0,0,0a.45.45,0,0,0,0,.23h0c0,.09.1.11.14,0h0a.36.36,0,0,1,0-.09l0,0a.58.58,0,0,1,.11-.24.16.16,0,0,0,.11-.09c0,.06,0,.13,0,.18s0,.14,0,.19-.09.12-.1.19,0,0,0,.08,0,.23.08.27.17-.23.24-.36,0,0,0,0,0,0,.06,0h0l0,.2a1,1,0,0,0-.07.32s.05.14.09.14.1-.07.1-.09,0-.06,0-.08a.93.93,0,0,1,.05-.1s0,0,0-.05h0a.52.52,0,0,1,0,.18v0c0,.09-.08.2,0,.28h0a1.16,1.16,0,0,0,.14-.27h0c0,.08-.09.36,0,.41h0s0,0,0,0a.5.5,0,0,1,.05-.13h0v0c0,.07-.08.3,0,.35l.06,0,.06-.11Z"/><path class="cls-2" d="M52.3,15.41c.05.06,0,.23.12.27l0,0s0-.11.09-.09,0,.25.12.24,0-.05,0-.08h0s0,.17.07.2h0s0,0,0-.06h0s0,.1.08.14h0l.14.13a.1.1,0,0,0,0,0s.08.1.13.11h0l0-.05c0-.07-.11-.19-.19-.26h0s-.08-.06-.1-.09l0,0h0a.32.32,0,0,0-.1-.1l-.09,0h0s.08,0,.1-.05a.36.36,0,0,0-.21-.09s0,0,0,0h0s.06,0,.09,0v0c0-.11-.22-.09-.29-.12v0s.14,0,.17,0-.2-.12-.32-.13,0,0-.06,0h0l0,0a.26.26,0,0,0,.19,0s-.05-.07-.09-.09a1.46,1.46,0,0,0-.31,0h0s0,0,.09,0,.12,0,.19,0v0a.2.2,0,0,0-.11-.11,3,3,0,0,0-.43,0h0c.05-.06.23,0,.29,0l.13,0a.12.12,0,0,0-.1-.14h0a2.44,2.44,0,0,0-.39,0s-.08,0-.11,0,0,0,0,0a.59.59,0,0,1,.25-.07h.08a1,1,0,0,0,.18-.06c.05-.06,0-.13-.12-.15h-.48a.74.74,0,0,1-.21,0l.12-.1c.1,0,.24,0,.33,0a.45.45,0,0,0,.12-.06s0,0,0-.07L52,13.83a.53.53,0,0,0-.18,0v0h-.18l-.06,0h-.2s-.11,0-.14,0h0a.46.46,0,0,1,.29-.1,1,1,0,0,0,.3-.11s0-.06,0-.1v0h-.08s-.07,0-.11,0-.08,0-.12,0l-.2,0-.13,0H51c-.06,0-.15,0-.19,0s.08-.09.14-.11l.12,0,.07,0h.12s0,0,.07,0a1.12,1.12,0,0,0,.23-.06h0l0,0,0,0a.07.07,0,0,1,0-.06l-.06,0s0,0,0,0a1,1,0,0,0-.16,0l0,0h-.09l-.11,0v0a.45.45,0,0,0-.29.05c-.1-.06-.34,0-.46,0a1.51,1.51,0,0,0,.18-.09.09.09,0,0,1,0,0,.34.34,0,0,0,.14,0l0,0,.18,0h0a1,1,0,0,0,.17,0l.09-.05v0s.08,0,.09-.06-.09-.08-.13-.08-.13,0-.19,0,0,0,0,0a.44.44,0,0,0-.25,0v0a.33.33,0,0,0-.25.05l0,0c-.07,0-.19,0-.24,0s0,0,0-.07a.42.42,0,0,0,.16,0l0,0h.11l.08,0,0,0s.1,0,.14,0,.17-.05.14-.12l.06,0s0,0,0,0,0,0,0,0v0h-.12a.46.46,0,0,0-.2,0v0l-.19,0-.08,0s-.21,0-.27.05h0a.11.11,0,0,0,.07-.06.56.56,0,0,0,.21-.06l0,0a.52.52,0,0,0,.16-.06v0a.33.33,0,0,0,.14-.06h0l.08-.05,0,0,0,0-.14-.08h-.09a.06.06,0,0,0-.05,0,.47.47,0,0,1-.16,0h0c-.07,0-.19.05-.27.07s0,0,0,0a.59.59,0,0,0-.24.09s0,0-.1,0,.11,0,.09-.07l.11,0,.11,0,.17,0,0,0,.15,0,0,0a.3.3,0,0,0,.11,0l0,0a.1.1,0,0,0,.05,0c0-.05-.08-.09-.13-.1h0a.28.28,0,0,0-.2,0s-.2,0-.26,0h0c-.08,0-.17,0-.26,0v0a.52.52,0,0,0-.21,0l-.09,0s0,0-.06,0h0s0,0,.06,0l0,0h0a.33.33,0,0,0,.23-.1.4.4,0,0,0,.21-.07l0,0h0l.09,0s0,0,0,0,.11,0,.11,0h0l.06,0h0s0,0,0,0l-.05,0v0a.2.2,0,0,0-.15,0v0a.5.5,0,0,0-.17,0c0-.05-.17,0-.25,0s-.15,0-.2,0l-.09,0,0,0C49,11,49,11,49,11.06h0c0-.07-.2,0-.27,0l-.07,0a.93.93,0,0,0-.29,0c-.09,0-.09.08-.17.11s-.16,0-.19.1a.15.15,0,0,1,0,.07s0,0,0,.09l-.08,0-.09.13s0,0,0,0a1,1,0,0,0-.09.13,0,0,0,0,1,0,0,.54.54,0,0,1-.07.13.08.08,0,0,1,0,0l0,.11,0,0s0,0,0,0h0s0,0,.05,0,.06,0,.08,0,0-.06.07-.09l0,0a.15.15,0,0,0,.08-.1h0l0,0-.12.13v0s-.06.08-.08.13a.15.15,0,0,1,0,.08h0s0,0,0,0l0,0,0,0,.09-.07h0c.07,0,.08-.07.11-.1l0,0a.34.34,0,0,1,.14-.09l.09-.11c.06,0,.15-.11.17-.13h0s0,0,0,0a.18.18,0,0,0-.06.14.58.58,0,0,0-.13.15v0l-.1.1s0,.05,0,.08l-.09.12s0,0,0,.06,0,0,0,.07a.5.5,0,0,0,0,.13h0c.06,0,0,.06.1.05l0,0h0s.06,0,.09-.08l.09,0h0a.17.17,0,0,0,0,.21s.07.07.14.06H49s0-.08.08-.1.05,0,.07,0l0-.09.05,0a.19.19,0,0,0,.08-.1c.08,0,.11-.07.13-.11h.06s0,0,0,0a.17.17,0,0,0,0,.16c-.09.06-.1.11-.15.17l0,0s-.13.14-.12.17,0,0,0,0a.48.48,0,0,0-.08.16l0,0s0,.08,0,.12l0,0s0,0,0,0,0,0,.06,0h.06l0,0h0l0-.06s0,0,.05,0,0-.07,0-.11l0,0a.69.69,0,0,0,0-.13c.07,0,.1-.1.11-.14a.17.17,0,0,0,.13-.13h0v0a.24.24,0,0,0-.07.19.93.93,0,0,0-.18.16s0,0,0,0a.32.32,0,0,0-.11.13s0,0,0,.06-.06.08,0,.11,0,0,0,0,0,.1.06.12.09,0,.14,0h0s0-.05.07-.08l.07-.05,0-.07,0,0s0-.11.1-.13,0-.08.11-.1h0a1.34,1.34,0,0,1-.07.18v0c0,.05-.09.08-.13.12s0,0,0,0-.08.09-.09.12,0,0,0,0S50,14,50,14l0,0c0,.06,0,.08.12.09l.07,0,.08-.09.09-.07.06-.1.08,0a.18.18,0,0,0,.05-.07.17.17,0,0,0,.1,0h0a.61.61,0,0,1-.06.21v0l0,0a.38.38,0,0,0-.09.13l0,0c-.06.06,0,.13,0,.2h0a.1.1,0,0,0,.18,0h0l.05-.07s0,0,0,0a.61.61,0,0,1,.14-.2.18.18,0,0,0,.14-.08c0,.06,0,.11,0,.16a1.54,1.54,0,0,0-.05.17c0,.06-.12.1-.13.16s0,0,0,.07a.16.16,0,0,0,.11.24c.17-.05.21-.19.3-.3l0,0s.05,0,.07,0h0c0,.06,0,.12,0,.19a.58.58,0,0,0-.09.28s.07.12.12.12.12-.06.13-.08a.25.25,0,0,1,0-.07s.05-.05.07-.08,0,0,0-.05h0a.45.45,0,0,1,0,.16v0c0,.08-.11.18,0,.25h.06c.11-.07.12-.15.18-.23h0c.06.07-.11.31,0,.37h0l0,0a.61.61,0,0,1,.07-.1h0v0c0,.07-.1.27,0,.31s.05,0,.07,0l.08-.09Z"/><path class="cls-2" d="M49.78,25.89c.13.12,0,.46.31.52l.07,0c0-.05.08-.25.15-.21s0,.51.31.47c0,0,0-.11.05-.16h0l0,0c0,.07,0,.33.18.37H51c.06,0,.06-.08.1-.13h0c.07.08.07.2.19.27l.08,0,.32.26.12.06c.07.07.2.2.3.21l0,0a.42.42,0,0,1,0-.1c0-.15-.29-.38-.46-.5,0,0,0,0,.06,0s-.19-.11-.23-.16l.06,0h0a1,1,0,0,0-.22-.19l-.19,0v0c.09,0,.18,0,.2-.09a.66.66,0,0,0-.45-.16s0,0,0,0l0,0,.17,0s0,0,0-.06c0-.21-.46-.16-.62-.2l0,0c.09-.07.29,0,.34-.12-.15-.2-.44-.2-.68-.22a.68.68,0,0,1-.14,0v0l.1-.06a.58.58,0,0,0,.38-.11c0-.07-.12-.15-.21-.18a4.29,4.29,0,0,0-.64,0h0l0,0a.67.67,0,0,1,.18-.07c.14,0,.24,0,.38-.07a.14.14,0,0,0,0-.06.46.46,0,0,0-.25-.2,4.49,4.49,0,0,0-.9,0l0,0h0c.07-.12.47-.08.58-.09a1.45,1.45,0,0,0,.25-.1.27.27,0,0,0-.22-.26h-.12a3.15,3.15,0,0,0-.82-.05c-.06,0-.15,0-.21,0s0,0,0,0a1.21,1.21,0,0,1,.5-.18h.16a1.94,1.94,0,0,0,.36-.15c.08-.12-.13-.26-.29-.28a3.67,3.67,0,0,0-.66.05l0,0-.28,0a2.22,2.22,0,0,1-.43,0,2.28,2.28,0,0,1,.23-.22c.2-.06.48-.05.68-.1s.14-.09.22-.13,0-.09,0-.13a1.9,1.9,0,0,0-.28-.17,1.51,1.51,0,0,0-.37,0v0a2.3,2.3,0,0,0-.37,0l-.13.05-.09,0a.7.7,0,0,0-.12,0h-.21a1,1,0,0,1-.28.07,0,0,0,0,1,0,0c.11-.18.4-.21.57-.26a1.78,1.78,0,0,0,.58-.26c0-.09,0-.11-.13-.18s0,0,0-.05h-.15s0,0,0,0a.59.59,0,0,0-.23,0,2.09,2.09,0,0,0-.25,0c-.13,0-.28.08-.4.1s-.21,0-.27,0a1.62,1.62,0,0,0-.22,0c-.11,0-.29.09-.39.05.09-.05.16-.21.26-.25l.26-.05.12-.06.25,0c.07,0,.08-.06.14-.08a2.69,2.69,0,0,0,.45-.16h0l0-.05a.17.17,0,0,0,.08-.06.21.21,0,0,1,0-.12.28.28,0,0,0-.14-.06s0,0,0-.05a1.94,1.94,0,0,0-.34,0l0,0h-.19l-.22.06a0,0,0,0,0,0,0,1,1,0,0,0-.58.13c-.22-.09-.7.07-1,0a1.47,1.47,0,0,0,.35-.21V21a.82.82,0,0,0,.3-.07l0,0,.35-.06.09,0a1.94,1.94,0,0,0,.33-.07l.18-.1v-.06c0-.05.15-.08.16-.14s-.19-.16-.28-.14-.28-.06-.39,0,0,0,0,0a1,1,0,0,0-.51.06l0,0c-.19,0-.32.06-.5.15a.46.46,0,0,1-.07-.07c-.14,0-.39.07-.49,0s0-.09,0-.14a.81.81,0,0,0,.31-.1l.07-.06.23-.05.16,0a.46.46,0,0,1,.07-.07c.07,0,.21,0,.28-.09s.34-.12.27-.24l.1-.06s0-.06,0-.09-.08-.05-.12-.07a.14.14,0,0,1,0-.06H46v0a.82.82,0,0,0-.41,0l0,0-.39.07L45,19.4c-.08-.08-.42.11-.55.14H44.4a.23.23,0,0,0,.11-.14,1.09,1.09,0,0,0,.43-.14l.07-.09a1.73,1.73,0,0,0,.32-.14V19a.57.57,0,0,0,.28-.12s0,0,0,0a.5.5,0,0,0,.14-.1l-.07-.05a.16.16,0,0,0,0-.07,1.41,1.41,0,0,0-.31-.14l-.17,0s0,0-.11,0-.25.09-.34.06l0,0,0,0c-.15-.07-.39.11-.55.17,0,0,0,0-.06,0a1.51,1.51,0,0,0-.47.21.43.43,0,0,0-.22,0c.08-.05.23-.1.18-.16l.21-.06a1.38,1.38,0,0,0,.22-.1l.35-.07s0-.06.09-.07.21,0,.3-.08,0-.06.07-.08.16,0,.23-.1l-.06-.05.1-.08c0-.12-.18-.18-.29-.19s0,0,0,0a.59.59,0,0,0-.41,0c-.07-.09-.4,0-.52.05a.08.08,0,0,0,0,0c-.18,0-.34.09-.53.15,0,0,0,0,0,0a1,1,0,0,0-.41.1c-.08,0-.11.08-.17.1a.53.53,0,0,0-.14-.06h0c.05,0,.12-.05.12-.09l0,0h0a.79.79,0,0,0,.46-.24.81.81,0,0,0,.4-.16l0-.06.11,0,.17-.09s0,0,0-.06.21-.07.21-.13h0l-.06,0a.39.39,0,0,0,.1-.08h0c-.07,0,0,0,0-.07L44,17a.08.08,0,0,0,0,0,.44.44,0,0,0-.3,0,.11.11,0,0,0,0-.05,1,1,0,0,0-.33.08c-.13-.1-.37,0-.51.1-.09-.06-.3,0-.41.08l-.17.11-.11,0c-.25.11-.21.15-.36.29h0c-.11-.15-.42,0-.56.07s-.08.07-.12.07a2.08,2.08,0,0,0-.61,0c-.19,0-.17.17-.31.25s-.32.11-.37.23v.13c0,.08-.07.1,0,.19l-.15.11-.15.27s0,.07,0,.11a.78.78,0,0,0-.14.27.14.14,0,0,1,0,.07c0,.09-.09.18-.11.27l0,.08a2.25,2.25,0,0,1-.05.22l.08.07s0,.08.08.1l0,0a.29.29,0,0,0,.13.08s.12,0,.15-.08,0-.12.12-.18a.15.15,0,0,0,.08,0,.34.34,0,0,0,.16-.19l.07,0,.07.07s-.22.27-.22.28a.24.24,0,0,0,0,.08,1.74,1.74,0,0,1-.14.27.35.35,0,0,1,.1.16.11.11,0,0,0,.08,0,.35.35,0,0,0,.12.08l.07,0,.08,0,.17-.15s0,0,.06,0,.14-.15.19-.22.07,0,.1-.06a.78.78,0,0,1,.26-.21l.17-.22c.13,0,.29-.26.32-.3h0a.05.05,0,0,1,0,0,.33.33,0,0,0-.09.29,1.07,1.07,0,0,0-.23.32v.08c-.06.09-.14.14-.18.22s0,.1,0,.16a2.63,2.63,0,0,1-.16.26c0,.05,0,.06,0,.1s-.06.12-.05.16a1.25,1.25,0,0,0,.1.27s0,0,.07,0,0,.12.22.09l.08-.06s0,0,.07,0,.1-.12.16-.17a1.83,1.83,0,0,0,.16-.13l0,0a.4.4,0,0,0,.06.44c.09,0,.17.12.31.1l.14,0c.08-.06.07-.15.13-.21s.1,0,.14-.09a1.34,1.34,0,0,1,.07-.18l.08-.05a.59.59,0,0,0,.16-.21c.16,0,.2-.16.24-.25s.07,0,.11,0,0,0,0,.05a.35.35,0,0,0-.06.35.89.89,0,0,0-.27.35l0,0c-.07.06-.24.31-.22.36s0,0,0,.05a.65.65,0,0,0-.11.33.12.12,0,0,0,.05.05c0,.08-.08.17,0,.25l.08.06s0,.06.06.09.09,0,.14.05l.12,0,.05-.06h.09l.08-.12s.06,0,.09,0l.06-.22.07-.05a.7.7,0,0,0,.08-.27c.14,0,.18-.22.2-.3a.38.38,0,0,0,.24-.29h.08a0,0,0,0,1,0,0c-.06.08-.14.32-.09.4a1.47,1.47,0,0,0-.32.35l0,.09a.61.61,0,0,0-.2.27s0,.08,0,.12-.1.17-.08.23.05,0,.06.08,0,.2.14.24S44,23,44.14,23h.08c.07-.07.07-.12.12-.18s.09-.06.13-.11l.06-.14.07-.05c.06-.08.07-.23.17-.28s.09-.17.21-.21L45,22l0,0a2.48,2.48,0,0,1-.1.39v.06c0,.09-.16.16-.23.26s0,0,0,.07-.14.19-.16.25.06.07.06.11-.06.1,0,.16l.07.06c.07.11.08.17.26.17a.21.21,0,0,1,.15-.07,2.14,2.14,0,0,0,.13-.19c.06-.07.13-.1.17-.16s.07-.15.12-.2l.15-.11s.05-.09.08-.14a.48.48,0,0,0,.2,0l0,0c0,.1,0,.32-.07.44s0,0,0,.06,0,0-.06,0a2.79,2.79,0,0,0-.16.28l0,.06a.48.48,0,0,0,0,.42s0,0,.08,0a.21.21,0,0,0,.38,0h.07l.08-.15s.06,0,.08-.08a1,1,0,0,1,.23-.44.38.38,0,0,0,.27-.16c.08.1,0,.22,0,.33s0,.23-.06.34-.21.22-.23.34,0,.09,0,.14a.33.33,0,0,0,.27.48c.34-.13.39-.41.55-.65a.36.36,0,0,0,0-.09s.1,0,.15-.08l0,0,0,.37a1,1,0,0,0-.12.58c0,.06.16.25.26.25s.24-.15.26-.18a.77.77,0,0,1,0-.15,1.09,1.09,0,0,1,.13-.17s0-.08.06-.1l0,0,0,0a.92.92,0,0,1,0,.33.25.25,0,0,0,0,.07c0,.16-.17.37.14.49h.12c.22-.17.22-.33.33-.5h0c.14.13-.15.64.11.74a.27.27,0,0,0,.09,0,.15.15,0,0,1,.08,0,1.71,1.71,0,0,1,.12-.23h0l0,0c.06.13-.15.55.16.63a.64.64,0,0,0,.14-.08l.14-.19Z"/><path class="cls-2" d="M46.23,35.5c.18.16,0,.61.4.69l.09,0c0-.06.11-.32.2-.28s0,.68.4.63c.06-.07,0-.14.07-.21h0l0,0c0,.1,0,.44.23.5h.08c.08,0,.08-.1.13-.17h0c.09.11.08.27.24.36l.11,0,.41.35.15.08a.91.91,0,0,0,.39.29l0,0,.06-.14c0-.19-.37-.5-.59-.66.05,0,.05,0,.07,0s-.23-.15-.29-.22l.08-.05h0c-.09-.09-.16-.21-.28-.26l-.26-.06h0c.12,0,.23,0,.26-.13a.88.88,0,0,0-.58-.21s0,0,0,0l0,0a1.46,1.46,0,0,0,.22,0,.31.31,0,0,0,0-.08c-.05-.28-.6-.21-.81-.27l0,0c.13-.09.39-.05.46-.15-.2-.28-.58-.27-.9-.31-.06,0-.11,0-.17,0v0l.13-.09a.72.72,0,0,0,.51-.13c0-.1-.15-.2-.27-.24a7.34,7.34,0,0,0-.85,0h0l0,0a.93.93,0,0,1,.25-.1,1,1,0,0,0,.5-.08.31.31,0,0,0,0-.08.62.62,0,0,0-.32-.27,6.71,6.71,0,0,0-1.19,0l0,0h0c.1-.16.61-.1.77-.12a3.21,3.21,0,0,0,.33-.12.33.33,0,0,0-.29-.35l-.15,0A4.78,4.78,0,0,0,45,33.05a1.38,1.38,0,0,1-.29,0s0,0,0,0a1.9,1.9,0,0,1,.66-.22h.21a3,3,0,0,0,.48-.19c.11-.17-.17-.35-.37-.38a6.58,6.58,0,0,0-.88,0l-.06,0-.36,0a2.36,2.36,0,0,1-.58,0A3.1,3.1,0,0,1,44.1,32c.27-.08.63-.07.9-.13.12,0,.19-.12.29-.17s0-.12.06-.17a2.92,2.92,0,0,0-.36-.23,1.55,1.55,0,0,0-.48,0v0a2.74,2.74,0,0,0-.49,0l-.17.05h-.11a.9.9,0,0,0-.16,0h-.28a1.23,1.23,0,0,1-.37.08h0c.15-.23.53-.27.75-.33a2.14,2.14,0,0,0,.77-.34c0-.12,0-.14-.16-.24,0,0,0,0,0-.05a.42.42,0,0,0-.19,0s0,0,0,0a.75.75,0,0,0-.3,0c-.12,0-.21,0-.32,0s-.37.11-.54.13-.28,0-.35,0a1.42,1.42,0,0,0-.29,0c-.14,0-.38.11-.51.05.11-.07.21-.27.35-.32l.34-.07.16-.08.33,0c.09,0,.1-.07.19-.11a3.66,3.66,0,0,0,.59-.19h0l-.07-.06c.05,0,.09,0,.11-.08a.39.39,0,0,1-.06-.17.48.48,0,0,0-.18-.08s0,0,0-.06a3.52,3.52,0,0,0-.45,0l0-.05h-.26l-.29.07a0,0,0,0,0,0,0,1.13,1.13,0,0,0-.76.16c-.29-.13-.93.08-1.27,0a2.08,2.08,0,0,0,.47-.27.49.49,0,0,1,0-.12,1.93,1.93,0,0,0,.39-.08l.05-.05.46-.07.12-.06a1.7,1.7,0,0,0,.44-.08l.24-.14v-.07c0-.06.2-.1.21-.17s-.25-.22-.36-.2c-.07-.18-.37-.08-.52-.06,0,0,0,0,0-.05a1.21,1.21,0,0,0-.68.08l0-.05c-.24-.07-.42.07-.66.18-.06,0-.05-.06-.09-.09s-.51.09-.65.05c.07-.07,0-.12.07-.19a1.15,1.15,0,0,0,.42-.13l.09-.08c.1,0,.2,0,.3-.06l.22-.05.08-.09c.11-.05.29-.05.38-.12s.45-.15.36-.31l.14-.08c0-.05,0-.07,0-.12s-.11-.07-.16-.09l0-.07h-.32a.06.06,0,0,1,0,0,1.12,1.12,0,0,0-.54.05s0,0,0,0l-.51.08-.21.09c-.1-.11-.55.14-.72.17l-.09,0a.31.31,0,0,0,.16-.17,1.69,1.69,0,0,0,.56-.19l.1-.12a2.06,2.06,0,0,0,.42-.17v-.08a.78.78,0,0,0,.38-.16l0,0a.7.7,0,0,0,.18-.14L41,25.91l.05-.09a3,3,0,0,0-.4-.2l-.22,0c-.06,0-.08,0-.15,0a1.3,1.3,0,0,1-.45.08l0,0,0,0c-.19-.1-.5.14-.72.21,0,0,0,0-.07,0a2.09,2.09,0,0,0-.63.28.82.82,0,0,0-.29-.07c.1-.05.3-.12.24-.2l.28-.07a2.38,2.38,0,0,0,.29-.13l.46-.09c.06,0,.08-.07.12-.1s.28-.05.4-.1.05-.07.09-.09.21,0,.3-.13l-.07-.07a.53.53,0,0,0,.14-.11c0-.15-.24-.23-.39-.24v0a.81.81,0,0,0-.55,0c-.08-.12-.52,0-.69.07v-.05c-.24-.05-.45.1-.71.19,0,0,0,0,0-.05a1.66,1.66,0,0,0-.55.12c-.09,0-.14.11-.22.13l-.18-.07h0c.06,0,.15-.07.15-.12l0,0,0,0a.92.92,0,0,0,.61-.3,1,1,0,0,0,.53-.2.41.41,0,0,0,.05-.09l.14,0a1.23,1.23,0,0,0,.23-.11s0,0,0-.08S39,24,39,24h0l-.07,0,.14-.1v0c-.09,0,0-.05-.06-.1l-.14-.06s0,0,0-.06a.65.65,0,0,0-.39,0,.14.14,0,0,0,0-.06,1.14,1.14,0,0,0-.43.09c-.16-.13-.49,0-.68.13-.12-.08-.39,0-.54.09l-.22.15-.15,0c-.33.14-.28.2-.47.38h0c-.14-.2-.54,0-.73.08s-.12.09-.17.09a3.07,3.07,0,0,0-.8,0c-.24.06-.22.23-.41.33s-.42.14-.49.3a1,1,0,0,0,0,.17c0,.11-.08.14,0,.25l-.2.14-.2.35c0,.05,0,.1,0,.15s-.18.23-.2.36l0,.08c0,.12-.12.25-.15.37a1,1,0,0,1,0,.1,2.86,2.86,0,0,0-.07.28.47.47,0,0,0,.1.1c0,.05,0,.1.09.13l0,0a.57.57,0,0,0,.16.11c.06,0,.16,0,.21-.11s0-.15.15-.23l.12.05a.39.39,0,0,0,.2-.25l.1,0,.09.11-.3.36,0,.09a2.47,2.47,0,0,1-.19.36.57.57,0,0,1,.13.22.17.17,0,0,0,.1,0,.47.47,0,0,0,.16.1l.09-.05.1,0,.23-.19a.08.08,0,0,0,.08,0c.17-.07.18-.2.26-.29s.09,0,.13-.07a.81.81,0,0,1,.35-.27l.22-.3c.17,0,.39-.33.43-.39h0s0,0,0,.06a.43.43,0,0,0-.12.37,1.5,1.5,0,0,0-.32.43.41.41,0,0,0,0,.11,3.23,3.23,0,0,0-.25.29c0,.09,0,.12,0,.2s-.19.27-.21.35,0,.07,0,.13-.07.15-.07.21a1.48,1.48,0,0,0,.13.35s.05,0,.08,0,0,.17.29.13l.12-.08a.08.08,0,0,0,.08,0c.11-.05.14-.15.21-.22l.22-.16,0,0a.52.52,0,0,0,.06.58c.13,0,.22.16.41.14a.65.65,0,0,1,.19,0c.1-.08.1-.2.17-.27s.13-.06.18-.12a2.44,2.44,0,0,0,.1-.24l.11-.05a.76.76,0,0,0,.21-.29c.22,0,.27-.2.33-.32a.19.19,0,0,0,.14,0s0,0,0,.06-.17.32-.09.46c-.24.17-.25.31-.37.46,0,0,.05,0,.05.06a1.1,1.1,0,0,0-.29.47s0,0,0,.06a1.18,1.18,0,0,0-.16.44l.06.07c0,.1-.1.21,0,.32l.11.08c0,.05,0,.09.08.12s.11.06.17.07l.17,0,.06-.09h.12l.11-.15s.08,0,.12-.07l.09-.29.09-.06a1,1,0,0,0,.11-.36c.18-.05.24-.29.27-.39a.45.45,0,0,0,.32-.37h.11l0,0a.76.76,0,0,0-.14.52,1.87,1.87,0,0,0-.43.47.37.37,0,0,1,0,.11,1.18,1.18,0,0,0-.27.35s0,.11,0,.16-.14.23-.12.3.07.07.08.11,0,.26.18.32.25-.09.39-.11H39c.1-.09.1-.16.16-.23s.12-.09.17-.15l.09-.18.09-.07c.08-.11.1-.29.23-.36s.12-.22.29-.28,0,0,.06,0l.07,0a3.63,3.63,0,0,1-.15.51V31c-.07.13-.22.22-.31.34s0,.05,0,.1-.18.24-.21.33.08.09.07.14-.08.13-.07.21l.09.09c.09.13.11.21.34.22a.36.36,0,0,1,.2-.09l.18-.25c.07-.09.17-.13.23-.21s.09-.2.15-.27a1.37,1.37,0,0,0,.2-.13l.12-.18a.62.62,0,0,0,.26-.06s0,0,0,0-.06.43-.1.58,0,.05,0,.07l-.08.08a1.74,1.74,0,0,0-.22.36.2.2,0,0,1,.06.09c-.14.17-.07.36,0,.54L41,33a.27.27,0,0,0,.49.05h.1a1.28,1.28,0,0,1,.11-.2s.07,0,.1-.1a1.38,1.38,0,0,1,.31-.58.5.5,0,0,0,.37-.21c.11.14,0,.29-.06.43a3.73,3.73,0,0,1-.09.46c0,.15-.27.29-.31.44s.07.12,0,.18a.44.44,0,0,0,.35.64c.45-.17.52-.54.74-.85l.06-.11c0-.05.13-.06.19-.1l0,0c0,.16,0,.32-.05.49a1.41,1.41,0,0,0-.16.76.54.54,0,0,0,.33.33c.1,0,.32-.19.34-.24s0-.13,0-.19a1.24,1.24,0,0,1,.17-.23s0-.1.09-.13,0,0,0,0l.05,0a1.26,1.26,0,0,1,0,.43s0,.06,0,.09c0,.21-.22.48.18.66l.16,0c.28-.22.29-.43.45-.66h0c.18.18-.22.85.12,1h.12a.13.13,0,0,1,.1-.06,3.18,3.18,0,0,1,.17-.3h0a.08.08,0,0,1,0,0c.08.18-.21.73.2.83.06,0,.13,0,.18-.1s.13-.16.19-.25Z"/><path class="cls-2" d="M45,50.45c.27.23,0,1,.61,1.08l.14-.08c0-.09.19-.56.34-.5.06.22,0,1.15.61,1,.1-.13.06-.25.12-.38h.06l0,0c0,.16.06.74.35.8h.13c.14-.11.14-.19.22-.32h0c.15.16.12.44.38.55a.61.61,0,0,0,.17-.07l.66.49.23.12c.15.14.41.39.62.4l.06-.05a1.86,1.86,0,0,1,.1-.25c0-.32-.58-.77-.93-1,.07,0,.09,0,.12-.1s-.37-.19-.47-.31l.14-.09,0,0c-.14-.13-.26-.31-.45-.37l-.41,0,0,0c.19-.09.37-.12.42-.27a1.24,1.24,0,0,0-.92-.24s0,0,0-.05l.06,0c.13,0,.23,0,.35-.1s0-.09,0-.14c-.09-.45-1-.23-1.3-.29a.2.2,0,0,0,0-.08c.21-.17.61-.16.73-.33-.31-.43-.91-.35-1.42-.35-.1,0-.18,0-.28,0v-.06l.2-.17a1.21,1.21,0,0,0,.81-.33c0-.16-.23-.3-.42-.35a9.45,9.45,0,0,0-1.35.09l0,0,.06,0a2.05,2.05,0,0,1,.39-.2c.29-.08.49,0,.81-.24,0-.05,0-.1,0-.15a.91.91,0,0,0-.51-.38,9.81,9.81,0,0,0-1.91.19l0,0,0,0c.16-.29,1-.29,1.23-.35a3.45,3.45,0,0,0,.54-.28.5.5,0,0,0-.46-.53,1.92,1.92,0,0,1-.24,0,7.12,7.12,0,0,0-1.71.09c-.15,0-.33.08-.46,0s0,0,0-.08A3.13,3.13,0,0,1,43.64,46L44,46a6.31,6.31,0,0,0,.77-.42c.18-.29-.26-.55-.59-.55a7.78,7.78,0,0,0-1.4.25l-.1,0a4.62,4.62,0,0,0-.58.12,4.25,4.25,0,0,1-.92.18,6.72,6.72,0,0,1,.5-.53c.43-.18,1-.24,1.44-.39.2-.07.31-.24.47-.34a.93.93,0,0,1,.09-.3,3.66,3.66,0,0,0-.56-.31,2.33,2.33,0,0,0-.78.06v-.06a3.75,3.75,0,0,0-.79.14l-.27.12h-.19a1.17,1.17,0,0,0-.24.09l-.45.06c-.17,0-.44.22-.59.2l0,0c.25-.42.86-.57,1.22-.7a4.83,4.83,0,0,0,1.24-.72c0-.21,0-.25-.26-.38,0-.05,0-.05,0-.09a.61.61,0,0,0-.3,0s0,0,0-.06a1.33,1.33,0,0,0-.48.05c-.19,0-.34,0-.51,0s-.6.25-.87.33a3.51,3.51,0,0,1-.56,0,3.73,3.73,0,0,0-.46.09c-.24,0-.62.27-.83.19.19-.14.36-.49.57-.61l.55-.18.27-.16.52-.13c.14-.05.17-.14.3-.21a7.38,7.38,0,0,0,.95-.45h0l-.1-.1a.49.49,0,0,0,.17-.14.58.58,0,0,1-.09-.28.65.65,0,0,0-.29-.09c0-.06.06-.06,0-.11a3.35,3.35,0,0,0-.71,0L40,40.49l-.4,0-.46.19a.64.64,0,0,0,0-.07,2.11,2.11,0,0,0-1.23.43c-.46-.16-1.48.31-2,.22a3.71,3.71,0,0,0,.74-.55,1.36,1.36,0,0,0,0-.2,2.26,2.26,0,0,0,.63-.22l.08-.08.75-.22.18-.12A3.3,3.3,0,0,0,39,39.7l.38-.28V39.3c.07-.12.32-.21.35-.34s-.4-.31-.58-.26c-.1-.28-.58-.06-.82,0,0,0,0,0,0-.08a2,2,0,0,0-1.08.27l-.07-.08c-.39-.06-.67.2-1.06.44-.09-.06-.08-.09-.15-.14-.29,0-.81.26-1,.21.12-.12,0-.19.12-.32a2.28,2.28,0,0,0,.68-.3l.13-.15.49-.16.35-.14.14-.17c.16-.11.45-.14.6-.27s.73-.34.58-.6l.22-.16c-.06-.08,0-.12,0-.19s-.17-.09-.25-.12,0-.09,0-.13h0l-.5.07v-.06a1.76,1.76,0,0,0-.87.19s0,0-.06-.06l-.82.24-.34.18c-.17-.16-.89.35-1.16.45l-.14,0a.58.58,0,0,0,.26-.33,3,3,0,0,0,.91-.42c0-.07.1-.15.16-.22a4.28,4.28,0,0,0,.67-.38v-.12a1.53,1.53,0,0,0,.61-.35l0-.07a1.35,1.35,0,0,0,.3-.27l-.13-.09a.8.8,0,0,0,.08-.16,3.3,3.3,0,0,0-.63-.25L36,35c-.09,0-.12-.07-.24,0s-.53.25-.71.21c0,0,0,0,0,.06l-.06.05c-.3-.13-.81.34-1.16.51,0-.06,0,0-.11,0a3.65,3.65,0,0,0-1,.59c-.23-.09-.24,0-.46,0,.17-.12.49-.27.39-.39l.45-.17c.18-.08.27-.18.47-.28l.73-.25c.1,0,.13-.14.21-.18s.44-.14.63-.25.09-.14.15-.18.34-.11.49-.28l-.12-.09a1.63,1.63,0,0,0,.23-.22c0-.25-.38-.35-.61-.34a.17.17,0,0,0,0-.07,1.32,1.32,0,0,0-.88.18c-.12-.18-.84.14-1.09.25a.28.28,0,0,1,0-.09c-.38,0-.73.27-1.14.46a.15.15,0,0,0-.05-.08,3.5,3.5,0,0,0-.88.32c-.15.09-.23.21-.36.27a1.61,1.61,0,0,0-.29-.09l0,0c.11-.05.24-.13.26-.23l-.08,0,0,0a1.84,1.84,0,0,0,1-.64,2,2,0,0,0,.86-.44,1.19,1.19,0,0,1,.08-.16l.22-.09c.15-.07.23-.15.37-.23s0-.08,0-.14.43-.21.46-.33l0,0-.11-.06a2.09,2.09,0,0,1,.22-.2v0c-.15,0-.06-.08-.1-.15l-.22-.09s0-.06,0-.09A1,1,0,0,0,33,32a.43.43,0,0,0,0-.11,2,2,0,0,0-.7.24c-.26-.18-.78.09-1.09.37-.18-.12-.63.11-.86.25l-.36.3a.85.85,0,0,0-.23,0c-.55.3-.46.38-.78.73h0c-.21-.31-.87.1-1.17.28-.08.05-.19.17-.27.19a4.49,4.49,0,0,0-1.28.18c-.39.15-.36.42-.68.63s-.67.32-.78.6a2.83,2.83,0,0,0,0,.29c-.07.2-.14.25,0,.42l-.33.28c-.12.21-.23.42-.34.64s.06.15,0,.24a3,3,0,0,0-.33.64.58.58,0,0,1,.05.14c0,.2-.2.43-.25.63l.06.17c0,.16-.08.33-.13.49l.17.15c0,.08,0,.17.14.19l.07,0a.72.72,0,0,0,.27.15c.1-.07.25-.09.33-.22s-.05-.26.25-.42a.51.51,0,0,0,.18.07.83.83,0,0,0,.34-.47l.16-.09.15.16s-.48.64-.5.68,0,.1,0,.15c-.06.21-.23.43-.3.64.14.13.13.21.19.34a.27.27,0,0,0,.17,0,.57.57,0,0,0,.25.14l.14-.11.16.05.37-.36a.15.15,0,0,0,.13,0c.28-.15.3-.38.42-.54s.16-.06.22-.15a1.66,1.66,0,0,1,.56-.52l.36-.54c.28,0,.63-.64.7-.75h0a.1.1,0,0,1,.06.1.8.8,0,0,0-.2.65,3,3,0,0,0-.52.78v.18c-.13.22-.31.35-.4.54s0,.21,0,.35-.31.49-.36.62,0,.11.07.22-.12.25-.11.36a1.85,1.85,0,0,0,.19.56c.07,0,.09,0,.13,0,.26,0,.05.27.46.16l.19-.17c.06,0,.06,0,.13,0s.23-.28.35-.4.26-.22.35-.32l0,0a.9.9,0,0,0,.09,1c.2,0,.35.22.64.15a1.58,1.58,0,0,1,.31-.1c.16-.16.16-.36.28-.49s.22-.12.3-.24.11-.28.16-.41l.18-.12a2,2,0,0,0,.35-.52c.34-.08.44-.4.53-.61.08,0,.13,0,.22,0s0,.06,0,.1a.93.93,0,0,0-.15.8,2.79,2.79,0,0,0-.6.83.16.16,0,0,1,.08.09,2.32,2.32,0,0,0-.48.85s0,0,.06.1a2,2,0,0,0-.26.77l.09.1c0,.17-.17.38-.05.54l.17.13c.05.07,0,.13.12.18s.17.07.27.07l.27-.06.11-.15.19,0,.18-.29c.06-.06.13,0,.19-.13l.15-.51.15-.12A2.17,2.17,0,0,0,32.6,43c.29-.12.39-.53.44-.71a.92.92,0,0,0,.53-.7l.16,0h0l0,.06c-.14.19-.32.75-.23.9a3.88,3.88,0,0,0-.7.87c0,.05,0,.11.07.17a2.2,2.2,0,0,0-.44.65c0,.09.07.17,0,.27s-.22.4-.19.53.11.1.12.17.06.43.28.5.4-.2.62-.28h.17a2.54,2.54,0,0,0,.26-.42c.08-.11.2-.16.28-.28a2.92,2.92,0,0,1,.14-.31l.15-.14c.13-.2.16-.52.37-.66s.2-.4.47-.52a.34.34,0,0,0,.11,0l.1,0a7.81,7.81,0,0,1-.25.88v.13c-.12.22-.35.4-.51.63s0,.08,0,.15-.31.46-.34.61.11.14.1.22-.14.24-.11.36l.14.14c.14.21.17.33.53.3a.55.55,0,0,1,.33-.18c.09-.16.19-.31.29-.46s.27-.25.37-.4.16-.36.25-.48l.33-.26c.06-.11.12-.22.19-.33a1.25,1.25,0,0,0,.42-.15l0,0a2.58,2.58,0,0,1-.19,1l0,.13-.13.14a3.58,3.58,0,0,0-.36.66.33.33,0,0,1,.1.12,1.06,1.06,0,0,0-.07.93c.07,0,.09,0,.17,0,0,.33.58.35.78,0l.15,0,.18-.36c0-.09.13-.1.17-.19a2.57,2.57,0,0,1,.52-1,1,1,0,0,0,.59-.43c.16.21,0,.49-.1.74s-.07.53-.15.78-.46.54-.51.81c0,.1.09.19.05.3-.14.41-.12.94.55,1,.71-.37.84-1,1.2-1.58l.09-.2c.08-.08.21-.11.31-.2l0,0-.09.84A2.6,2.6,0,0,0,40.23,49c0,.13.32.5.53.48s.52-.38.55-.47l.06-.32a3.07,3.07,0,0,1,.28-.42c.05-.07,0-.18.14-.24l.08,0,.08,0a2.24,2.24,0,0,1-.08.72l0,.15c-.07.37-.37.86.27,1.07l.26-.06c.45-.42.47-.78.73-1.19h0c.29.27-.37,1.48.17,1.63a1.15,1.15,0,0,0,.19,0,.23.23,0,0,1,.17-.11,5.72,5.72,0,0,1,.28-.55h0l.07.06c.12.29-.35,1.28.29,1.36.1-.08.21-.1.29-.2l.32-.45Z"/><path class="cls-2" d="M38.68,59.92l0,.22c-.31.37-.52.34-.8.47H32.59c0-.3,0-.62,0-.93l-.05,0c-.1.14-.25.21-.33.34s0,.2-.08.3-.09.21-.13.31H30.38a3.54,3.54,0,0,0,.35-.78c.08-.37.05-.74.11-1.12s.26-.78.07-1a1.31,1.31,0,0,1-.62.72,5.11,5.11,0,0,0-.5,1.54c0,.13-.13.16-.16.29s-.09.26-.13.39H28.17a1.54,1.54,0,0,1,.1-.9.27.27,0,0,0-.12-.16,5.84,5.84,0,0,1,.36-1l.13-.23a.94.94,0,0,0,0-.16,4.75,4.75,0,0,0,.14-1.41l0-.05a1.55,1.55,0,0,1-.45.29l-.19.49c-.11.15-.23.29-.34.43s-.14.52-.24.73-.25.37-.38.62-.19.46-.29.7c-.16.08-.18.1-.34.32-.4.12-.43,0-.59-.31l-.17-.16c0-.16.08-.35.1-.53s-.14-.15-.13-.27.34-.75.34-.92-.09-.08,0-.21a10.24,10.24,0,0,0,.51-1,1,1,0,0,0,0-.17,12.26,12.26,0,0,0,.22-1.28l-.11,0a.24.24,0,0,1-.12.09c-.28.23-.17.5-.48.82a3.64,3.64,0,0,0-.35,1l-.16.22c0,.16-.09.31-.13.46s-.21.29-.29.45a3.84,3.84,0,0,1-.26.63l-.17,0c-.25.15-.33.57-.66.51s-.32-.48-.34-.64-.12-.11-.14-.21.12-.56.17-.76-.08-.24-.06-.37a3.51,3.51,0,0,1,.44-1L24,56.46a6.29,6.29,0,0,1,.71-1.35,2.5,2.5,0,0,1,.18-1.3s0,0,0-.07h0l-.17.07a1.54,1.54,0,0,1-.53,1.07c-.05.26-.12.85-.44,1.08a4.14,4.14,0,0,1-.15.89l-.16.21c0,.24-.09.49-.13.73s-.14.12-.2.23-.12.29-.17.43l-.21.1a1.63,1.63,0,0,0-.11.23l-.29.14c-.11,0-.19-.1-.3,0s-.08-.15-.14-.24l-.2-.13c-.13-.2.06-.54,0-.76l-.11-.12a3.89,3.89,0,0,1,.24-1.13c0-.06-.05-.08-.07-.11a3.88,3.88,0,0,1,.47-1.28.22.22,0,0,0-.1-.12,4.26,4.26,0,0,1,.61-1.27,1.61,1.61,0,0,1,.11-1.14c0-.06,0-.08-.05-.13s-.15.08-.25,0c-.08.3-.16.76-.54.94a2.9,2.9,0,0,1-.34.79l-.19.2-.15.61c-.08.19-.24.28-.31.39s-.11.5-.27.75a1.63,1.63,0,0,0-.33.19c-.31.17-.49-.13-.71-.07A1.43,1.43,0,0,1,19.5,55a.12.12,0,0,1-.05-.05c-.1.16-.27.35-.36.52a3.09,3.09,0,0,1-.36.63c-.08.06-.07.06-.14,0s-.13.17-.2.26c-.44.24-.22-.12-.5-.12-.05,0-.07.05-.15,0a3.49,3.49,0,0,1-.25-.73c0-.16.13-.4.11-.54s-.13-.13-.09-.29.34-.82.35-.93-.1-.23,0-.48.27-.51.4-.83a1.79,1.79,0,0,0,0-.24A5.32,5.32,0,0,1,18.75,51a1.41,1.41,0,0,1,.18-1c0-.05,0-.11-.08-.12h0c-.06.16-.41,1.17-.72,1.18-.12.27-.23.55-.35.83a2.58,2.58,0,0,0-.58.84c-.06.13-.2.18-.23.25-.12.25-.13.57-.42.83-.07,0-.07,0-.14,0-.12.19-.25.38-.37.58l-.19,0a1.39,1.39,0,0,1-.15.19.54.54,0,0,1-.27-.14.46.46,0,0,1-.19.09.94.94,0,0,0-.23-.44c.07-.3.25-.65.29-1,0-.06,0-.13,0-.2s.46-1,.5-1l-.18-.19-.16.15a1.51,1.51,0,0,1-.34.72.23.23,0,0,1-.2-.06c-.32.29-.15.4-.25.64s-.24.25-.34.38-.21-.1-.3-.15a.23.23,0,0,0-.07.07c-.17,0-.13-.14-.18-.24l-.18-.17c0-.24.07-.47.1-.71,0-.08-.05-.15-.07-.22,0-.29.21-.64.23-.93L13.73,51a4.62,4.62,0,0,1,.32-.95c0-.14-.06-.21,0-.33l.32-.95.34-.45c-.16-.22-.09-.31,0-.59v-.41c.11-.41.59-.73.82-1s.28-.73.7-1a4.51,4.51,0,0,1,1.38-.52c.08,0,.19-.22.28-.31.31-.31,1-1,1.26-.64h0c.33-.55.23-.64.8-1.17a.75.75,0,0,1,.26,0l.36-.49c.25-.24.72-.66.93-.54.32-.44.87-.92,1.16-.73a2.68,2.68,0,0,1,.75-.48l0,.15a1,1,0,0,1,.67-.29s0,.09,0,.14l.24.07c0,.09-.05.16.12.19,0,0,0,0,0,0s-.15.22-.22.33l.12.06,0,0a1.22,1.22,0,0,1-.46.56.42.42,0,0,1,0,.19c-.15.13-.23.27-.39.4l-.24.17-.07.23a2.48,2.48,0,0,1-.91.8,2.4,2.4,0,0,1-1,1.08.09.09,0,0,1,0,.05l.09,0a.67.67,0,0,1-.26.37l0,0a1.37,1.37,0,0,1,.32.06c.14-.11.21-.29.37-.44a3.36,3.36,0,0,1,.94-.63s.05,0,.06.09c.44-.34.8-.82,1.21-.86a.49.49,0,0,0,0,.12c.27-.2,1-.81,1.18-.58a1.38,1.38,0,0,1,.94-.43.34.34,0,0,1,0,.1c.25-.06.63,0,.69.35-.08.12-.13.2-.24.34l.13.1c-.15.27-.36.34-.51.49s-.05.17-.15.28-.5.3-.67.47-.11.24-.22.31l-.78.5c-.2.18-.3.32-.48.48l-.49.33c.11.15-.22.42-.39.61.24,0,.24-.1.5,0a5.17,5.17,0,0,1,1.07-1c.08,0,.09,0,.12,0,.37-.31.9-1.07,1.23-.95l.06-.08s0,0,0-.08c.19,0,.53-.3.76-.44s.16,0,.25,0l.39-.19a2.48,2.48,0,0,1,.71.21c0,.08-.05.16-.08.24l.14.09a2.11,2.11,0,0,1-.31.44l.06.08a2.06,2.06,0,0,1-.64.62,1.09,1.09,0,0,0,0,.17,5.24,5.24,0,0,1-.71.66l-.16.34a4.17,4.17,0,0,1-1,.78,1,1,0,0,1-.26.51h.16c.28-.19,1-1,1.22-.86l.36-.33c.3-.16.59-.33.88-.5a.11.11,0,0,1,.08.07,1.78,1.78,0,0,1,.92-.44.22.22,0,0,0,0,.08l.53-.21,0,0a1.16,1.16,0,0,0,0,.18c.08,0,.23,0,.27.12s0,.17,0,.26a3.23,3.23,0,0,1-.23.27c.18.32-.37.64-.6.95s-.47.32-.63.5-.1.17-.14.26l-.37.27-.52.32c-.05.08-.1.16-.14.24a3.11,3.11,0,0,1-.72.56c-.11.2,0,.28-.11.48.24,0,.79-.47,1.11-.52.08.05.07.1.16.16.42-.41.71-.82,1.14-.83a.61.61,0,0,0,.07.1,2.17,2.17,0,0,1,1.16-.6c0,.06,0,.05,0,.11.27-.13.77-.54.9-.18.19-.1.68-.07.64.25s-.29.37-.35.54v.17l-.39.47a4.15,4.15,0,0,1-.77.45l-.19.21-.8.46a.57.57,0,0,0-.08.13,2.8,2.8,0,0,1-.67.43,2.62,2.62,0,0,0,0,.28,5,5,0,0,1-.78.92c.6,0,1.68-.85,2.19-.73a2.35,2.35,0,0,1,1.31-.85.29.29,0,0,1,0,.09l.49-.35.44-.16.06.11a4.45,4.45,0,0,1,.77-.22c.07.06.06,0,0,.15a.55.55,0,0,1,.32.08.94.94,0,0,0,.11.36c0,.1-.09.14-.17.23l.12.11v0a11.13,11.13,0,0,1-1,.81c-.15.13-.18.27-.32.36l-.57.29-.27.28-.59.36c-.22.21-.38.74-.58,1,.23.07.64-.34.89-.44s.35-.18.49-.21a3,3,0,0,0,.61-.12c.29-.16.61-.45.92-.63s.36-.07.56-.17a1.22,1.22,0,0,1,.52-.17s0,0,0,.07a.58.58,0,0,1,.34-.06c0,.05,0,.05,0,.13.27.12.29.18.3.46A5.94,5.94,0,0,1,32.87,55a2.94,2.94,0,0,0-1.28,1.23l0,0c.17,0,.45-.3.63-.41l.48-.17a2,2,0,0,1,.26-.18l.21,0,.28-.23a4,4,0,0,1,.85-.35V55c.26-.07.61-.29.85-.24a3.6,3.6,0,0,1,.63.31,1.87,1.87,0,0,0-.08.44c-.17.17-.28.44-.49.58-.46.29-1.08.5-1.54.83,0,0-.44.69-.51.84.14.05.79-.36,1-.45s.53-.26.63-.28l.11,0a8.13,8.13,0,0,1,1.51-.64c.35-.07.84.19.67.64a6.29,6.29,0,0,1-.81.74l-.36.13a3.77,3.77,0,0,0-1.13.93s0,0,0,.1c.15,0,.35-.12.5-.16a6.72,6.72,0,0,1,1.86-.48c.06,0,.19-.05.26-.05a.56.56,0,0,1,.54.64,4.24,4.24,0,0,1-.57.49c-.27.15-1.17.32-1.32.75l0,0,0,0a9.76,9.76,0,0,1,2.06-.65A.85.85,0,0,1,38.68,59.92Z"/><path class="cls-2" d="M11.43,60.41a.47.47,0,0,1,0,.2H8.47v0c.19-.39.6-1.26.91-.87h0a3.24,3.24,0,0,1,.38-1.41.78.78,0,0,1,.22,0l.19-.58c.15-.3.45-.83.66-.71.16-.53.5-1.14.8-1a1.79,1.79,0,0,1,.52-.61,1.16,1.16,0,0,0,.06.15.7.7,0,0,1,.51-.39l0,.16.22,0c.06.1,0,.19.15.2l0,0c0,.13-.07.26-.11.38l.12,0a.08.08,0,0,0,0,0,1.23,1.23,0,0,1-.27.69.59.59,0,0,1,0,.2c-.09.18-.13.34-.23.5a1.84,1.84,0,0,1-.17.22V58A2.16,2.16,0,0,1,12,59a2.36,2.36,0,0,1-.61,1.33l0,.06Z"/><path class="cls-2" d="M15.26,59.21c-.13.24-.36.39-.45.61s0,.27-.11.37l-.35.42H11.7a.9.9,0,0,1,.08-.21,2.58,2.58,0,0,1,.64-.8.17.17,0,0,1,.08.09c.28-.43.47-1,.81-1.11,0,0,0,.09,0,.14.18-.26.68-1,.86-.79.18-.32.46-.6.7-.58l0,.11a.47.47,0,0,1,.67.31,1.8,1.8,0,0,1-.11.41l.14.11c-.07.31-.23.41-.32.6S15.32,59.09,15.26,59.21Z"/><path class="cls-2" d="M17,60l.06.09a1.26,1.26,0,0,1-.19.48h-2c.15-.32.32-.61.51-.56,0,0,0-.06,0-.09s0,0-.05-.09c.16,0,.37-.39.54-.57s.13,0,.22,0l.28-.25a1.67,1.67,0,0,1,.65.16c0,.09,0,.18,0,.26l.15.1A2.16,2.16,0,0,1,17,60Z"/><path class="cls-3" d="M70.54,9.13c-.18-.72.12-1.13.89-1.13H72a1.1,1.1,0,0,1,1.13.89l8.57,33c.53,2,1,4.46,1,4.46h.12S83.39,44,84,41.92L93.27,8.83A1.1,1.1,0,0,1,94.4,8h1.07a1.09,1.09,0,0,1,1.13.83l9.29,33.09c.59,2.08,1.13,4.46,1.13,4.46h.12s.47-2.44,1-4.46l8.87-33A1.08,1.08,0,0,1,118.15,8h.59c.72,0,1.07.41.89,1.13L108.92,48.82a1.09,1.09,0,0,1-1.13.83h-1.43a1.09,1.09,0,0,1-1.13-.83L96.66,18.23c-.77-2.67-1.6-6.6-1.6-6.6h-.24s-.83,3.93-1.61,6.6L84.64,48.82a1.09,1.09,0,0,1-1.13.83H82.08A1.09,1.09,0,0,1,81,48.76Z"/><path class="cls-3" d="M124.81,9a.91.91,0,0,1,1-1h.48a.91.91,0,0,1,1,1V25.14a12.38,12.38,0,0,1-.24,2.44h.12a13.71,13.71,0,0,1,12.62-8.39c7.73,0,9.82,4.58,9.82,11.6V48.64a.91.91,0,0,1-1,1h-.47a.9.9,0,0,1-1-1v-17c0-5.17-.66-10-7.32-10s-12.5,5.59-12.5,13.39V48.64a.91.91,0,0,1-1,1h-.48a.91.91,0,0,1-1-1Z"/><path class="cls-3" d="M155.1,11.33V9a.91.91,0,0,1,1-1h.95a.9.9,0,0,1,1,1v2.32a.91.91,0,0,1-1,1h-.95A.91.91,0,0,1,155.1,11.33Zm.24,9.58a.91.91,0,0,1,1-1h.47a.92.92,0,0,1,1,1V48.64a.91.91,0,0,1-1,1h-.47a.9.9,0,0,1-1-1Z"/><path class="cls-3" d="M167.12,22.34H164.2a.91.91,0,0,1-1-1v-.24a.91.91,0,0,1,1-1h2.92V12.64a.91.91,0,0,1,1-1h.48a.91.91,0,0,1,1,1v7.44h6.78a.91.91,0,0,1,1,1v.24a.91.91,0,0,1-1,1h-6.78V38.7c0,8,4.82,8.75,7.26,8.87.89.06,1.19.36,1.19,1v.3a.88.88,0,0,1-1,1c-7,0-9.94-4.46-9.94-11Z"/><path class="cls-3" d="M194.55,19.19c7.74,0,12.14,5.59,12.14,14.16a1,1,0,0,1-1.07,1H182.71c0,8.63,5.83,13.57,12.73,13.57a13.13,13.13,0,0,0,8.4-3,.84.84,0,0,1,1.36.18l.36.48a.91.91,0,0,1-.24,1.31,15.86,15.86,0,0,1-9.88,3.51c-8.39,0-15.35-6.07-15.35-15.53C180.09,24.78,186.93,19.19,194.55,19.19ZM204.07,32c-.29-7.26-4.64-10.53-9.58-10.53C189,21.51,184,25.08,182.89,32Z"/><path class="cls-3" d="M213.59,22.34h-2.73a.91.91,0,0,1-1-1v-.24a.91.91,0,0,1,1-1h2.73V18.71c0-9.4,6.43-11,9.41-11h.53a.91.91,0,0,1,1,1v.36c0,.71-.41.95-1.25,1-2.85.12-7.2.89-7.2,8.57v1.43h7.14a.92.92,0,0,1,1,1v.24a.92.92,0,0,1-1,1h-7.14v26.3a.9.9,0,0,1-1,1h-.47a.91.91,0,0,1-1-1Z"/><path class="cls-3" d="M240.25,19.19c7.74,0,12.14,5.59,12.14,14.16a1,1,0,0,1-1.07,1H228.41c0,8.63,5.83,13.57,12.74,13.57a13.13,13.13,0,0,0,8.39-3,.85.85,0,0,1,1.37.18l.35.48a.91.91,0,0,1-.24,1.31,15.83,15.83,0,0,1-9.87,3.51c-8.39,0-15.36-6.07-15.36-15.53C225.79,24.78,232.64,19.19,240.25,19.19ZM249.78,32c-.3-7.26-4.65-10.53-9.59-10.53-5.47,0-10.53,3.57-11.6,10.53Z"/><path class="cls-3" d="M257.75,20.91a.91.91,0,0,1,1-1h.48a.91.91,0,0,1,1,1v4.64A12.38,12.38,0,0,1,260,28h.12c1.49-4.58,5-8.27,10-8.27.83,0,1.25.36,1.25,1v.54c0,.65-.54,1-1.31,1-6.67,0-9.82,7.91-9.82,14.52V48.64a.91.91,0,0,1-1,1h-.48a.91.91,0,0,1-1-1Z"/><path class="cls-3" d="M275.19,20.91a.91.91,0,0,1,1-1h.47a.91.91,0,0,1,1,1v4.23a12.89,12.89,0,0,1-.23,2.44h.12a13.7,13.7,0,0,1,12.61-8.39c7.74,0,9.82,4.58,9.82,11.6V48.64a.91.91,0,0,1-1,1h-.48a.91.91,0,0,1-1-1v-17c0-5.17-.65-10-7.32-10s-12.5,5.59-12.5,13.21v13.8a.9.9,0,0,1-1,1h-.47a.9.9,0,0,1-1-1Z"/></g></g></svg>