<svg id="Whitefern_Banner_Logo" xmlns="http://www.w3.org/2000/svg" width="304.779" height="60.5" viewBox="0 0 304.779 60.5">
  <g id="Group_358" data-name="Group 358" transform="translate(437.51 -31)">
    <path id="Path_2" data-name="Path 2" d="M57.387,7.539V52.9a7.738,7.738,0,0,1-2.094,5.334,6.97,6.97,0,0,1-5.064,2.205H7.158a6.953,6.953,0,0,1-5.482-2.693,1.45,1.45,0,0,1-.151-.209h0A7.705,7.705,0,0,1,0,52.9V7.539A7.738,7.738,0,0,1,2.094,2.205,6.97,6.97,0,0,1,7.158,0H50.229a6.97,6.97,0,0,1,5.064,2.205,7.738,7.738,0,0,1,2.094,5.334Z" transform="translate(-437.501 31)" fill="#608f38" fill-rule="evenodd"/>
    <path id="Path_3" data-name="Path 3" d="M1.288,56.52a1.43,1.43,0,0,1,.237.824A7.073,7.073,0,0,1,0,52.941V51H.095a4.649,4.649,0,0,1,.606.748c.076.151,0,.407.114.549s.189.133.218.3,0,.881,0,.947.208.237.237.5-.085.559-.076.947l.123.256a4.28,4.28,0,0,1-.028,1.269Z" transform="translate(-437.501 31.344)" fill="#fff" fill-rule="evenodd"/>
    <path id="Path_4" data-name="Path 4" d="M7.546,59.991a.417.417,0,0,1,0,.189H7.262A7.092,7.092,0,0,1,1.78,57.624c0-.341,0-1.146.265-1.184v-.9a1.714,1.714,0,0,0,.265-.947c0-.142.151-.208.151-.284a1.483,1.483,0,0,1,.1-.947c.057-.057.057-.057.142,0l.227-.615h.218l.085-.208a.8.8,0,0,1,.369.123c.066-.066.085-.1.17-.114a1.553,1.553,0,0,0,.454.436,4,4,0,0,0,.085,1l.151.208c0,.066-.085,1.06-.095,1.127l.275.18.114-.17a1.2,1.2,0,0,1,.066-.767.435.435,0,0,1,.256,0c.218-.331,0-.436,0-.682s.161-.294.227-.436a1.231,1.231,0,0,1,.4.133V53.5c.189,0,.208.133.3.237l.284.161.2.748.17.218c.085.3,0,.682.151.947L6.969,56a3.986,3.986,0,0,1,.066,1.023c0,.142.161.208.189.341l.057,1.013-.18.511c.275.208.237.294.284.606A2.616,2.616,0,0,0,7.546,59.991Z" transform="translate(-437.595 31.262)" fill="#fff" fill-rule="evenodd"/>
    <path id="Path_5" data-name="Path 5" d="M15.025,44.369c-.18.35,0,.682-.284.947a3.039,3.039,0,0,1-1.127.578c-.066,0-.095.218-.151.3-.18.3-.578,1-.947.691h0c-.1.521,0,.6-.322,1.117a1.042,1.042,0,0,1-.246,0l-.17.464c-.142.237-.436.663-.691.559-.133.436-.483.947-.833.767a1.524,1.524,0,0,1-.54.483l-.076-.123a.72.72,0,0,1-.549.312.473.473,0,0,0,0-.123H8.833c-.076-.085,0-.161-.189-.17h0a1.148,1.148,0,0,1,.1-.3l-.227-.047h0a.71.71,0,0,1,.237-.549.341.341,0,0,1-.066-.17,3.124,3.124,0,0,1,.218-.388c.047-.066.114-.114.17-.18a1.439,1.439,0,0,1,0-.218,1.411,1.411,0,0,1,.568-.776,1.505,1.505,0,0,1,.578-1.07h0a.36.36,0,0,0-.095,0,.4.4,0,0,1,.1-.36v-.047a1.344,1.344,0,0,1-.331,0c-.095.114-.095.275-.2.426a2.215,2.215,0,0,1-.653.644c-.066,0-.066,0-.1-.076-.284.341-.454.8-.824.881a.322.322,0,0,1-.057-.114c-.189.208-.691.814-.947.625a.947.947,0,0,1-.748.464q0-.047,0-.095a.672.672,0,0,1-.8-.246,1.382,1.382,0,0,1,.1-.417l-.17-.095c.047-.246.227-.331.312-.483s0-.151,0-.256.369-.312.464-.483,0-.218.085-.294l.568-.511c.123-.18.161-.322.284-.473l.35-.36c-.17-.123.057-.4.142-.587-.227.047-.189.114-.473.066a3.068,3.068,0,0,1-.615,1.013c-.085,0-.085.047-.133,0-.256.3-.473,1.032-.833.947v.076l.066.066c-.18,0-.388.312-.549.454s-.151,0-.256,0l-.3.2a2.547,2.547,0,0,1-.748-.133c0-.066,0-.142,0-.208l-.18-.085a1.051,1.051,0,0,1,.095-.379.341.341,0,0,1-.085-.076,1.079,1.079,0,0,1,.379-.606L4,45.8a2.907,2.907,0,0,1,.436-.653c0-.1,0-.208,0-.322a2.244,2.244,0,0,1,.625-.776.757.757,0,0,1,.057-.483H4.98c-.208.189-.606,1.023-.862.871a3.787,3.787,0,0,0-.218.322l-.625.559a.189.189,0,0,1-.1-.057,1.155,1.155,0,0,1-.72.473.237.237,0,0,0,0-.066l-.436.227h0v-.17a.468.468,0,0,1-.312-.076c-.085-.076,0-.161-.142-.237a2.262,2.262,0,0,0,.123-.265c-.294-.265.114-.606.218-.9s.322-.322.417-.5,0-.17,0-.246l.256-.275.369-.331a1.6,1.6,0,0,0,.047-.227,1.733,1.733,0,0,1,.483-.559c0-.189-.114-.246-.076-.436-.237,0-.587.483-.881.549-.095,0-.095-.076-.218-.123-.246.4-.36.8-.776.843a.455.455,0,0,0-.1-.085,1.392,1.392,0,0,1-.937.568c-.057,0,0,0-.066-.085a1.818,1.818,0,0,1-.417.3V41.528l.445-.35v-.133a1.477,1.477,0,0,1,.5-.464.934.934,0,0,0-.095-.256,3.02,3.02,0,0,1,.388-.89c-.388,0-.833.426-1.25.672V33.149h0c.095.142.057.322.114.483s.2.123.227.237a8.517,8.517,0,0,1,0,.852c0,.151.1.066.095.18,0,.331-.133.615-.114.947l.085.161a9.307,9.307,0,0,0,.265,1.155H.785c0-.066,0,0,.076-.085.189-.227,0-.464.151-.776s0-.634,0-.947l.076-.218a1.311,1.311,0,0,0-.047-.426c-.047-.142.085-.265.095-.417a4.242,4.242,0,0,1,0-.6l.161-.057c.17-.161.085-.54.436-.511s.483.4.568.54.161.1.218.189a4.626,4.626,0,0,1,.123.691c.038.18.2.256.2.35a2.6,2.6,0,0,1,0,.947l.18.189a4.3,4.3,0,0,1-.18,1.278A2.32,2.32,0,0,1,3.152,38.5l.057.066h0c.057,0,.095-.057.142-.076-.057-.275-.17-.72.1-1-.057-.246-.208-.776,0-1.013a3.3,3.3,0,0,1-.189-.814.234.234,0,0,1,.066-.189,2.941,2.941,0,0,0-.151-.682c-.057-.227.085-.114.1-.208v-.407l.17-.1a1.6,1.6,0,0,1,0-.218l.227-.151c.095,0,.218.066.3,0s.133.123.218.2l.246.1c.208.17.151.483.265.691l.151.095a2.746,2.746,0,0,1,.227,1.06c0,.047.076.057.114.1a2.708,2.708,0,0,1,0,1.184.227.227,0,0,0,.142.085,3.409,3.409,0,0,1-.095,1.2,1.543,1.543,0,0,1,.322,1.032c0,.047,0,.066.095.114s.114-.076.227,0c0-.284-.123-.7.161-.89a2.187,2.187,0,0,1,0-.739l.095-.2a5.29,5.29,0,0,0-.076-.559c-.019-.18.123-.275.142-.379a2.748,2.748,0,0,1,0-.691,1.2,1.2,0,0,0,.294-.265c.237-.17.521.085.7,0a1.629,1.629,0,0,1,.663,1.165l.057.047a2.709,2.709,0,0,1,.161-.492,1.979,1.979,0,0,1,.1-.6c.1-.18,0-.057.114,0l.095-.256c.322-.256.265.095.53.066H9.07a3.323,3.323,0,0,1,.511.644c.076.133.047.35.114.483s.161.1.189.256,0,.767,0,.862.18.2.208.436-.076.473-.076.776l.114.218a4.109,4.109,0,0,1-.047,1.117,1.184,1.184,0,0,1,.18.862c0,.057.066.095.123.1h0c0-.161,0-1.1.237-1.127v-.776a1.449,1.449,0,0,0,.227-.8c0-.123.133-.18.133-.237,0-.237-.095-.53.095-.786,0-.057,0-.057.114,0a1.985,1.985,0,0,1,.151-.549h.18l.076-.18a.843.843,0,0,1,.322.1.341.341,0,0,1,.142-.095,1.487,1.487,0,0,0,.388.379,3.059,3.059,0,0,0,.085.871c0,.066.085.114.123.18a5.727,5.727,0,0,1-.076.947l.237.151.1-.151a.947.947,0,0,1,0-.672.388.388,0,0,1,.218,0c.189-.284,0-.369,0-.587s.142-.256.2-.379a1.108,1.108,0,0,1,.341.114v-.076c.151,0,.18.123.256.2l.246.142.17.653.151.18c.076.275,0,.6.133.862l.133.17a3.674,3.674,0,0,1,.057.871c0,.123.133.189.161.3v.871a1.769,1.769,0,0,1-.151.445c.237.18.2.256.246.521.057.123.1.246.151.36C15.489,43.81,15.149,44.141,15.025,44.369Z" transform="translate(-437.5 31.629)" fill="#fff" fill-rule="evenodd"/>
    <path id="Path_6" data-name="Path 6" d="M24.163,32.6l.076.312c0,.312-.312.521-.445.71s-.066.549-.331.739a2.651,2.651,0,0,1-.947.3c-.057,0-.1.151-.151.218-.189.218-.578.71-.852.4h0c-.151.407-.047.483-.388.852h-.2c-.066.123-.133.237-.189.36s-.436.454-.615.341c-.161.322-.492.653-.757.483a1.146,1.146,0,0,1-.492.3l-.047-.1a.568.568,0,0,1-.473.17.388.388,0,0,0,0-.1l-.208-.076c-.047-.076,0-.123-.133-.161l.1-.237-.095-.047a.549.549,0,0,1,.256-.4.4.4,0,0,1,0-.151,2.983,2.983,0,0,1,.227-.284l.151-.1a1.089,1.089,0,0,1,0-.18,1.127,1.127,0,0,1,.54-.549,1.184,1.184,0,0,1,.587-.767H19.7a.294.294,0,0,1,.133-.265h0a1.7,1.7,0,0,1-.256-.066c-.095.066-.114.2-.208.312a1.591,1.591,0,0,1-.6.417l-.076-.076c-.265.237-.454.578-.767.578v-.095c-.17.142-.644.549-.8.36a.71.71,0,0,1-.653.265.293.293,0,0,1,0-.076.578.578,0,0,1-.606-.322,1.165,1.165,0,0,1,.114-.246l-.123-.095c.066-.2.218-.237.3-.341s0-.133.066-.208.331-.189.426-.312,0-.18.1-.227l.511-.322c.123-.123.17-.237.284-.331l.312-.227c-.123-.133.085-.312.18-.445-.18,0-.161.057-.379,0a2.765,2.765,0,0,1-.625.72h-.1c-.237.208-.5.757-.776.644v.123c-.151,0-.35.18-.5.275s-.123,0-.2,0-.18.085-.275.114a2.253,2.253,0,0,1-.587-.218,1.041,1.041,0,0,0,0-.17,1.041,1.041,0,0,0-.133-.085,1.06,1.06,0,0,1,.151-.312l-.057-.066a.833.833,0,0,1,.379-.436.7.7,0,0,1,0-.133c.114-.237.284-.312.417-.464l.057-.246a1.837,1.837,0,0,1,.587-.54.587.587,0,0,1,.1-.369h-.123c-.18.123-.6.739-.786.578l-.208.218-.587.331-.066-.066a.947.947,0,0,1-.634.275.133.133,0,0,1,0-.066l-.379.123h0v-.142a.227.227,0,0,1-.237-.114c-.057-.114,0-.123-.085-.208s.085-.123.133-.189c-.208-.265.161-.464.275-.691s.294-.218.4-.341l.057-.189.237-.189.331-.2a.533.533,0,0,1,.066-.17,1.316,1.316,0,0,1,.445-.388c0-.151-.057-.218,0-.36-.2,0-.53.3-.767.312-.076-.047-.076-.085-.161-.142-.246.294-.388.6-.72.559l-.076-.076a1.06,1.06,0,0,1-.776.369c-.047,0,0,0-.047-.085-.17.085-.483.369-.653.076-.133.057-.521,0-.559-.246s.161-.256.17-.388v-.133c.066-.114.142-.218.218-.341s.35-.18.5-.284l.1-.151.54-.294v-.095a1.326,1.326,0,0,1,.436-.284.381.381,0,0,0-.047-.218,3.361,3.361,0,0,1,.417-.663c-.454,0-1.127.54-1.543.407a1.193,1.193,0,0,1-.862.559v-.066L10.8,29l-.312.085-.066-.095a2.254,2.254,0,0,1-.559.114c-.066-.047-.057-.047,0-.114A.786.786,0,0,1,9.6,28.9a.994.994,0,0,0-.369-.578c0-.076.047-.1.095-.17l-.114-.085h0c.17-.265.436-.369.615-.559s.076-.2.17-.256l.388-.18.151-.2.388-.237c.133-.142.151-.54.265-.7-.2-.076-.436.218-.606.275a3.26,3.26,0,0,1-.341.123,3.267,3.267,0,0,0-.454,0c-.189.1-.379.312-.6.426s-.256,0-.4.095a.644.644,0,0,1-.369.085s0,0,0-.057a.369.369,0,0,1-.246,0c-.057-.047,0,0,0-.1-.237-.123-.256-.161-.322-.379a2.575,2.575,0,0,1,.663-.824c.246-.18.691-.379.757-.862-.133,0-.294.2-.417.265l-.341.085c-.066,0-.095.095-.161.114H8.237l-.189.17a2.547,2.547,0,0,1-.587.208.133.133,0,0,0,0-.057c-.18,0-.407.17-.606.123a4.734,4.734,0,0,1-.549-.294,2,2,0,0,0,0-.341c.085-.114.123-.312.265-.407a9.081,9.081,0,0,0,1.032-.53,4.828,4.828,0,0,0,.227-.615,3.949,3.949,0,0,0-.682.275,3.172,3.172,0,0,1-.426.18H6.628a4.336,4.336,0,0,1-1.041.388c-.265,0-.7-.218-.653-.559.17-.161.275-.379.483-.5l.265-.114a1.742,1.742,0,0,0,.691-.634c0-.047,0,0,0-.085s-.246.076-.35.085a3.977,3.977,0,0,1-1.363.237,1.4,1.4,0,0,0-.18,0,.7.7,0,0,1-.549-.549c.123-.1.208-.265.341-.331s.843-.161.881-.483h0a5.236,5.236,0,0,1-1.572.35,1.032,1.032,0,0,1-.54-.369.814.814,0,0,0,0-.151c.17-.284.36-.227.568-.341a.947.947,0,0,0,.256-.246v-.057h0A5.908,5.908,0,0,1,2.84,20.7a.527.527,0,0,1-.454-.341.691.691,0,0,1,.549-.426l.114-.208v-.057c0-.057-.142,0-.218,0-.417.047-.881.18-1.269-.265.047-.189.369-.208.483-.417a.265.265,0,0,0,0-.085c-.284,0-.947.275-1.136-.208v-.151c0-.047.161-.076.256-.142v-.057h0a1.032,1.032,0,0,1-.824-.189c0-.17.123-.218.256-.322H.256a.53.53,0,0,1-.256-.2V16.35c.246.114.312.4.483.559h0a.592.592,0,0,1,.076-.36H.653c.265.047.492.663.549.833h0c0-.151-.066-.275,0-.426.473-.227.691.776.8,1.013.142.047.142-.473.114-.568l.085-.095c.54,0,.549.89.843,1.127a2.35,2.35,0,0,1,.114-.511c.038-.17.1-.151.17-.246.54,0,.483,1.136.672,1.439a.436.436,0,0,0,.066.066h0a2.16,2.16,0,0,1,.057-.606.208.208,0,0,0,.095-.133.36.36,0,0,1,.151,0c.473.114.341,1.477.663,1.742h0a4.45,4.45,0,0,1,.208-1.335l.189-.095c.578.18.492.739.559,1.136l.076.161a3.143,3.143,0,0,0,.275.7h.076v-.275A2.339,2.339,0,0,0,6.5,20l-.057-.36c0-.085.17-.54.294-.549s.53.35.587.483a3.863,3.863,0,0,1,.246,1.468c.066.3.123.606.189.947h0a.942.942,0,0,0,.18-.246,1.6,1.6,0,0,1,0-.218c.095-.644,0-1.354.454-1.808.559,0,.748.587.767,1.042,0,.123.123.208.133.322.047.294-.151.615-.142.947s.114.568.133.852-.047.6.151.814a.615.615,0,0,1,.341-.521,3.21,3.21,0,0,0,.085-1.155c0-.1.066-.114.076-.208s0-.275,0-.417h.1c0-.407.483-.426.625-.076h.151a1.657,1.657,0,0,1,.246,1.013c0,.047,0,.076.123.123a4.015,4.015,0,0,1-.085.739l-.057.161.057.142a3.9,3.9,0,0,0,.3,1.041v.047c.085-.076.189-.189.294-.2s0-.246,0-.36l.18-.322v-.54c0-.151.133-.265.18-.454l.246-.54c.1-.047.123-.066.2-.227.294-.057.35.076.53.294l.151.133c.066.123,0,.265,0,.407s.142.123.151.218-.085.6-.085.691.076.066.057.161c-.047.265-.18.473-.208.72a.833.833,0,0,1,.047.142,8.3,8.3,0,0,0,.085.947h.085A.133.133,0,0,1,13.4,25.6c.18-.151.047-.369.208-.606s0-.511.085-.739l.085-.161v-.341c0-.114.1-.208.123-.341a3.5,3.5,0,0,1,.085-.464h.123c.161-.1.151-.426.417-.341s.341.388.388.511.114.1.151.18a1.676,1.676,0,0,1,0,.578c0,.114.114.189.114.294a2.074,2.074,0,0,1-.142.729,1.3,1.3,0,0,0,.123.189,4.043,4.043,0,0,1-.284.994,1.894,1.894,0,0,1,.1.947.2.2,0,0,1,0,.057h0l.123-.047c0-.227-.057-.606.2-.786,0-.2-.066-.653.133-.8a2.414,2.414,0,0,1-.066-.691,1.127,1.127,0,0,0,.085-.142v-.568c0-.095.085-.076.1-.151a1.469,1.469,0,0,1,.047-.322l.142-.066v-.17l.2-.085c.076,0,.161.095.246.047s.085.123.151.2l.18.114c.142.17.057.417.133.6a1.079,1.079,0,0,1,.1.1,2.31,2.31,0,0,1,0,.852.426.426,0,0,0,.085.095,2.471,2.471,0,0,1-.114.947.312.312,0,0,0,.095.1,2.594,2.594,0,0,1-.218.947,1.193,1.193,0,0,1,.133.871.218.218,0,0,0,.066.1c.076,0,.1-.047.189,0,0-.237,0-.578.237-.691a1.676,1.676,0,0,1,.1-.587l.114-.151v-.369c0-.142.133-.2.151-.284a2.979,2.979,0,0,1,.066-.559.843.843,0,0,0,.322-.1c.218-.114.417.142.568.1a1.42,1.42,0,0,1,.388,1.042v.047c.047-.123.142-.256.18-.379s0-.341.151-.464,0,0,.1,0l.1-.2c.294-.142.2.123.417.142h.114a3.731,3.731,0,0,1,.341.6v.4c0,.1.114.114.114.237s-.095.615-.076.7a.791.791,0,0,1,.1.379c-.019.189-.114.369-.151.606a.643.643,0,0,0,.066.189,3.02,3.02,0,0,1-.17.89,1.117,1.117,0,0,1,.057.729s0,.085.076.095h0c0-.123.085-.881.322-.871l.114-.615a1.146,1.146,0,0,0,.275-.615c0-.085.133-.114.133-.161.047-.189,0-.445.17-.625h.095c.066-.133.123-.275.189-.417h.142a.947.947,0,0,0,.076-.133.7.7,0,0,1,.246.133.18.18,0,0,1,.123-.057,1.515,1.515,0,0,0,.275.36,5.842,5.842,0,0,0,0,.71,1.231,1.231,0,0,0,.076.161c0,.047-.161.729-.18.776l.17.151.1-.1a.786.786,0,0,1,.114-.53.227.227,0,0,1,.17.066c.189-.208,0-.3.066-.483s.142-.18.2-.265.18.085.256.142l.047-.057c.123,0,.123.123.18.2l.18.151.057.549.1.17v.71l.085.142a2.7,2.7,0,0,1-.057.72c0,.1.085.17.095.256,0,.237-.047.473-.066.72l-.17.322C24.2,32.323,24.153,32.37,24.163,32.6Z" transform="translate(-437.501 31.441)" fill="#fff" fill-rule="evenodd"/>
    <path id="Path_7" data-name="Path 7" d="M18.906,8.675c-.18-.218-.085-.871-.473-.947l-.076.057c0,.076-.057.464-.161.407-.057-.2-.085-.947-.464-.881-.047.1,0,.2,0,.312h0c0-.133-.114-.634-.294-.71h-.076c-.076.085-.066.151-.1.256h0c-.1-.151-.114-.379-.284-.5l-.095.057-.445-.473-.161-.123c-.095-.123-.284-.36-.407-.379h0v.2a2.414,2.414,0,0,0,.653.947s-.047,0-.057.076.246.2.312.3L16.7,7.34h0a1.48,1.48,0,0,0,.312.35l.246.066h0c-.322.123-.417.123-.436.218a.767.767,0,0,0,.587.275h0a.234.234,0,0,0-.2.066.464.464,0,0,0,0,.114c.095.4.606.275.814.341a.606.606,0,0,1,0,.066c-.1.142-.35.095-.407.237.227.388.587.369.9.4h.17v.047l-.1.133a.473.473,0,0,0-.454.227c0,.133.17.275.284.331a3.844,3.844,0,0,0,.814,0h0c-.085.057-.123.114-.218.142a.822.822,0,0,0-.464.151v.123a.862.862,0,0,0,.35.36,4.157,4.157,0,0,0,1.136,0h0c-.066.227-.568.17-.72.208s-.189.142-.294.2a.53.53,0,0,0,.331.492h.142a3.162,3.162,0,0,0,1.032.057H20.8c.085,0,0,0,0,.066a1.231,1.231,0,0,1-.587.36H20c-.161.057-.275.208-.426.3-.076.237.218.492.417.521a3.465,3.465,0,0,0,.824-.123h.066a2.329,2.329,0,0,0,.341-.057c.1,0,.454-.142.54-.095a2.5,2.5,0,0,1-.256.417c-.237.123-.587.133-.833.237s-.161.18-.246.256a1.174,1.174,0,0,1,0,.256,2.765,2.765,0,0,0,.369.3c.142.076.322,0,.464,0h0a1.524,1.524,0,0,0,.464-.057l.151-.095h.114a.156.156,0,0,0,.142-.057H22.4c.095,0,.246-.161.341-.133h0c-.114.341-.473.426-.672.511a1.988,1.988,0,0,0-.682.53.426.426,0,0,0,.189.341.1.1,0,0,0,0,.085.331.331,0,0,0,.189,0v.047a.483.483,0,0,0,.284,0h.312c.1,0,.331-.17.492-.218a1.543,1.543,0,0,1,.341.047h.265c.085,0,.35-.189.483-.114-.095.1-.161.4-.284.483l-.312.114-.142.123-.312.076c-.076,0-.085.1-.161.161a2.263,2.263,0,0,0-.53.312h0l.076.085a.265.265,0,0,0-.095.114.843.843,0,0,1,.085.246.473.473,0,0,0,.189.1v.095c0,.047.275,0,.426,0s0,0,0,.076h.237l.265-.123V17.2a.786.786,0,0,0,.7-.275c.294.17.871-.161,1.2-.047a1.733,1.733,0,0,0-.388.426v.17a.947.947,0,0,0-.36.133.151.151,0,0,1,0,.066L24.1,17.8a.89.89,0,0,1-.095.095c-.133.057-.284,0-.417.133l-.2.218v.1c0,.038-.17.161-.18.265s.275.294.379.265c.085.246.36.095.5.057s0,0,0,.076a.843.843,0,0,0,.634-.151l.047.066c.237.076.388-.123.6-.294.057.057.057.085.1.123s.464-.161.606-.1c-.057.1,0,.17,0,.275a.748.748,0,0,0-.379.208l-.076.114-.275.1-.2.095a.126.126,0,0,1-.066.133c-.066.038-.265.085-.341.189s-.407.246-.294.473l-.114.123v.161c0,.066.114.095.161.123s0,.076,0,.1H24.8v.379a.644.644,0,0,0,.5-.1.17.17,0,0,0,.047.066l.473-.151.189-.133c.114.151.5-.237.653-.294h.095a.445.445,0,0,0-.133.265,1.231,1.231,0,0,0-.5.3c0,.057-.047.114-.076.18s-.256.114-.369.275,0,.066,0,.1a.587.587,0,0,0-.331.256v.057a.947.947,0,0,0-.151.208l.085.085v.133a2.282,2.282,0,0,0,.407.265h.208c.057,0,.076.057.151,0s.294-.17.407-.133,0,0,0-.047h0c.2.123.454-.237.653-.35,0,.047,0,0,.076,0a1.8,1.8,0,0,0,.559-.436c.151.1.142.057.275.085-.085.085-.265.189-.189.3l-.256.114c-.1.057-.151.133-.256.2l-.426.161c-.057,0-.057.114-.1.151s-.246.085-.35.161-.047.114-.085.142a.631.631,0,0,0-.265.208l.085.085a.947.947,0,0,0-.123.17.454.454,0,0,0,.407.331v.066a.559.559,0,0,0,.521-.085c.085.161.492-.066.634-.142a.208.208,0,0,1,0,.076c.237,0,.417-.17.644-.3l.047.066a1.127,1.127,0,0,0,.492-.218c.085-.057.123-.151.2-.189a.748.748,0,0,0,.18.085h0a.208.208,0,0,0-.133.18h.047a.833.833,0,0,0-.53.473.767.767,0,0,0-.473.322v.123l-.133.066a1.713,1.713,0,0,0-.2.17.227.227,0,0,0,0,.114.436.436,0,0,0-.246.256h0l.076.057-.114.161h0c.095,0,0,.076.076.142l.142.085v.076a.369.369,0,0,0,.369,0,.341.341,0,0,1,0,.095.862.862,0,0,0,.407-.151c.17.17.464,0,.625-.237.123.114.369-.057.5-.151l.18-.237a.72.72,0,0,0,.151.057c.294-.218.237-.294.388-.578h0c.161.275.521,0,.682-.161s.151-.038.151-.038a1.733,1.733,0,0,0,.757-.057c.218-.1.17-.341.341-.5s.379-.218.426-.454a2,2,0,0,1,0-.246c0-.161.057-.2-.047-.36l.18-.218a2.106,2.106,0,0,1,.133-.521c.047-.17-.047-.133,0-.208a2.84,2.84,0,0,0,.133-.521l-.047-.123c0-.18.085-.36.095-.53l-.076-.189V19.62l-.114-.133c0-.066,0-.142-.1-.18h0a.786.786,0,0,0-.18-.142c0,.057-.142.066-.18.161s.057.227-.114.35a.2.2,0,0,0-.114-.076.634.634,0,0,0-.161.379l-.085.057-.1-.142s.227-.511.237-.549a.54.54,0,0,1-.028-.1,5.122,5.122,0,0,1,.114-.521,1.344,1.344,0,0,1-.151-.312.114.114,0,0,0-.095,0c-.057-.057-.114-.123-.161-.133l-.085.085-.095-.057-.189.284h-.076c-.076,0-.142.3-.208.436s-.085,0-.114.1a.871.871,0,0,1-.294.407l-.161.445c-.17-.047-.322.5-.35.587h0l-.047-.085a.862.862,0,0,0,.057-.549,2.471,2.471,0,0,0,.237-.634v-.151c.057-.17.151-.275.189-.436a.754.754,0,0,0,0-.294,5.224,5.224,0,0,1,.151-.511c.019-.114-.047-.1-.066-.189s.047-.208,0-.3a3.172,3.172,0,0,0-.18-.5h-.076c-.076,0-.057-.237-.294-.17l-.1.123h-.076c-.076,0-.114.227-.17.322s-.133.17-.18.256a1.1,1.1,0,0,0-.151-.833c-.123,0-.237-.218-.407-.18a.464.464,0,0,1-.18.066c-.076.123-.057.294-.123.407s-.114.085-.151.18l-.057.341a.445.445,0,0,0-.095.095,1.089,1.089,0,0,0-.161.417c-.2,0-.227.3-.265.473-.057-.047-.085,0-.133,0s0-.047,0-.085a.947.947,0,0,0,0-.672,1.742,1.742,0,0,0,.284-.672.331.331,0,0,1-.057-.085,1.894,1.894,0,0,0,.208-.691.147.147,0,0,0-.047-.095,1.894,1.894,0,0,0,.085-.634l-.066-.095a1.273,1.273,0,0,0,0-.464l-.114-.123a.164.164,0,0,0-.085-.17.35.35,0,0,0-.18-.076h-.151l-.057.123h-.1l-.085.227c0,.057-.066,0-.095.1a4.167,4.167,0,0,1-.047.426l-.076.095a1.941,1.941,0,0,0-.047.521c-.17.076-.18.426-.2.578-.208.095-.237.379-.256.559h-.095a.076.076,0,0,1,0-.047,1.61,1.61,0,0,0,.047-.757,2.433,2.433,0,0,0,.331-.691l-.218-.227a1.6,1.6,0,0,0,.2-.521c0-.076-.057-.151-.047-.237s.095-.331.057-.436-.066-.095-.085-.151-.076-.379-.218-.454-.218.142-.35.189h-.066a2.054,2.054,0,0,0-.114.341c0,.085-.1.123-.142.218l-.047.265-.085.1c-.057.161-.047.426-.161.54s-.085.322-.227.407H25.5c0-.256.057-.483.066-.739v-.114a4.886,4.886,0,0,1,.246-.5c0-.066,0-.076,0-.133s.142-.369.151-.5-.085-.123-.085-.189.057-.2,0-.3l-.1-.133c-.1-.189-.133-.3-.35-.294s-.095.114-.18.133-.085.246-.133.379-.133.189-.18.3-.066.294-.1.4l-.17.2-.142.284a.445.445,0,0,0-.246.095h0a2.471,2.471,0,0,1,0-.833v-.1a.71.71,0,0,1,.066-.114,2.84,2.84,0,0,0,.151-.54.331.331,0,0,1-.076-.114,1.24,1.24,0,0,0-.047-.786h-.1c-.066-.284-.388-.341-.473,0H23.7a1.674,1.674,0,0,1-.076.294c-.019.095-.066.076-.085.151a2.253,2.253,0,0,1-.208.843c-.17,0-.246.142-.322.331-.114-.189,0-.426,0-.625v-.663c0-.208.218-.436.227-.653s-.076-.17-.066-.265a.8.8,0,0,0-.426-.947c-.4.265-.417.8-.578,1.269v.161c0,.066-.123.085-.17.151h0v-.71a3.181,3.181,0,0,0,.047-1.117c0-.1-.246-.454-.369-.454s-.284.3-.294.36v.284a2.121,2.121,0,0,1-.133.341.239.239,0,0,1-.057.189c-.057.047,0,0-.047,0h0a2.689,2.689,0,0,1,0-.615.7.7,0,0,0,0-.133c0-.3.142-.71-.265-.947h-.151a3.172,3.172,0,0,0-.322.947h0c-.2-.246.085-1.24-.265-1.4h-.36a.114.114,0,0,1-.085.085,4.517,4.517,0,0,1-.123.445h0l-.047-.057c-.095-.256.095-1.07-.3-1.184-.057,0-.123.066-.161.151s-.095.237-.151.36Z" transform="translate(-438.342 30.695)" fill="#fff" fill-rule="evenodd"/>
    <path id="Path_8" data-name="Path 8" d="M29.74,4.958c-.133-.18,0-.663-.312-.767h-.066c0,.057-.066.35-.133.294s0-.748-.312-.691v.227h0c0-.114-.057-.492-.189-.568H28.67a.492.492,0,0,0-.085.189h0c-.076-.123-.066-.294-.189-.4a.142.142,0,0,0-.076,0l-.312-.4-.114-.095c-.066-.1-.2-.294-.294-.322h0v.151a1.894,1.894,0,0,0,.445.748v.057c0,.057.18.161.227.246h-.066a1.108,1.108,0,0,0,.208.284l.189.076h0c-.085,0-.161,0-.18.142a.615.615,0,0,0,.426.246H28.7a.265.265,0,0,0,0,.085c.047.3.445.246.6.312v.047c0,.047-.275,0-.322.151.151.312.426.312.653.36a.331.331,0,0,1,.133,0h0l-.085.095a.379.379,0,0,0-.36.142c0,.1.114.218.2.275a3.144,3.144,0,0,0,.615.066h0a.388.388,0,0,1-.17.095.564.564,0,0,0-.36.085c-.133.085,0,.066,0,.095a.682.682,0,0,0,.246.294,3.276,3.276,0,0,0,.862.066h0c-.066.17-.445.095-.549.114a.947.947,0,0,0-.237.133.426.426,0,0,0,.218.4h.114a2.4,2.4,0,0,0,.776.1h.208c.057,0,0,0,0,.047a.947.947,0,0,1-.473.237h-.151c-.133,0-.218.133-.341.2s.142.388.294.426a2.84,2.84,0,0,0,.625,0h.047a1.344,1.344,0,0,0,.265,0c.076,0,.35-.085.407,0a2.358,2.358,0,0,1-.208.3c-.189.076-.454.066-.644.123s-.133.123-.208.18a.71.71,0,0,1,0,.189,3.115,3.115,0,0,0-.028.6c.1.066.246,0,.35,0h0a1.155,1.155,0,0,0,.36,0l.123-.057.114.057h.3c.076,0,.2-.1.265-.076h0c-.1.246-.369.294-.53.341a1.42,1.42,0,0,0-.54.36.312.312,0,0,0,.123.275v.057a.237.237,0,0,0,.133,0h0a.341.341,0,0,0,.218,0h.237c.076,0,.256-.114.379-.133a1.392,1.392,0,0,1,.256.057,1.553,1.553,0,0,0,.208,0c.1,0,.275-.114.369,0-.085.076-.142.294-.237.35l-.246.066-.114.076h-.237c-.066,0-.076.076-.133.114a2.083,2.083,0,0,0-.417.2h0a.331.331,0,0,0,.047.076l-.085.133a.35.35,0,0,1,.047.189.53.53,0,0,0,.142.095v.066a1.25,1.25,0,0,0,.322,0v.066h.18l.208-.076v.047a.615.615,0,0,0,.549-.17c.208.151.663-.066.947,0A1.477,1.477,0,0,0,33.84,12v.133a.634.634,0,0,0-.284.076h0l-.341.076-.076.066a.521.521,0,0,0-.322.076l-.161.142v.085c0,.066-.133.1-.142.189s.189.237.265.227c.057.189.265.095.379.076s0,0,0,.047a.587.587,0,0,0,.483-.066l.019.256c.18.076.3-.066.473-.189,0,.047,0,.066.066.1s.36-.095.464,0c-.047.076,0,.123,0,.2a.634.634,0,0,0-.3.142l-.057.076-.218.057-.151.066-.066.095c-.066.057-.2.047-.265.123s-.322.151-.246.331l-.095.085v.133c0,.047.076.076.114.1a.18.18,0,0,1,0,.076H33.6a.464.464,0,0,0,.388,0v.047l.36-.085.151-.085c.085.123.388-.142.511-.18h.066a.35.35,0,0,0-.1.189,1.155,1.155,0,0,0-.407.2L34.512,15a.947.947,0,0,0-.294.18v.095a.417.417,0,0,0-.265.17V15.5a.455.455,0,0,0-.123.151l.057.066v.095a1.231,1.231,0,0,0,.294.227h.161a.079.079,0,0,0,.114,0,.341.341,0,0,1,.312-.066v-.047h0c.133.114.35-.142.511-.218h.047a1.3,1.3,0,0,0,.445-.294c.114.085.114.047.208.076-.066.057-.208.123-.161.218l-.2.076a1.894,1.894,0,0,0-.208.133l-.322.095c-.047,0-.057.076-.085.1s-.2.047-.284.1,0,.076-.057.095a.39.39,0,0,0-.218.142l.057.076a.6.6,0,0,0-.1.114.369.369,0,0,0,.294.284v.047a.426.426,0,0,0,.4,0c.066.133.379,0,.492-.066v.057c.18.057.331-.1.511-.189v.057a.947.947,0,0,0,.388-.133c.066,0,.095-.114.151-.133a.7.7,0,0,0,.142.076h0a.151.151,0,0,0-.1.123h0a.6.6,0,0,0-.426.322.615.615,0,0,0-.379.208v.095h-.1c-.066,0-.095.085-.161.123a.256.256,0,0,0,0,.085c-.057,0-.189.1-.189.18h0v.047l-.095.114h0c.066,0,0,.057,0,.114l.1.076a.123.123,0,0,0,0,.057.331.331,0,0,0,.284,0s0,0,0,.066a.644.644,0,0,0,.312-.085c.123.142.35,0,.483-.142.095.095.284,0,.388-.085l.151-.161a.578.578,0,0,0,.114.047c.237-.142.189-.208.322-.407h0c.1.218.388,0,.521-.085s.085-.085.123-.095a1.43,1.43,0,0,0,.568,0c.18-.066.161-.246.294-.36s.3-.142.341-.312v-.189c0-.123.057-.151,0-.275l.142-.161a1.208,1.208,0,0,1,.133-.379c.047-.123,0-.114,0-.161a2.357,2.357,0,0,0,.133-.388v-.095a2.706,2.706,0,0,1,.095-.4v-.426a.861.861,0,0,1-.076-.123.117.117,0,0,0-.076-.133h0a.5.5,0,0,0-.123-.123.166.166,0,0,0-.151.114c-.038.114,0,.17-.095.256a.227.227,0,0,0-.085-.066.407.407,0,0,0-.142.275l-.066.047-.066-.009s.2-.369.208-.4v-.1a1.852,1.852,0,0,1,.123-.388.947.947,0,0,1-.1-.246h-.076c-.076,0-.076-.1-.114-.114l-.066.057h-.076c0,.076-.1.142-.151.208s0,0-.057,0-.123.227-.17.322-.076,0-.1.066a.663.663,0,0,1-.237.294,3.352,3.352,0,0,1-.151.322c-.123-.047-.265.36-.294.426h0a.085.085,0,0,1,0-.066.663.663,0,0,0,.076-.417,1.7,1.7,0,0,0,.208-.464.464.464,0,0,0,0-.114c.057-.133.133-.2.17-.312s0-.142,0-.237a2.135,2.135,0,0,1,.142-.369c.019-.076,0-.085,0-.151v-.227a1.808,1.808,0,0,0-.1-.388H38.11c-.057,0,0-.18-.218-.142l-.076.085h-.057c-.057,0-.095.161-.151.237s-.114.114-.151.17h0a.862.862,0,0,0-.066-.644c-.095,0-.17-.17-.3-.151a.7.7,0,0,1-.133,0c-.066.085-.066.218-.114.294s-.095.057-.123.123a2.537,2.537,0,0,0-.066.256l-.076.066a.767.767,0,0,0-.142.312c-.161,0-.189.208-.227.341h-.1a.123.123,0,0,1,0-.076.767.767,0,0,0,0-.5,1.5,1.5,0,0,0,.246-.492.1.1,0,0,1,0-.076,1.25,1.25,0,0,0,.189-.511.142.142,0,0,1,0-.066,1.506,1.506,0,0,0,.095-.483.53.53,0,0,1-.047-.076c0-.114.066-.237,0-.35l-.085-.095a.149.149,0,0,0-.057-.142.227.227,0,0,0-.123-.066H36.2v.095h-.265l-.066.17a.1.1,0,0,0-.085.066l-.057.322-.066.066a1.828,1.828,0,0,0-.057.4c-.133,0-.161.3-.18.417-.17.066-.2.275-.218.407h-.076a1.089,1.089,0,0,0,.076-.568A2.159,2.159,0,0,0,35.5,10.9v-.123a1.07,1.07,0,0,0,.18-.379v-.189c0-.066.095-.237.076-.322s-.057-.076-.066-.123,0-.284-.142-.35-.17.085-.275.114h-.076a1.259,1.259,0,0,0-.1.246c0,.066-.085.095-.123.161a1.108,1.108,0,0,1,0,.189L34.9,10.2c-.057.123-.057.322-.151.4s-.076.246-.2.3h0a5.552,5.552,0,0,1,.095-.549.265.265,0,0,1,0-.085,3.789,3.789,0,0,1,.218-.369V9.8c0-.047.123-.265.142-.369s-.057-.095-.057-.151.057-.142,0-.227l-.066-.1c-.275-.294-.275-.4-.473-.407s-.066.076-.133.085-.085.189-.123.284-.114.133-.161.218-.057.218-.095.294l-.142.18-.076.2a.369.369,0,0,0-.189.057h0a2.433,2.433,0,0,1,.057-.634V9.133l.057-.085a1.988,1.988,0,0,0,.142-.4.265.265,0,0,1,0-.085.947.947,0,0,0,0-.606h-.076a.184.184,0,0,0-.36-.066h-.066a.3.3,0,0,1-.066.227c-.066.076-.057.047-.076.1a1.666,1.666,0,0,1-.2.625.341.341,0,0,0-.256.227c-.085-.151,0-.322,0-.473V8.111c0-.151.189-.322.208-.492s-.047-.123,0-.2a.6.6,0,0,0-.275-.71c-.312.17-.35.587-.5.947v.133a.166.166,0,0,0-.142.1h0v-.54a2.31,2.31,0,0,0,.095-.833c0-.095-.161-.369-.265-.369s-.218.2-.227.246a1.7,1.7,0,0,0,0,.208,1.07,1.07,0,0,1-.123.256s0,.114-.047.142h0a1.894,1.894,0,0,1,0-.464v-.1c0-.227.151-.53-.151-.729H31.1c-.2.227-.189.464-.294.71h0c-.133-.208.123-.947-.123-1.089H30.6a.114.114,0,0,1-.076.057.986.986,0,0,1-.114.331h0a.1.1,0,0,1,0-.047c-.057-.2.123-.8-.17-.947-.047,0-.095,0-.133.1s-.085.18-.123.265Z" transform="translate(-438.969 30.871)" fill="#fff" fill-rule="evenodd"/>
    <path id="Path_9" data-name="Path 9" d="M38.336,4.1c-.076-.123,0-.445-.161-.53h0s-.066.227-.1.189,0-.5-.17-.492v.151h0c0-.076,0-.341-.095-.388h0a.156.156,0,0,1-.076.123h0a.32.32,0,0,0-.1-.284h0l-.189-.284-.076-.076a.378.378,0,0,0-.17-.227h0a.464.464,0,0,1,0,.1,1.335,1.335,0,0,0,.265.53h0a1.148,1.148,0,0,1,.133.189h0a.786.786,0,0,0,.133.208l.114.057h0c-.057,0-.114,0-.133.085a.454.454,0,0,0,.275.189h-.114a.17.17,0,0,1,0,.057c0,.208.284.189.379.246h0s-.189,0-.227.085c.085.218.275.237.426.284s0,0,.085,0h0l-.066.057a.265.265,0,0,0-.256.066.3.3,0,0,0,.123.2,1.827,1.827,0,0,0,.407.085h0a.368.368,0,0,1-.123.057,2.091,2.091,0,0,1-.246,0v.057a.4.4,0,0,0,.142.218,1.95,1.95,0,0,0,.578.1h0c0,.114-.294,0-.369,0a.947.947,0,0,0-.17.076.3.3,0,0,0,.133.275h.066a1.619,1.619,0,0,0,.521.133H39.4a.615.615,0,0,1-.322.123h-.1c-.085,0-.151.085-.237.114s.066.275.17.3a1.231,1.231,0,0,0,.417,0h.454a1.894,1.894,0,0,1-.151.189,3.475,3.475,0,0,1-.436,0c-.066,0-.1.076-.151.114a.747.747,0,0,1,0,.123A1.184,1.184,0,0,0,39.2,6.8h.237a.653.653,0,0,0,.237,0h.35s.133-.057.18,0h0c-.085.17-.265.17-.379.2a.947.947,0,0,0-.379.2.208.208,0,0,0,.066.189h0a.133.133,0,0,0,.085,0h0a.237.237,0,0,0,.142,0H39.9c.057,0,.18-.057.256-.066s.133.047.17.057h.142c.066,0,.189-.057.246,0s-.114.18-.18.208h-.161l-.521.776H39.69l-.095.066a1.373,1.373,0,0,0-.294.1h0l-.047.047a.322.322,0,0,1,0,.133.615.615,0,0,0,.085.076h0a.439.439,0,0,1,.218.057h.265a.388.388,0,0,0,.379-.076c.133.123.445,0,.606.095a.89.89,0,0,0-.227.18.265.265,0,0,0,0,.085.341.341,0,0,0-.189,0h-.5l-.038.388v.076s-.1.066-.114.114.114.18.17.18.17.076.246.076h0a.388.388,0,0,0,.322,0h0c.114.066.2,0,.322-.085a.331.331,0,0,1,0,.076h.312c.066,0,0,.085-.047.133a.6.6,0,0,0-.208.066V10.2H40.6v.057s-.133,0-.18.066-.227.076-.18.208l-.076.047v.085c0,.085.047.057.066.076a.133.133,0,0,1,0,.057h.161a.369.369,0,0,0,.265,0h0a1.032,1.032,0,0,1,.246,0l.1-.057c.047.095.265-.066.35-.085h0a.18.18,0,0,0-.085.123.615.615,0,0,0-.275.1l-.057.085a.578.578,0,0,0-.208.095v.057a.331.331,0,0,0-.189.095h0a.3.3,0,0,0-.095.095v.047a.237.237,0,0,1,0,.066,1.486,1.486,0,0,0,.18.17h.17s0,.047.066,0a.171.171,0,0,1,.218,0h0c.085.076.246-.076.35-.114h0a.947.947,0,0,0,.312,0c.066.066.066,0,.133.066s-.142.076-.123.133h-.133a1.032,1.032,0,0,0-.142.076h-.227a.07.07,0,0,1-.066.066,1.263,1.263,0,0,1-.189,0c-.057,0,0,.057,0,.066s-.1,0-.151.076v.057l-.047.218a.227.227,0,0,0,.18.208h0a.265.265,0,0,0,.265,0c0,.085.246,0,.331,0h0c.114.047.218,0,.341-.095h0a.559.559,0,0,0,.265-.057c.047,0,.076-.066.114-.076a.227.227,0,0,0,.085.057h0a.074.074,0,0,0-.076.076h0a.426.426,0,0,0-.3.189.407.407,0,0,0-.265.114v.066h-.066a.55.55,0,0,1-.114.076c-.047.019,0,0,0,.057s-.133.057-.142.1h0a.436.436,0,0,0-.066.066h0V13.1l.066.057v.047a.218.218,0,0,0,.189,0h0a.341.341,0,0,0,.208,0c.076.1.237,0,.331-.057.057.066.189,0,.265,0l.114-.1h.066c.17-.085.142-.133.246-.256h0c.057.151.265,0,.35,0s.066-.057.085-.057a1.07,1.07,0,0,0,.388.047c.123,0,.114-.151.208-.218s.208-.076.246-.189a.625.625,0,0,0,0-.133c0-.076.047-.095,0-.18l.1-.095.114-.246v-.114a1.373,1.373,0,0,0,.1-.246.19.19,0,0,1,0-.066,2.168,2.168,0,0,1,.085-.265v-.464h0a.852.852,0,0,0-.085-.095.116.116,0,0,0-.1.076c-.028.076,0,.114-.076.161a.123.123,0,0,0-.057-.047.275.275,0,0,0-.1.17h-.047v-.085l.161-.256v-.066a2.064,2.064,0,0,1,.1-.256.89.89,0,0,1-.057-.17h-.047a.17.17,0,0,0-.076-.085h-.047l-.114.123h0s-.095.133-.133.2-.2.3-.2.3a.417.417,0,0,1-.18.18l-.114.208c-.085,0-.2.218-.227.265h0a.369.369,0,0,0,.066-.275,1.07,1.07,0,0,0,.18-.294v-.085a2.263,2.263,0,0,0,.123-.2v-.151a2.576,2.576,0,0,1,.114-.237c0-.047,0-.057,0-.1V9.694a2.206,2.206,0,0,0,0-.265h0a.114.114,0,0,0-.133-.114l-.057.057h0c-.057,0-.076.1-.114.151a1.24,1.24,0,0,1-.114.1h0a.54.54,0,0,0,0-.436c-.057,0-.1-.133-.189-.133H42.9a.446.446,0,0,1-.095.189c-.038.047-.057,0-.085.076l-.057.17h-.057a.445.445,0,0,0-.114.189c-.1,0-.142.133-.17.218s0,0-.066,0a.54.54,0,0,0,.057-.341c.123-.1.133-.208.2-.312h0a.947.947,0,0,0,.161-.331.947.947,0,0,0,.095-.312V8.548c0-.076.057-.151,0-.237l-.057-.066V8.15c0-.028-.057,0-.085-.057h-.076V8.15h-.057l-.057.114h-.057l-.057.208h0a.833.833,0,0,0-.057.265c-.095,0-.133.189-.151.265s-.142.17-.17.256h-.388a.691.691,0,0,0,.085-.379,1.022,1.022,0,0,0,.218-.322.274.274,0,0,0,0-.085.833.833,0,0,0,.151-.237V8.112c0-.038.076-.161.066-.218a.242.242,0,0,1,0-.085c0-.028,0-.2-.076-.246s-.123,0-.189.057h-.047a1.392,1.392,0,0,0-.085.161.368.368,0,0,0-.085.1.654.654,0,0,0,0,.123h-.057c0,.076,0,.208-.114.256s-.066.151-.151.189h0a2.641,2.641,0,0,1,.095-.369V7.876c0-.085.114-.142.161-.227s0,0,0-.076.095-.17.114-.237,0-.066,0-.1a.71.71,0,0,0,0-.151V7.014c0-.114,0-.17-.161-.189s-.057,0-.095,0L41.29,7c0,.057-.085.085-.123.142s0,.142-.076.189l-.294.133a.786.786,0,0,1-.066.123.2.2,0,0,0-.123,0h0a1.591,1.591,0,0,1,.066-.417.123.123,0,0,0,0-.057h0c0-.085.095-.18.123-.265s0-.1,0-.1a.578.578,0,0,0,0-.4h0c0-.151-.17-.208-.237-.066h0a.947.947,0,0,0-.066.142l-.047.066a1.117,1.117,0,0,1-.18.407.218.218,0,0,0-.18.133V6.721a.6.6,0,0,1,.066-.331.9.9,0,0,0,.161-.312.271.271,0,0,0,0-.133.407.407,0,0,0-.151-.5c-.218.095-.265.369-.379.587a.388.388,0,0,0,0,.076.128.128,0,0,0-.1.066h0v-.36a1.439,1.439,0,0,0,.114-.559c0-.057-.085-.256-.151-.265s-.161.123-.17.151v.142a1.24,1.24,0,0,1-.085.161s0,.076-.047.095h0a1.127,1.127,0,0,1,0-.312.161.161,0,0,1,0-.066c0-.151.123-.35-.066-.5h-.18c-.142.142-.151.3-.237.454h0c-.076-.151.142-.625,0-.739H38.8a.066.066,0,0,1-.057,0,1.382,1.382,0,0,1-.095.218h0c0-.133.123-.53-.076-.625a.1.1,0,0,0-.085.066.938.938,0,0,1-.1.161Z" transform="translate(-439.479 30.879)" fill="#fff" fill-rule="evenodd"/>
    <path id="Path_10" data-name="Path 10" d="M51.349,18.008c.095.066.4,0,.436.17h0s-.218,0-.189.057.445,0,.388.17a.729.729,0,0,1-.142,0h0c.057,0,.284,0,.312.1h0a.312.312,0,0,1-.123,0h0a.208.208,0,0,1,.218.1h0l.2.161.057.057c.057,0,.151.1.161.151h-.095a1.013,1.013,0,0,1-.4-.237h0c-.057,0-.085-.095-.133-.114h0a.555.555,0,0,1-.151-.114v-.095h0a.1.1,0,0,1-.095.095.294.294,0,0,1-.114-.218h0v.076h-.057c-.17,0-.1-.227-.133-.3h0c-.066,0-.057.133-.114.151s-.161-.218-.17-.331a.085.085,0,0,0,0-.066h-.057a.208.208,0,0,1-.114.18.189.189,0,0,1-.142-.1v-.312h0a.322.322,0,0,0-.076.085.186.186,0,0,1-.076.17h-.057a.35.35,0,0,1-.151-.133,1.1,1.1,0,0,1,0-.426h0c-.1,0-.095.218-.114.265s-.066.076-.095.114a.237.237,0,0,1-.218-.114s0-.047,0-.057V17h0a.492.492,0,0,0-.18.227v.076a1.08,1.08,0,0,1-.142.161.2.2,0,0,1-.227-.151A1.316,1.316,0,0,1,49.626,17h0a.947.947,0,0,1,0-.133s.076-.17.057-.2l-.2.095c-.057.095-.066.227-.123.312s-.085.066-.123.1a.237.237,0,0,0-.114,0l-.133-.142v-.17h0a.388.388,0,0,1,0-.18v-.057h0v-.151c0-.028.076-.095.066-.133h0c-.151.047-.2.18-.246.256a.8.8,0,0,1-.246.265c-.085,0-.1,0-.151-.076h0a.189.189,0,0,1,0-.066h0V16.5c0-.038.085-.123.1-.18a.625.625,0,0,0,0-.133s0-.066,0-.1.095-.123.057-.18-.18.066-.218.114l-.057.123-.066.047a.616.616,0,0,1,0,.123.092.092,0,0,0-.076.057.675.675,0,0,1-.151.208h-.151v-.066h0v-.161h0v-.085l.066-.1h0a.3.3,0,0,1,.142-.265c-.066-.114.095-.331.047-.454a.947.947,0,0,1-.2.151h-.076a.322.322,0,0,1-.076.133h0a.175.175,0,0,1-.066.161h0a.183.183,0,0,1-.066.161l-.1.076h0s-.076.076-.123.076a.123.123,0,0,1-.114-.142c-.1,0,0-.133,0-.189h0a.265.265,0,0,1,.085-.237h0c0-.085.066-.142.151-.227h-.057c0-.066.085-.18.057-.227s-.076,0-.123,0a.294.294,0,0,1-.1.142h0l-.057.1a.331.331,0,0,1,0,.076h-.057a.133.133,0,0,1-.095.123c-.095.028-.123.161-.218.114l-.057.047h-.076c-.076,0,0,0-.057-.057h0a.473.473,0,0,1,0-.114h0a.218.218,0,0,1,.057-.189h0a1.022,1.022,0,0,0,.076-.18.435.435,0,0,0,.066-.066c-.066,0,.123-.189.151-.256a.256.256,0,0,1-.123,0,.521.521,0,0,1-.142.189h-.085c-.047.047-.057.1-.133.151H46.5a.275.275,0,0,1-.123.133h0l-.095.066h-.066a1.1,1.1,0,0,1-.1-.151.274.274,0,0,0,0-.085v-.047c0-.047.085-.114.066-.161h0c0-.066.123-.17.18-.246h0a.729.729,0,0,1,.208-.208v-.1c0-.047-.095.095-.142.076a.815.815,0,0,0-.066.095l-.095.095-.076.161h-.076a.179.179,0,0,1-.076.142c-.076.047-.057,0-.066,0s0,.066-.095.095h-.123a.161.161,0,0,1-.142-.151h0a.189.189,0,0,1,0-.189c-.076,0,0-.189.076-.246h0c0-.085.085-.161.151-.246h0a.521.521,0,0,1,.114-.189.1.1,0,0,0,.095-.066.189.189,0,0,1,0-.076h0a.085.085,0,0,1-.076,0h0c0,.095-.114.151-.227.208a.379.379,0,0,1-.151.18h-.066v.047s-.057,0-.076.076h-.057a.18.18,0,0,1-.123.095h-.142v-.047h0a.133.133,0,0,1,0-.142h0a.322.322,0,0,1,.076-.151c-.076-.066,0-.17.114-.237s0-.133.085-.189l.1-.066v-.057c0-.057.142-.085.265-.151h0c-.123-.057,0-.2.085-.256s.066,0,.066-.057a.577.577,0,0,1,.047-.284c0-.085.151-.076.237-.142s.1-.142.208-.161h.275l.1-.066.237-.057h.095a1.165,1.165,0,0,1,.237-.047h.057a2.216,2.216,0,0,0,.246,0h.388l-1.155.521s0,.057-.076.076a.456.456,0,0,1-.161,0c-.057,0,0,0,0,.047a.379.379,0,0,1-.17.066h.066l.246-.095h.066l.237-.057a.4.4,0,0,0,.133.057h0a.056.056,0,0,1,.057.057h0l-.133.066h0s-.142.057-.2.085,0,0-.057.047a.407.407,0,0,0-.189.1l-.2.066c0,.066-.237.123-.275.142h0a.483.483,0,0,1,.256,0,1.117,1.117,0,0,1,.284-.095h.076a.852.852,0,0,1,.2-.076h.133l.237-.066h.085a.625.625,0,0,0,.133,0l.227.057h0a.076.076,0,0,1,.076.1l-.1.36h0a.436.436,0,0,1-.151.066l-.114.076h0a.578.578,0,0,1,.379.047s.095.085.076.151a.123.123,0,0,0,0,.066h-.18c-.047,0,0,.047-.085.057H47.61l-.2.057c0,.076-.142.095-.218.1s0,0,0,.057h0a.473.473,0,0,1,.3,0,1.269,1.269,0,0,1,.312-.114h0a.833.833,0,0,1,.322-.076h0a1.041,1.041,0,0,1,.294,0h.208l.057.047h.066c.066,0,0,.047,0,.066v.057H48.7a.407.407,0,0,1,.095.284h-.4a1.893,1.893,0,0,1-.237,0c0,.066-.2.076-.265.076s-.18.095-.256.1h0a.71.71,0,0,1,.341,0,1.543,1.543,0,0,1,.322-.133h.066a.947.947,0,0,1,.246-.076h.1a1.676,1.676,0,0,1,.2,0h.066c.047,0,.17,0,.208.076s-.076.085-.095.133h0l-.161.047-.1.057h-.114a1.013,1.013,0,0,0-.256.057c-.066.066-.142,0-.189.095h.341a2.462,2.462,0,0,0,.237-.095h.057c.057,0,.17-.057.227-.057h.284a.11.11,0,0,1,.123.133c-.009.085-.047,0-.066.066l-.17.047a1.032,1.032,0,0,1-.142.076h-.18l-.095.076h-.123a.227.227,0,0,1-.047.095h0a1.837,1.837,0,0,0,.388,0h.047a1.184,1.184,0,0,1,.246-.066.085.085,0,0,0,.057,0,.729.729,0,0,1,.35,0h0s.142.142,0,.18h-.2a1.354,1.354,0,0,0-.388.085.227.227,0,0,1-.161.123c.085.047.2,0,.284,0h.4c.1,0,.2-.085.3-.095a.37.37,0,0,1,.114,0c.038,0,.369,0,.4.161-.123.151-.369.161-.578.218h-.085l-.066.066h.331a1.808,1.808,0,0,1,.5,0c.047,0,.2.095.2.142s-.142.1-.17.1h-.123l-.161.047h-.085a1.42,1.42,0,0,0,.284,0h.085c.142,0,.322-.057.417.095a.133.133,0,0,1,0,.057,1.591,1.591,0,0,1-.445.133h0c.114.076.568,0,.634.085h0l-.208.047h0s.492,0,.53.1,0,0-.066.057l-.17.066Z" transform="translate(-439.9 31.046)" fill="#fff" fill-rule="evenodd"/>
    <path id="Path_11" data-name="Path 11" d="M44.644,3.661c0-.1,0-.322-.085-.4h0s-.057.161-.085.123.057-.36-.095-.36,0,.066,0,.1h0V2.837h0s0,.047-.066.085h0a.293.293,0,0,0-.057-.208h0L44.133,2.5V2.439a.549.549,0,0,0-.123-.189h0v.076a.862.862,0,0,0,.151.4h0a.543.543,0,0,1,.085.142h0a.644.644,0,0,0,.085.161l.076.057h-.095a.265.265,0,0,0,.18.161h-.076c0,.151.189.161.256.208H44.5c-.038,0,.18.2.284.246h.019a.18.18,0,0,0-.18,0,.145.145,0,0,0,.076.151,1.657,1.657,0,0,0,.284.095H44.72a.3.3,0,0,0,.095.161,1.449,1.449,0,0,0,.407.123h0c-.047.076-.218,0-.275,0a.473.473,0,0,0-.123,0,.246.246,0,0,0,.076.218h.047a1.231,1.231,0,0,0,.369.133h.095a.426.426,0,0,1-.246.066H45.1a.587.587,0,0,0-.18.066.162.162,0,0,0,.1.227,1.07,1.07,0,0,0,.3,0h.322a1.5,1.5,0,0,1-.123.123h-.312c-.085,0-.085.047-.114.066v.085a1.344,1.344,0,0,0,.1.151s.123,0,.17.057h.511a.341.341,0,0,1-.284.114.7.7,0,0,0-.294.114.17.17,0,0,0,0,.142h.284a1.42,1.42,0,0,1,.189,0s.095,0,.123.047h.275c.038,0-.095.123-.142.142h-.369a.385.385,0,0,0-.218.057h0a.36.36,0,0,1,0,.095.161.161,0,0,0,.057.057h0a1.344,1.344,0,0,0,.151,0h.189a.265.265,0,0,0,.275,0c.095.095.322,0,.436.114a.559.559,0,0,0-.18.114s0,0,0,.057a.36.36,0,0,0-.142,0H45.9l-.095.057V7.694a.086.086,0,0,0-.085.076.127.127,0,0,0,.114.133c.047,0,.114.076.17.076h0a.294.294,0,0,0,.237,0h0c.076.057.151,0,.237,0H46.7c.038,0,0,.057,0,.085a.5.5,0,0,0-.161,0h-.776c-.038,0-.17,0-.151.133v.057c0,.057,0,0,.057.066h.114a.237.237,0,0,0,.18,0h.256c0,.066.2,0,.256,0h0a.142.142,0,0,0-.076.076.4.4,0,0,0-.2.057v.057a.182.182,0,0,0-.151.057h0a.18.18,0,0,0-.142.057h0a.256.256,0,0,0-.076.066h0l.123.142h.142c.057.076.189,0,.265-.047h0a.568.568,0,0,0,.237-.095.17.17,0,0,0,.095.057s-.1,0-.095.095h-.038l-.1.047h-.218a.644.644,0,0,1-.142,0h-.114l-.057.047a.161.161,0,0,0,.114.161h0a.208.208,0,0,0,.2,0c0,.076.18,0,.237,0h.256a.331.331,0,0,0,.189,0A.106.106,0,0,0,47,9.048l.066.057h0s-.057,0-.066.047h0a.265.265,0,0,0-.227.114.265.265,0,0,0-.2.066h-.085a.152.152,0,0,0-.1.066h0v.047h0v.114h0a.133.133,0,0,0,.133,0h.6l.085-.066a.1.1,0,0,0,.047,0c.123,0,.1-.076.189-.161h0c0,.123.189.047.256,0s0,0,.066,0a.691.691,0,0,0,.275.066c.085,0,.095-.1.17-.142s.151,0,.18-.114,0-.066,0-.095V8.916l.076-.057a1.534,1.534,0,0,0,.095-.17V8.6a.947.947,0,0,0,.095-.17.085.085,0,0,1,0-.047c0-.066.057-.123.076-.18V9.285a.948.948,0,0,1,.009-.151V9h0s0-.066-.057-.076a.176.176,0,0,0-.076,0c-.019,0,0,.085-.066.114h0a.17.17,0,0,0-.085.114h0V9.086l.133-.17V8.887a1.429,1.429,0,0,1,.085-.17.843.843,0,0,1,0-.133h0a.123.123,0,0,0-.047-.066h0l-.095.085h0c-.066,0-.076.095-.114.133s0,0-.047,0a.275.275,0,0,1-.142.114l-.095.142c-.057,0-.161.142-.18.17h0a.256.256,0,0,0,.066-.189.862.862,0,0,0-.227-.237V8.679c0-.057.076-.085.1-.142s0-.066,0-.1.085-.133.1-.17,0,0,0-.076v-.1a.71.71,0,0,0,0-.2h0s0-.095-.085-.095h0s-.057.066-.085.095a.294.294,0,0,0-.085.066h0a.436.436,0,0,0,0-.312s-.066-.1-.133-.114h-.1a1.254,1.254,0,0,1-.076.133.142.142,0,0,0-.076,0V7.77h0a.388.388,0,0,0-.095.133c-.076,0-.114.085-.133.142a.057.057,0,0,0-.047,0h0a.426.426,0,0,0,.066-.237c.095-.076.1-.142.161-.218a.587.587,0,0,0,.133-.218h0a.663.663,0,0,0,.085-.227h0c0-.057.047-.1,0-.17h0V6.9c0-.076,0,0-.057,0h-.057a.331.331,0,0,1,0,.076h0l-.057.151h0a1,1,0,0,0-.057.18c-.066,0-.1.133-.123.189s-.114.1-.133.17h0a.615.615,0,0,0,.085-.275.625.625,0,0,0,.18-.208.123.123,0,0,0,0-.057.947.947,0,0,0,.123-.17V6.87a.606.606,0,0,0,.057-.151V6.653a.237.237,0,0,0,0-.189c-.057-.057-.085,0-.142,0h0a.116.116,0,0,1-.076.1l-.066.066v.085h0a.26.26,0,0,1-.095.18c-.047.028-.066.1-.123.123h0c0-.085.066-.161.095-.256h0c0-.066.095-.095.133-.161s0,0,0-.047.085-.114.095-.161a.188.188,0,0,0,0-.076V6.16c0-.085,0-.123-.095-.151a.1.1,0,0,1-.076,0l-.085.123a.767.767,0,0,1-.095.085.577.577,0,0,1-.066.133l-.076.057-.057.085a.161.161,0,0,0-.095,0h0a.843.843,0,0,1,.076-.294h0l-.492-.4h0a.445.445,0,0,0,.057-.294h0c0-.114-.1-.17-.161-.066h0a.445.445,0,0,0,0,.095h0a.757.757,0,0,1-.151.284.133.133,0,0,0-.142.076.407.407,0,0,1,.057-.227.342.342,0,0,1,.057-.227.543.543,0,0,0,.142-.218c.019-.085,0-.066,0-.095s.066-.294-.076-.369-.218.237-.312.388V5.2h-.076V4.948a.947.947,0,0,0,.114-.388c0-.047-.047-.189-.095-.208s-.123.076-.133.095a.407.407,0,0,0,0,.1.946.946,0,0,1-.076.1v.066h0a.947.947,0,0,1,0-.218V4.428c0-.1.1-.237,0-.36h-.057c-.114.095-.123.208-.2.312h0c0-.1.133-.436,0-.53h0a1.031,1.031,0,0,1-.076.142h0s.123-.369,0-.454-.047,0-.066,0l-.085.114Z" transform="translate(-439.841 30.88)" fill="#fff" fill-rule="evenodd"/>
    <path id="Path_12" data-name="Path 12" d="M48.736,3.823c0-.076,0-.246-.066-.312h0s0,.123-.066.1,0-.275-.066-.284a.3.3,0,0,0,0,.085h0V3.2h0l-.047.066h0V3.1h0a.948.948,0,0,0-.095-.161h0A.407.407,0,0,0,48.31,2.8h0v.057a.682.682,0,0,0,.123.3h0a.393.393,0,0,1,.066.1h0s0,.095.066.123h-.009a.576.576,0,0,0,.133.123h-.057s.151.123.2.151H48.7c-.028,0,.142.151.218.189h0a.133.133,0,0,0-.142,0s0,.085.057.114a1.468,1.468,0,0,0,.218.066h-.2a.2.2,0,0,0,.066.123,1.174,1.174,0,0,0,.312.085h0c0,.057-.17,0-.208,0a.275.275,0,0,0-.095,0,.18.18,0,0,0,.057.161h0c.085.076.18.066.275.1s-.294.379-.294.379h0a.284.284,0,0,1-.189,0h-.047a.417.417,0,0,0-.142,0,.151.151,0,0,0,.085.17.634.634,0,0,0,.227,0h.246l-.095.095h-.322a.132.132,0,0,1,0,.066.767.767,0,0,0,.076.114h.436c0,.076-.151.076-.208.085a.454.454,0,0,0-.066.417.142.142,0,0,0,0,.1h.606c.028,0-.066.095-.1.1h-.284a.559.559,0,0,0-.161,0h0a.1.1,0,0,1,0,.076h.265a.237.237,0,0,0,.208,0c.066.076.237,0,.322.085a.436.436,0,0,0-.133.085h-.436a.068.068,0,0,0-.066.057.1.1,0,0,0,.085.1c.028,0,.095.057.133.057h0a.2.2,0,0,0,.18,0h.35c.038,0,0,0,0,.066a.227.227,0,0,0-.114,0h-.246c-.028,0-.123,0-.1.1h.076a.246.246,0,0,0,.142,0V7.723h.2c0,.057.151,0,.2,0h0a.114.114,0,0,0-.047.066.331.331,0,0,0-.161,0h0a.194.194,0,0,0-.123.047h0a.161.161,0,0,0-.1,0h-.057l.095.1h.379a.672.672,0,0,0,.17-.076l.076.047c.076.047-.085,0-.076.066h-.473a.133.133,0,0,0,.085.123h0a.133.133,0,0,0,.142,0c0,.057.142,0,.189,0h.2a.218.218,0,0,0,.151,0h.066V8.67h0a.227.227,0,0,0-.17.085.237.237,0,0,0-.151,0h-.189V8.8h0a.085.085,0,0,0,.1,0h0a.284.284,0,0,0,.123,0c0,.066.123,0,.18,0h.142l.066-.047h0c.095,0,.085-.057.142-.123h0c0,.085.142,0,.2,0h0a.511.511,0,0,0,.208,0c.066,0,.066-.076.123-.1s.123,0,.142-.095a.161.161,0,0,0,0-.066v-.1l.057-.047.076-.123V8.036a.947.947,0,0,0,.076-.133h0l.085.208V7.894h0V7.837c0-.009,0,0-.057,0s0,.066,0,.085h0a.142.142,0,0,0-.066.085h0l.095-.123h0s.047-.085.066-.133,0-.057,0-.095h0l-.066.057h0c-.057,0-.066.076-.085.1h0a.294.294,0,0,1-.1.085.786.786,0,0,0-.076.114c-.047,0-.123.1-.133.123h0a.2.2,0,0,0,0-.142.578.578,0,0,0,.114-.151h0a.417.417,0,0,0,.076-.1V7.667c0-.076.066-.1.076-.133s0,0,0-.057V7.4a.833.833,0,0,0,0-.151h0a.065.065,0,0,0-.066-.066h0a.083.083,0,0,1-.066.076l-.066.057h0a.341.341,0,0,0,0-.237,4.482,4.482,0,0,0-.492-.3h-.095s0,.076-.057.095h0a.341.341,0,0,0,0,.085h0a.322.322,0,0,0-.066.1c-.057,0-.085.057-.1.1h0a.284.284,0,0,0,0-.18.492.492,0,0,0,.047-.208h0a.36.36,0,0,0,.1-.17h0a.341.341,0,0,0,.076-.189h0V6.294h0a.1.1,0,0,0,0-.057h0a.2.2,0,0,1,0,.057h0v.114h0a.36.36,0,0,0,0,.142c-.057,0-.085.095-.095.142s-.085.076-.1.123h0V6.777a.549.549,0,0,0,.066-.2.947.947,0,0,0,.133-.161h0a.54.54,0,0,0,.095-.123.208.208,0,0,1,0-.076A.334.334,0,0,0,51,6.1h0V5.962c0-.038-.066,0-.1,0h0l-.057.085-.047.047v.066h0s0,.114-.076.133,0,.076-.085.085h0A.225.225,0,0,1,50.7,6.19h0a.8.8,0,0,0,.095-.114h0a.571.571,0,0,0,.076-.123c.009-.038,0,0,0-.057V5.811h0c0-.066,0-.095-.076-.114h-.057l-.057.095a.083.083,0,0,0-.076.066l-.057.1L49.91,5.83h-.076a.672.672,0,0,1,.057-.227h0a1.036,1.036,0,0,0,.076-.133h0a.341.341,0,0,0,0-.218h0s-.085-.123-.123,0h0v.076h0a.89.89,0,0,1-.114.208.133.133,0,0,0-.114.066.256.256,0,0,1,0-.17c0-.057,0-.123,0-.18s.095-.1.1-.161a.188.188,0,0,0,0-.076.208.208,0,0,0-.057-.284c-.123,0-.161.189-.237.3H49.37v-.2a.757.757,0,0,0,.085-.294s0-.142-.076-.151-.085.057-.095.076,0,0,0,.076l-.057.076h0a1.1,1.1,0,0,1,0-.17h0c0-.085.076-.18,0-.275h0c-.085.066-.095.151-.151.227h0c0-.085.1-.331,0-.407h-.114a.71.71,0,0,1-.066.114h0c0-.076.095-.284,0-.35s0,0-.047,0a.578.578,0,0,0-.066.095Z" transform="translate(-440.07 30.851)" fill="#fff" fill-rule="evenodd"/>
    <path id="Path_13" data-name="Path 13" d="M57.188,6.745c.076,0,.208.085.284,0h0s-.095-.076-.066-.095.227.095.256,0,0,0-.066-.057h.2a.095.095,0,0,0-.076-.151h.151l.161-.076h0a.294.294,0,0,0,.133-.066h0a.473.473,0,0,0-.284.076h-.114a.246.246,0,0,0-.114,0l-.047.057h0V6.347c0-.019-.1.076-.133.133h0V6.414h0c-.1,0-.142.133-.18.18h0V6.451c0-.028-.151.123-.2.208h0V6.612a.208.208,0,0,0,0-.151H56.98a1.26,1.26,0,0,0-.1.227h0a.255.255,0,0,1,0-.085s0-.076,0-.142h0a.151.151,0,0,0-.123.057,1.231,1.231,0,0,0-.142.322h0c-.047,0,0-.18,0-.218a.454.454,0,0,0,0-.114.123.123,0,0,0-.151,0h0a.994.994,0,0,0-.142.284v.076h0a.4.4,0,0,1,0-.208V6.593a.814.814,0,0,0,0-.151h-.17a1.269,1.269,0,0,0-.085.246h0v.1l-.237.17-.057-.123q.023-.115.057-.227a.275.275,0,0,0,0-.1h-.057l-.114.066a.178.178,0,0,1-.057.133h0a.625.625,0,0,0,0,.142h0v.18h0a.35.35,0,0,1,0-.256.606.606,0,0,0,0-.256.114.114,0,0,0-.1,0h0a.341.341,0,0,0,0,.085v.341a.3.3,0,0,0,0,.085s0,.123,0,.151-.066-.095-.076-.142a.382.382,0,0,1,0-.1v-.4H54.83a.174.174,0,0,1-.057.123h0v.066a.294.294,0,0,0,0,.095h0a.388.388,0,0,0,0,.237c-.076.057-.076.265-.142.341a.644.644,0,0,0,0-.161h-.047a.218.218,0,0,0,0-.114h0V6.982h0V6.849a.274.274,0,0,0,0-.085h0V6.688c0-.009-.1,0-.114.066s-.066.095-.076.133h0a.36.36,0,0,0,0,.2h0v.208h0s0,.151-.047.189,0,0-.057,0a.312.312,0,0,0,0-.133h0V7.162h0V7.048c0-.028,0-.151-.066-.142a.1.1,0,0,1,0-.047h0a.085.085,0,0,0-.047,0h0v.085h0a.284.284,0,0,0,0,.151h0v.151a.161.161,0,0,1,0,.066c-.047,0,0,.17,0,.227h0a.085.085,0,0,0,0-.066.388.388,0,0,0,0-.18h0a.322.322,0,0,0,0-.133h0a.189.189,0,0,0,0-.123h0a.227.227,0,0,0,0-.066h0l-.966-.009a.18.18,0,0,0,0,.066h0v.133h0v.227h0a.417.417,0,0,0,0,.208l-.057.066c-.057.066,0-.095-.047-.095a.265.265,0,0,0,0-.085V7.389a.559.559,0,0,1,0-.133s0,0,0-.057V7.086h0a.208.208,0,0,0,0-.1h0l-.123-.019a.123.123,0,0,0-.133.066h0a.18.18,0,0,0-.047.151c-.057,0,0,.151-.057.2h0V7.6h0a.341.341,0,0,0,0,.17v.076h0a.114.114,0,0,0,0-.066h0a.275.275,0,0,0,0-.208.388.388,0,0,0,0-.18h0V7.313h0a.114.114,0,0,0,0-.1h0a.151.151,0,0,0,0,.114h0a.322.322,0,0,0,0,.133c-.066,0-.057.133,0,.208s0,.114,0,.161V7.9h0a.261.261,0,0,0,.085.18h0c-.076,0-.057.151,0,.218s0,0,0,.057a.871.871,0,0,0-.085.218c0,.076.057.095.066.161s0,.133.057.17h.057a.076.076,0,0,0,.085,0,.227.227,0,0,1,0,.076l.1.1h.047a.52.52,0,0,0,.1.1h0l.114.095h0l.085.057h.114V9.263c0-.076-.057,0-.066-.066h0a.161.161,0,0,0-.057-.095h0l.095.133h0a.947.947,0,0,1,.095.1.17.17,0,0,1,.095,0h0a.341.341,0,0,1,0-.085h0a.2.2,0,0,0-.076-.114.047.047,0,0,0,0-.047.227.227,0,0,1-.047-.133l-.076-.095a1.707,1.707,0,0,0-.095-.17h0a.142.142,0,0,0,.114.085.549.549,0,0,0,.1.142h0a.116.116,0,0,0,.076.1c.076.028,0,0,.066,0s.076.085.095.1h0a.075.075,0,0,1,.066.047H54.1a.083.083,0,0,0,.076-.057l-.246-.265h0V8.79q0-.043,0-.085h0a.275.275,0,0,0,.208.057s.076,0,.085-.095,0,0,0-.057-.057-.057-.076-.085,0-.047,0-.066L54.082,8.4h0a.256.256,0,0,0-.076-.095c0-.066,0-.1-.076-.133h0c0,.047.085.095.142.085a.473.473,0,0,0,.114.161h0a.483.483,0,0,0,.133.142h0a.369.369,0,0,0,.142.1h0a.2.2,0,0,0,.1.057h.047l-.047-.047h0L54.48,8.61h0l-.114-.076c0-.057-.066-.1-.1-.123s.076-.5.038-.5h0s.123.114.161.1a.653.653,0,0,0,.114.18h0a.237.237,0,0,0,.085.123h.057c.057,0,.066.066.095.066h.17c.038,0,0-.085,0-.123h0a.521.521,0,0,0-.057-.076V8.118h0s-.047-.208-.1-.208-.066-.066-.066-.114h0l.161.1h0a.157.157,0,0,0,.076.133h0a.586.586,0,0,0,.085.1c.028.019,0,0,.057,0H55.2c.057,0,.085,0,.114-.057a.1.1,0,0,1,0-.066l.047-.1V7.815a.322.322,0,0,1-.085-.076.18.18,0,0,0,0-.066V7.616a.265.265,0,0,0,0-.085h0c.057,0,.142.076.189.1h0l.1.1h0a.256.256,0,0,0,.18.076h0a.076.076,0,0,0,.076-.1h0V7.626h0a.605.605,0,0,1-.161-.161.161.161,0,0,0,0-.133c.057,0,.095.047.142.076a1.127,1.127,0,0,1,.142.085.551.551,0,0,0,.114.142h.076a.17.17,0,0,0,.256,0c0-.142-.133-.218-.218-.312h0V7.256h0l.17.076a.53.53,0,0,0,.237.151h.151c.019,0,0-.114,0-.123h-.057a.083.083,0,0,0-.057-.076h0l.142.066h0c.066,0,.142.133.246,0h0c-.237-.341-.237-.388-.341-.388h0c.085,0,.275.17.35.095h0l-.085-.085h0c.066,0,.227.151.3.057a.142.142,0,0,0,0-.066l-.066-.085Z" transform="translate(-440.303 30.665)" fill="#fff" fill-rule="evenodd"/>
    <path id="Path_14" data-name="Path 14" d="M54.361,13.971c0,.066,0,.246.085.284h0s.047-.123.066-.1,0,.275.095.256,0-.057,0-.085h0s0,.18.047.208h0l.047-.066h0s0,.1.057.142h0l.1.142h0a.294.294,0,0,0,.095.114h0a.133.133,0,0,0,0-.057.672.672,0,0,0-.133-.275h0l-.076-.085h0a.341.341,0,0,0-.066-.095h.009a.519.519,0,0,0-.151-.095h.246c0-.114-.151-.095-.208-.114h0s.1,0,.123-.057-.142-.114-.227-.133h0a.123.123,0,0,0,.133-.047s0-.085-.066-.1a1.439,1.439,0,0,0-.218,0h.208a.208.208,0,0,0-.085-.114,1.676,1.676,0,0,0-.312,0h0c0-.066.17,0,.218,0l.095-.047a.142.142,0,0,0-.076-.142h0a.71.71,0,0,0-.284,0H54.01a.521.521,0,0,1,.18-.085h.057a.861.861,0,0,0,.133-.066c0-.066,0-.142-.085-.151a.947.947,0,0,0-.237,0h0a.2.2,0,0,0-.1,0H53.8a.521.521,0,0,1,.095-.1,2.253,2.253,0,0,1,.246-.047.1.1,0,0,0,.085-.066.18.18,0,0,1,0-.066l-.095-.095a.312.312,0,0,0-.133,0h-.275s-.076.047-.1,0h0c.047-.095.151-.1.218-.123a.748.748,0,0,0,.218-.133.1.1,0,0,0,0-.095H54l-.161-.587h-.085l-.151.047h-.312c-.038,0,.076-.1.114-.123h.18v-.047a.634.634,0,0,0,.17-.066h0a.1.1,0,0,1,0-.076h-.331a.275.275,0,0,0-.208.066c-.076-.057-.256,0-.341,0a.634.634,0,0,0,.133-.1.085.085,0,0,1,0-.047.426.426,0,0,0,.1,0h.256l.076-.057h0a.059.059,0,0,0,.057-.066.083.083,0,0,0-.085-.085h-.142a.246.246,0,0,0-.18,0h0a.234.234,0,0,0-.189.066h-.18a2.221,2.221,0,0,1,.17-.454.246.246,0,0,0,.114-.047h.246s.123-.057.1-.123h0V10.7h-.085a.218.218,0,0,0-.151,0h-.2s-.151.057-.2.066h0a.18.18,0,0,0,.057-.066.35.35,0,0,0,.151-.066v-.057a.312.312,0,0,0,.123-.066h0a.161.161,0,0,0,.1-.057h0V10.4h0l-.019-.417h-.218a.7.7,0,0,0-.2.085h0a.492.492,0,0,0-.18.1h-.076c-.076,0,.085,0,.066-.076h.085l.076-.047h.237a.1.1,0,0,0,.085-.057h0V9.947a.123.123,0,0,0-.095-.1h0a.18.18,0,0,0-.151,0c0-.047-.142,0-.18,0h0a.243.243,0,0,0-.2.066h0a.549.549,0,0,0-.151.047L52.174,10h0a.265.265,0,0,0,.17-.123.218.218,0,0,0,.151-.076h.066a.1.1,0,0,0,.085-.066h.047a.123.123,0,0,0-.114,0h0a.208.208,0,0,0-.123,0c0-.047-.123,0-.18,0h-.151L52.06,9.8h0c-.095.057-.076.076-.142.151h0c0-.076-.142,0-.2,0h0a.559.559,0,0,0-.218,0c-.066,0-.066.085-.123.133s-.114,0-.142.114v.17l-.057.047a.947.947,0,0,0-.066.142v.057a.625.625,0,0,0-.066.142h0a.207.207,0,0,1-.057.142h0v.161h0l.047.047c.047.047,0,0,.057-.047s0-.057,0-.085h0a.189.189,0,0,0,.066-.095h0v.047l-.095.142h0L51,11.206v.085h0a.066.066,0,0,0,.047,0h0l.066-.076h0L51.2,11.1h0a.256.256,0,0,1,.095-.1l.076-.114s.114-.133.123-.151h0a.218.218,0,0,0,0,.151.587.587,0,0,0-.1.161v.047a.55.55,0,0,0-.076.114c-.019.047,0,.047,0,.076l-.076.142v.133a.644.644,0,0,0,0,.142h0s0,.066.066,0h0a.293.293,0,0,0,.066-.085l.066-.057h0a.341.341,0,0,0,0,.237.2.2,0,0,0,.114.057h0a.568.568,0,0,0,.057-.1h.057v-.095h0a.237.237,0,0,0,.066-.114c.057,0,.085-.076.1-.123h0a.256.256,0,0,0,0,.18.8.8,0,0,0-.114.18h0s-.1.151-.095.18h0a.606.606,0,0,0-.057.17h0v.133h.047a.406.406,0,0,1,0-.066h0v-.123h0a1.071,1.071,0,0,0,0-.142c.047,0,.076-.114.085-.161s.085-.095.095-.142h0a.4.4,0,0,0-.057.2.814.814,0,0,0-.123.189.1.1,0,0,0,0,.047.293.293,0,0,0-.085.133v.18h0V12.5c0,.028.066,0,.1-.047h0a.881.881,0,0,0,0-.095l.057-.057v-.066h0s0-.123.066-.142,0-.095.085-.114h0a1.571,1.571,0,0,1-.057.2h0a1.147,1.147,0,0,1-.095.133h0s-.057.1-.066.133,0,0,0,.057a.3.3,0,0,0,0,.085h0c0,.047,0,.085.076.085h.057l.057-.1.066-.076s0-.085.057-.114h.057V12.3h.066a.748.748,0,0,1-.047.237h0a1.032,1.032,0,0,0-.076.142h0a.426.426,0,0,0,0,.218h0c0,.085.095.1.133,0h0a.341.341,0,0,1,0-.085h0a.549.549,0,0,1,.1-.227.151.151,0,0,0,.1-.085c0,.057,0,.123,0,.17v.18c0,.047-.085.114-.095.18s0,0,0,.076,0,.218.076.256.161-.218.227-.341h.057v.189a.947.947,0,0,0-.066.3s.047.133.085.133.095-.066.095-.085v-.076a.881.881,0,0,1,.047-.095s0,0,0-.047h0a.492.492,0,0,1,0,.17h0c0,.085-.076.189,0,.265h0a1.1,1.1,0,0,0,.133-.256h0c0,.076-.085.341,0,.388h0a.473.473,0,0,1,.047-.123h0c0,.066-.076.284,0,.331h.057l.057-.1Z" transform="translate(-440.212 31.021)" fill="#fff" fill-rule="evenodd"/>
    <path id="Path_15" data-name="Path 15" d="M52.054,15.177c.047.057,0,.218.114.256h0s0-.1.085-.085,0,.237.114.227,0-.047,0-.076h0s0,.161.066.189h0v-.057h0a.157.157,0,0,0,.076.133h0l.133.123s.076.095.123.1h0v-.047c0-.066-.1-.18-.18-.246h0a.618.618,0,0,1-.095-.085h0a.3.3,0,0,0-.095-.095H52.31s.076,0,.095-.047a.341.341,0,0,0-.2-.085h.085c0-.1-.208-.085-.275-.114h.161a.731.731,0,0,0-.3-.123c-.114-.009,0,0-.057,0h0a.246.246,0,0,0,.18,0,.342.342,0,0,0-.085-.085,1.382,1.382,0,0,0-.294,0h.265a.189.189,0,0,0-.1-.1,2.841,2.841,0,0,0-.407,0h0c.047-.057.218,0,.275,0h.123a.114.114,0,0,0-.095-.133h0a2.31,2.31,0,0,0-.369,0h-.1a.559.559,0,0,1,.237-.066h.076a.947.947,0,0,0,.17-.057c.047-.057,0-.123-.114-.142h-.454a.7.7,0,0,1-.2,0l.114-.095h.312a.426.426,0,0,0,.114-.057v-.066l.312-.663a.5.5,0,0,0-.17,0h-.549a.436.436,0,0,1,.275-.095.947.947,0,0,0,.284-.1v-.095h-.966c-.038,0,.076-.085.133-.1h.36a1.06,1.06,0,0,0,.218-.057h0a.066.066,0,0,1,0-.057H51.3a.947.947,0,0,0-.151,0h-.189a.426.426,0,0,0-.275.047c-.095-.057-.322,0-.436,0a1.43,1.43,0,0,0,.17-.085h0a.322.322,0,0,0,.133,0h.17a.947.947,0,0,0,.161,0l.085-.047h0s.076,0,.085-.057-.085-.076-.123-.076h-.18a.417.417,0,0,0-.237,0h0a.312.312,0,0,0-.237.047h-.227c-.047,0,0,0,0-.066a.4.4,0,0,0,.151,0h.312c.038,0,.161-.047.133-.114h-.057a.436.436,0,0,0-.189,0h-.256a.608.608,0,0,0-.256.047h0a.1.1,0,0,0,.066-.057.53.53,0,0,0,.2-.057h0A.492.492,0,0,0,50.3,12.7h0a.312.312,0,0,0,.133-.057h0l.076-.047h0l-.133-.076h-.085a.057.057,0,0,0-.047,0,.445.445,0,0,1-.151,0h0a1.458,1.458,0,0,0-.256.066h0a.559.559,0,0,0-.227.085h-.095c-.095,0,.1,0,.085-.066h.511a.284.284,0,0,0,.1,0h0a.1.1,0,0,0,.047,0c0-.047-.076-.085-.123-.095h0a.265.265,0,0,0-.189,0H49.46a.492.492,0,0,0-.2,0h-.085a.312.312,0,0,0,.218-.095.379.379,0,0,0,.2-.066h.2a.189.189,0,0,0-.142,0h0a.473.473,0,0,0-.161,0c0-.047-.161,0-.237,0h-.275C48.93,11,48.93,11,48.93,11.058h0c0-.066-.189,0-.256,0h-.066a.881.881,0,0,0-.275,0c-.085,0-.085.076-.161.1s-.151,0-.18.095a.142.142,0,0,1,0,.066s0,0,0,.085h-.076l-.085.123h0a.947.947,0,0,0-.085.123h0a.511.511,0,0,1-.066.123h0v.1H47.8c.019,0,0-.057.066-.085h0a.142.142,0,0,0,.076-.095h0l-.114.123h0a.749.749,0,0,0-.076.123.142.142,0,0,1,0,.076h0l.085-.066h0c.066,0,.076-.066.1-.095h0a.322.322,0,0,1,.133-.085l.085-.1c.057,0,.142-.1.161-.123h0a.17.17,0,0,0-.057.133.549.549,0,0,0-.123.142h0l-.095.095V12l-.085.114v.123a.473.473,0,0,0,0,.123h0c.057,0,0,.057.095.047h0s.057,0,.085-.076h.085a.161.161,0,0,0,0,.2.189.189,0,0,0,.133.057h.568a.1.1,0,0,1,.076-.095c.076-.019.047,0,.066,0V12.4h.047a.18.18,0,0,0,.076-.095c.076,0,.1-.066.123-.1h.057a.161.161,0,0,0,0,.151c-.085.057-.095.1-.142.161h0s-.123.133-.114.161h0a.454.454,0,0,0-.076.151h0v.114h.114v-.057H49.2c.047,0,0-.066,0-.1h0a.653.653,0,0,0,0-.123c.066,0,.095-.095.1-.133a.161.161,0,0,0,.123-.123h0a.227.227,0,0,0-.066.18.88.88,0,0,0-.17.151h0a.3.3,0,0,0-.1.123v.057c0,.057-.057.076,0,.1h0s0,.095.057.114.085,0,.133,0h0s0-.047.066-.076l.066-.047v-.066h0a.126.126,0,0,1,.095-.123c.095-.019,0-.076.1-.095h0a1.268,1.268,0,0,1-.066.17h0c0,.047-.085.076-.123.114h0a.7.7,0,0,0-.085.114h0l.54.72h0c0,.057,0,.076.114.085h.066l.076-.085.085-.066.057-.095h.076a.17.17,0,0,0,.047-.066.161.161,0,0,0,.095,0h0a.578.578,0,0,1-.057.2h0a.36.36,0,0,0-.085.123h0c-.057.057,0,.123,0,.189h0a.095.095,0,0,0,.17,0h0l.047-.066h0a.578.578,0,0,1,.133-.189.17.17,0,0,0,.133-.076v.151a1.456,1.456,0,0,0-.047.161c0,.057-.114.095-.123.151s0,0,0,.066a.151.151,0,0,0,.1.227c.161-.047.2-.18.284-.284h.066v.18a.549.549,0,0,0-.085.265s.066.114.114.114a.2.2,0,0,0,.123-.076.237.237,0,0,1,0-.066.711.711,0,0,0,.066-.076c.019-.028,0,0,0-.047h0a.426.426,0,0,1,0,.151h0c0,.076-.1.17,0,.237h.057c.1-.066.114-.142.17-.218h0c.057.066-.1.294,0,.35h0a.578.578,0,0,1,.066-.095h0c0,.066-.095.256,0,.294s.047,0,.066,0l.076-.085Z" transform="translate(-440.036 31.022)" fill="#fff" fill-rule="evenodd"/>
    <path id="Path_16" data-name="Path 16" d="M49.219,25.415c.123.114,0,.436.294.492h.066c0-.047.076-.237.142-.2s0,.483.294.445A.256.256,0,0,1,50.062,26h0c0,.066,0,.312.17.35h.142c.057,0,.057-.076.095-.123h0c.066.076.066.189.18.256h.076l.3.246.114.057c.066.066.189.189.284.2h0a.4.4,0,0,1,0-.095c0-.142-.275-.36-.436-.473h.057c.057,0-.18-.1-.218-.151h.057a.947.947,0,0,0-.208-.18H50.5c.085,0,.17,0,.189-.085a.625.625,0,0,0-.426-.151h.161v-.057c0-.2-.436-.151-.587-.189h0c.085-.066.275,0,.322-.114-.142-.189-.417-.189-.644-.208a.644.644,0,0,1-.133,0h0l.095-.057a.549.549,0,0,0,.36-.1c0-.066-.114-.142-.2-.17a4.062,4.062,0,0,0-.606,0h0a.634.634,0,0,1,.17-.066.7.7,0,0,0,.36-.066.133.133,0,0,0,0-.057.436.436,0,0,0-.237-.189,4.251,4.251,0,0,0-.852,0h0c.066-.114.445-.076.549-.085a1.373,1.373,0,0,0,.237-.095.256.256,0,0,0-.208-.246h-.114a2.983,2.983,0,0,0-.776-.047h-.2a1.146,1.146,0,0,1,.473-.17h.151a1.837,1.837,0,0,0,.341-.142c.076-.114-.123-.246-.275-.265a3.475,3.475,0,0,0-.625.047h-.265a2.1,2.1,0,0,1-.407,0,2.159,2.159,0,0,1,.218-.208c.189-.057.454-.047.644-.095s.133-.085.208-.123,0-.085,0-.123a1.8,1.8,0,0,0-.265-.161,1.43,1.43,0,0,0-.35,0h0a2.177,2.177,0,0,0-.35,0l-.123.047H47.25a.663.663,0,0,0-.114,0h-.2a.947.947,0,0,1-.265.066c.1-.17.379-.2.54-.246a1.685,1.685,0,0,0,.549-.246c0-.085,0-.1-.123-.17s0,0,0-.047H47.5a.559.559,0,0,0-.218,0,1.979,1.979,0,0,0-.237,0,2.461,2.461,0,0,0-.379.095,1.122,1.122,0,0,1-.256,0,1.534,1.534,0,0,0-.208,0c-.1,0-.275.085-.369.047.085-.047.151-.2.246-.237l.246-.047.114-.057h.237c.066,0,.076-.057.133-.076a2.547,2.547,0,0,0,.426-.151h0v-.047a.161.161,0,0,0,.076-.057.2.2,0,0,1,0-.114.265.265,0,0,0-.133-.057v-.047a1.837,1.837,0,0,0-.322,0h-.18l-.208.057a.947.947,0,0,0-.549.123c-.208-.085-.663.066-.947,0a1.392,1.392,0,0,0,.331-.2v-.71a.776.776,0,0,0,.284-.066h0l.331-.057H46a1.837,1.837,0,0,0,.312-.066l.17-.095v-.057c0-.047.142-.076.151-.133s-.18-.151-.265-.133-.265-.057-.369,0h0a.947.947,0,0,0-.483.057h0a.981.981,0,0,0-.473.142.436.436,0,0,1-.066-.066c-.133,0-.369.066-.464,0s0-.085,0-.133a.767.767,0,0,0,.294-.095l.066-.057.218-.047h.151a.436.436,0,0,1,.066-.066.332.332,0,0,0,.265-.085c.066-.085.322-.114.256-.227l.095-.057v-.085c0-.028-.076-.047-.114-.066a.133.133,0,0,1,0-.057h-.17a.776.776,0,0,0-.388,0h0l-.369.066-.189-.133c-.076-.076-.4.1-.521.133h-.047a.218.218,0,0,0,.1-.133,1.032,1.032,0,0,0,.407-.133l.066-.085a1.638,1.638,0,0,0,.3-.133v-.028a.54.54,0,0,0,.265-.114h0a.473.473,0,0,0,.133-.095l-.066-.047a.151.151,0,0,0,0-.066,1.335,1.335,0,0,0-.294-.133h-.265c-.1,0-.237.085-.322.057h0c-.142-.066-.369.1-.521.161h-.057a1.43,1.43,0,0,0-.445.2.407.407,0,0,0-.208,0c.076-.047.218-.095.17-.151l.2-.057a1.307,1.307,0,0,0,.208-.095l.331-.066s0-.057.085-.066a.461.461,0,0,0,.284-.076c.085-.076,0-.057.066-.076s.151,0,.218-.095l-.057-.047.095-.076c0-.114-.17-.17-.275-.18h0a.559.559,0,0,0-.388,0c-.066-.085-.379,0-.492.047a1.748,1.748,0,0,0-.5.142h0a.947.947,0,0,0-.388.095c-.076,0-.1.076-.161.095a.5.5,0,0,0-.133-.057h0c.047,0,.114-.047.114-.085h0a.748.748,0,0,0,.436-.227.767.767,0,0,0,.379-.151V17.67h.1l.161-.085v-.057c0-.057.2-.066.2-.123h-.057a.369.369,0,0,0,.095-.076h0c-.066,0,0,0,0-.066L43.747,17a.417.417,0,0,0-.284,0,.1.1,0,0,0,0-.047.947.947,0,0,0-.312.076c-.123-.095-.35,0-.483.095-.085-.057-.284,0-.388.076l-.161.1h-.1c-.237.1-.2.142-.341.275h0c-.1-.142-.4,0-.53.066s-.076.066-.114.066a1.969,1.969,0,0,0-.578,0c-.18,0-.161.161-.294.237s-.3.1-.35.218v.123c0,.076-.066.095,0,.18l-.142.1-.142.256v.1a.739.739,0,0,0-.133.256.133.133,0,0,1,0,.066c0,.085-.085.17-.1.256v.076a2.129,2.129,0,0,1-.047.208l.076.066a.1.1,0,0,0,.076.095h0a.275.275,0,0,0,.123.076s.114,0,.142-.076,0-.114.114-.17a.142.142,0,0,0,.076,0A.322.322,0,0,0,40,19.6h.066l.066.066s-.208.256-.208.265a.227.227,0,0,0,0,.076,1.647,1.647,0,0,1-.133.256.331.331,0,0,1,.095.151.1.1,0,0,0,.076,0,.331.331,0,0,0,.114.076h.142l.161-.142h.057c.057,0,.133-.142.18-.208s.066,0,.095-.057a.739.739,0,0,1,.246-.2l.161-.208c.123,0,.275-.246.3-.284h0a.312.312,0,0,0-.085.275,1.013,1.013,0,0,0-.218.3v.076c-.057.085-.133.133-.17.208s0,.095,0,.151a2.489,2.489,0,0,1-.151.246c0,.047,0,.057,0,.095s-.057.114-.047.151a1.183,1.183,0,0,0,.095.256h.066c.066,0,0,.114.208.085l.076-.057h.066c.066,0,.095-.114.151-.161a1.734,1.734,0,0,0,.151-.123h0a.379.379,0,0,0,.057.417c.085,0,.161.114.294.095h.133c.076-.057.066-.142.123-.2s.095,0,.133-.085a1.268,1.268,0,0,1,.066-.17l.076-.047a.559.559,0,0,0,.151-.2c.151,0,.189-.151.227-.237s.066,0,.1,0,0,0,0,.047a.331.331,0,0,0-.057.331.843.843,0,0,0-.256.331h0c-.066.057-.227.294-.208.341s0,0,0,.047a.615.615,0,0,0-.1.312.114.114,0,0,0,.047.047c0,.076-.076.161,0,.237l.076.057a.1.1,0,0,0,.057.085c.057.028.085,0,.133.047h.114l.047-.057h.085l.076-.114h.085l.057-.208.066-.047a.663.663,0,0,0,.076-.256c.133,0,.17-.208.189-.284a.36.36,0,0,0,.227-.275h.076c-.057.076-.133.3-.085.379a1.392,1.392,0,0,0-.3.331v.085a.577.577,0,0,0-.189.256s0,.076,0,.114-.095.161-.076.218.047,0,.057.076,0,.189.133.227.5-.123.634-.123h.076c.066-.066.066-.114.114-.17s.085-.057.123-.1l.057-.133.066-.047c.057-.076.066-.218.161-.265s.085-.161.2-.2l.019-.028h0a2.349,2.349,0,0,1-.095.369v.057c0,.085-.151.151-.218.246s0,0,0,.066-.133.18-.151.237.057.066.057.1-.057.095,0,.151l.066.057c.066.1.076.161.246.161a.2.2,0,0,1,.142-.066,2.027,2.027,0,0,0,.123-.18c.057-.066.123-.095.161-.151a1.253,1.253,0,0,1,.114-.189l.142-.1s.047-.085.076-.133a.454.454,0,0,0,.189,0h0a.959.959,0,0,1-.066.417c-.066.114,0,0,0,.057s0,0-.057,0a2.643,2.643,0,0,0-.151.265v.057a.454.454,0,0,0,0,.4h.076a.2.2,0,0,0,.36,0h.066l.076-.142s.057,0,.076-.076a.947.947,0,0,1,.218-.417.36.36,0,0,0,.256-.151c.076.095,0,.208,0,.312a.647.647,0,0,1-.057.322c-.057.1-.2.208-.218.322a.27.27,0,0,0,0,.133.312.312,0,0,0,.256.454c.322-.123.369-.388.521-.615a.341.341,0,0,0,0-.085.179.179,0,0,0,.142-.076h0v.35a.947.947,0,0,0-.114.549c0,.057.151.237.246.237s.227-.142.246-.17a.729.729,0,0,1,0-.142,1.032,1.032,0,0,1,.123-.161s0-.076.057-.095h0a.871.871,0,0,1,0,.312.237.237,0,0,0,0,.066c0,.151-.161.35.133.464h.114c.208-.161.208-.312.312-.473h0c.133.123-.142.606.1.7a.256.256,0,0,0,.085,0,.142.142,0,0,1,.076,0,1.62,1.62,0,0,1,.114-.218h0c.057.123-.142.521.151.6a.606.606,0,0,0,.133-.076l.133-.18Z" transform="translate(-439.588 31.133)" fill="#fff" fill-rule="evenodd"/>
    <path id="Path_17" data-name="Path 17" d="M45.5,34.868c.17.151,0,.578.379.653h.085c0-.057.1-.3.189-.265s0,.644.379.6c.057-.066,0-.133.066-.2h0c0,.095,0,.417.218.473H46.9c.076,0,.076-.095.123-.161h0c.085.1.076.256.227.341h.1l.388.331.142.076a.862.862,0,0,0,.369.275h0l.057-.133c0-.18-.35-.473-.559-.625h.066c.019,0-.218-.142-.275-.208l.076-.047h0c-.085-.085-.151-.2-.265-.246l-.246-.057h0c.114,0,.218,0,.246-.123a.833.833,0,0,0-.549-.2h0a1.383,1.383,0,0,0,.208,0,.293.293,0,0,0,0-.076c-.047-.265-.568-.2-.767-.256h0c.123-.085.369-.047.436-.142-.189-.265-.549-.256-.852-.294h-.161l.123-.085a.682.682,0,0,0,.483-.123c0-.095-.142-.189-.256-.227a6.948,6.948,0,0,0-.8,0h0a.881.881,0,0,1,.237-.095.947.947,0,0,0,.473-.076.293.293,0,0,0,0-.076.587.587,0,0,0-.3-.256,6.353,6.353,0,0,0-1.127,0h0c.095-.151.578-.095.729-.114a3.039,3.039,0,0,0,.312-.114.312.312,0,0,0-.275-.331h-.142a4.526,4.526,0,0,0-.776-.54,1.307,1.307,0,0,1-.275,0h0a1.8,1.8,0,0,1,.625-.208h.2a2.84,2.84,0,0,0,.454-.18c.1-.161-.161-.331-.35-.36a6.231,6.231,0,0,0-.833,0h-.4a2.235,2.235,0,0,1-.549,0,2.936,2.936,0,0,1,.275-.246c.256-.076.6-.066.852-.123.114,0,.18-.114.275-.161s0-.114.057-.161a2.765,2.765,0,0,0-.341-.218,1.468,1.468,0,0,0-.454,0h0a2.594,2.594,0,0,0-.464,0l-.161.047h-.1a.852.852,0,0,0-.151,0h-.265a1.165,1.165,0,0,1-.35.076h0c.142-.218.5-.256.71-.312a2.026,2.026,0,0,0,.729-.322c0-.114,0-.133-.151-.227v-.047a.4.4,0,0,0-.18,0h0a.71.71,0,0,0-.284,0h-.3c-.1,0-.35.1-.511.123a1.848,1.848,0,0,1-.331,0,1.344,1.344,0,0,0-.275,0c-.133,0-.36.1-.483.047.1-.066.2-.256.331-.3l.322-.066.151-.076h.312c.085,0,.095-.066.18-.1a3.466,3.466,0,0,0,.559-.18h0l-.066-.057c.047,0,.085,0,.1-.076a.369.369,0,0,1-.057-.161.454.454,0,0,0-.17-.076v-.057a3.332,3.332,0,0,0-.426,0v-.047h-.246l-.275.066a1.07,1.07,0,0,0-.72.151c-.275-.123-.881.076-1.2,0a1.969,1.969,0,0,0,.445-.256.464.464,0,0,1,0-.114,1.827,1.827,0,0,0,.369-.076l.047-.047.436-.066.114-.057a1.61,1.61,0,0,0,.417-.076l.227-.133V28.4c0-.057.189-.095.2-.161s-.237-.208-.341-.189c-.066-.17-.35-.076-.492-.057v-.047a1.146,1.146,0,0,0-.644.076v-.047c-.227-.066-.4.066-.625.17-.057,0-.047-.057-.085-.085s-.483.085-.615.047c.066-.066,0-.114.066-.18a1.089,1.089,0,0,0,.4-.123l.085-.076a.512.512,0,0,0,.284-.057l.208-.047.076-.085c.1-.047.275-.047.36-.114s.426-.142.341-.294l.133-.076v-.114c0-.047-.1-.066-.151-.085v-.066h-.3a1.06,1.06,0,0,0-.511.047h0l-.483.076-.2.085c-.095-.1-.521.133-.682.161h-.085A.294.294,0,0,0,39.236,27a1.6,1.6,0,0,0,.53-.18l.095-.114a1.95,1.95,0,0,0,.4-.161V26.47a.738.738,0,0,0,.36-.151h0a.663.663,0,0,0,.17-.133l-.237-.4L40.6,25.7a2.84,2.84,0,0,0-.379-.189h-.35a1.231,1.231,0,0,1-.426.076h0c-.18-.095-.473.133-.682.2H38.7a1.979,1.979,0,0,0-.6.265.776.776,0,0,0-.275-.066c.095-.047.284-.114.227-.189l.265-.066a2.253,2.253,0,0,0,.275-.123l.436-.085c.057,0,.076-.066.114-.095s.265-.047.379-.095.047-.066.085-.085.2,0,.284-.123l-.066-.066a.5.5,0,0,0,.133-.1c0-.142-.227-.218-.369-.227h0a.767.767,0,0,0-.521,0c-.076-.114-.492,0-.653.066v-.047c-.227-.047-.426.095-.672.18v-.047a1.572,1.572,0,0,0-.521.114c-.085,0-.133.1-.208.123l-.17-.066h0c.057,0,.142-.066.142-.114h0a.871.871,0,0,0,.578-.284.947.947,0,0,0,.5-.189.388.388,0,0,0,.047-.085h.133a1.165,1.165,0,0,0,.218-.1V24.2c0-.076.2-.218.2-.218h-.066l.133-.095h0c-.085,0,0-.047-.057-.095l-.133-.057v-.057a.615.615,0,0,0-.369,0,.133.133,0,0,0,0-.057,1.079,1.079,0,0,0-.407.085c-.151-.123-.464,0-.644.123-.114-.076-.369,0-.511.085l-.208.142h-.142c-.312.133-.265.189-.445.36h0c-.133-.189-.511,0-.691.076s-.114.085-.161.085a2.907,2.907,0,0,0-.757,0c-.227.057-.208.218-.388.312s-.4.133-.464.284a.947.947,0,0,0,0,.161c0,.1-.076.133,0,.237l-.189.133-.189.331v.142c0,.047-.17.218-.189.341v.076c0,.114-.114.237-.142.35a.947.947,0,0,1,0,.095,2.708,2.708,0,0,0-.066.265.445.445,0,0,0,.095.095.106.106,0,0,0,.085.123h0a.54.54,0,0,0,.151.1.189.189,0,0,0,.2-.1c.047-.1,0-.142.142-.218l.114.047a.369.369,0,0,0,.189-.237h.095l.085.1-.284.341v.085a2.339,2.339,0,0,1-.18.341.54.54,0,0,1,.123.208.161.161,0,0,0,.095,0,.445.445,0,0,0,.151.095l.085-.047h.095l.218-.18a.076.076,0,0,0,.076,0c.161-.066.17-.189.246-.275s.085,0,.123-.066a.767.767,0,0,1,.331-.256l.208-.284c.161,0,.369-.312.407-.369h0v.057a.407.407,0,0,0-.114.35,1.42,1.42,0,0,0-.3.407.388.388,0,0,0,0,.1,3.058,3.058,0,0,0-.237.275c0,.085,0,.114,0,.189s-.18.256-.2.331,0,.066,0,.123-.066.142-.066.2a1.4,1.4,0,0,0,.123.331H34.7c.028,0,0,.161.275.123l.114-.076a.076.076,0,0,0,.076,0c.1-.047.133-.142.2-.208l.208-.151h0a.492.492,0,0,0,.057.549c.123,0,.208.151.388.133a.615.615,0,0,1,.18,0c.095-.076.095-.189.161-.256s.123-.057.17-.114a2.31,2.31,0,0,0,.095-.227l.1-.047a.72.72,0,0,0,.2-.275c.208,0,.256-.189.312-.3a.18.18,0,0,0,.133,0v.057c0,.057-.161.3-.085.436-.227.161-.237.294-.35.436a.05.05,0,0,1,.047.057,1.041,1.041,0,0,0-.275.445v.057a1.117,1.117,0,0,0-.151.417l.057.066c0,.095-.095.2,0,.3l.1.076a.1.1,0,0,0,.076.114.972.972,0,0,0,.161.066h.161l.057-.085h.114l.1-.142a.139.139,0,0,0,.114-.066l.085-.275.085-.057a.947.947,0,0,0,.1-.341c.17-.047.227-.275.256-.369a.426.426,0,0,0,.3-.35h.1a.72.72,0,0,0-.133.492,1.77,1.77,0,0,0-.407.445.35.35,0,0,1,0,.1,1.117,1.117,0,0,0-.256.331v.151c0,.047-.133.218-.114.284s.066.066.076.1,0,.246.17.3.237-.085.369-.1h.511c.095-.085.095-.151.151-.218s.114-.085.161-.142l.085-.17.085-.066c.076-.1.095-.275.218-.341s.114-.208.275-.265,0,0,.057,0h.066a3.438,3.438,0,0,1-.142.483v.047c-.066.123-.208.208-.294.322s0,.047,0,.095-.17.227-.2.312.076.085.066.133-.076.123-.066.2l.085.085c.085.123.1.2.322.208a.341.341,0,0,1,.189-.085l.17-.237c.066-.085.161-.123.218-.2s.085-.189.142-.256a1.3,1.3,0,0,0,.189-.123l.114-.17a.587.587,0,0,0,.246-.057h0s-.057.407-.095.549,0,.047,0,.066l-.076.076a1.648,1.648,0,0,0-.208.341.189.189,0,0,1,.057.085c-.133.161-.066.341,0,.511l.076.038a.256.256,0,0,0,.464.047h.095a1.212,1.212,0,0,1,.1-.189s.066,0,.095-.095a1.307,1.307,0,0,1,.294-.549.473.473,0,0,0,.35-.2c.1.133,0,.275-.057.407a3.533,3.533,0,0,1-.085.436c0,.142-.256.275-.294.417s.066.114,0,.17a.417.417,0,0,0,.331.606c.426-.161.492-.511.7-.8l.057-.1c0-.047.123-.057.18-.095h0a1.579,1.579,0,0,1-.047.464,1.335,1.335,0,0,0-.151.72.511.511,0,0,0,.312.312.641.641,0,0,0,.322-.227.572.572,0,0,0,0-.18,1.174,1.174,0,0,1,.161-.218.134.134,0,0,1,.085-.123h.047a1.193,1.193,0,0,1,0,.407v.085c0,.2-.208.454.17.625h.151c.265-.208.275-.407.426-.625h0c.17.17-.208.8.114.947h.114a.123.123,0,0,1,.095-.057,3.011,3.011,0,0,1,.161-.284h0c.076.17-.2.691.189.786a.159.159,0,0,0,.17-.095,2.224,2.224,0,0,1,.18-.237Z" transform="translate(-439.233 31.295)" fill="#fff" fill-rule="evenodd"/>
    <path id="Path_18" data-name="Path 18" d="M43.858,49.463c.256.218,0,.947.578,1.023l.133-.076c0-.085.18-.53.322-.473.057.208,0,1.089.578.947.095-.123.057-.237.114-.36h.057c0,.151.057.7.331.757h.123c.133-.1.133-.18.208-.3h0c.142.151.114.417.36.521a.578.578,0,0,0,.161-.066l.625.464.218.114c.142.133.388.369.587.379l.057-.047A1.761,1.761,0,0,1,48.4,52.1c0-.3-.549-.729-.881-.947.066,0,.085,0,.114-.095s-.35-.18-.445-.294l.133-.085h0c-.133-.123-.246-.294-.426-.35h-.388c.18-.085.35-.114.4-.256a1.174,1.174,0,0,0-.871-.227V49.8h.057a.44.44,0,0,0,.331-.095c.114-.095,0-.085,0-.133-.085-.426-.947-.218-1.231-.275a.189.189,0,0,0,0-.076c.2-.161.578-.151.691-.312-.294-.407-.862-.331-1.344-.331h-.265v-.057l.189-.161a1.146,1.146,0,0,0,.767-.312c0-.151-.218-.284-.4-.331a8.947,8.947,0,0,0-1.278.085h.057a1.941,1.941,0,0,1,.369-.189c.275-.076.464,0,.767-.227v-.142a.862.862,0,0,0-.483-.36,9.288,9.288,0,0,0-1.808.18h0c.151-.275.947-.275,1.165-.331a3.267,3.267,0,0,0,.511-.265.473.473,0,0,0-.436-.5,1.816,1.816,0,0,1-.227,0,6.741,6.741,0,0,0-1.619.085c-.142,0-.312.076-.436,0s0,0,0-.076a2.964,2.964,0,0,1,1.155-.729h.341a5.974,5.974,0,0,0,.729-.4c.17-.275-.246-.521-.559-.521a7.366,7.366,0,0,0-1.326.237h-.095a4.374,4.374,0,0,0-.549.114,4.024,4.024,0,0,1-.871.17,6.36,6.36,0,0,1,.473-.5c.407-.17.947-.227,1.363-.369.189-.066.294-.227.445-.322a.881.881,0,0,1,.085-.284,3.465,3.465,0,0,0-.53-.294,2.206,2.206,0,0,0-.739.057v-.057a3.551,3.551,0,0,0-.748.133l-.256.114h-.18a1.108,1.108,0,0,0-.227.085l-.426.057c-.161,0-.417.208-.559.189h0c.237-.4.814-.54,1.155-.663a4.573,4.573,0,0,0,1.174-.682c0-.2,0-.237-.246-.36v-.085a.578.578,0,0,0-.284,0v-.057a1.259,1.259,0,0,0-.454.047h-.483a6.887,6.887,0,0,0-.824.312,3.323,3.323,0,0,1-.53,0,3.532,3.532,0,0,0-.436.085c-.227,0-.587.256-.786.18.18-.133.341-.464.54-.578l.521-.17.256-.151.492-.123c.133-.047.161-.133.284-.2a6.987,6.987,0,0,0,.9-.426h0l-.095-.095a.464.464,0,0,0,.161-.133A.549.549,0,0,1,40.2,40.3a.615.615,0,0,0-.275-.085c0-.057.057-.057,0-.1a3.172,3.172,0,0,0-.672,0l-.133-.076h-.379l-.436.18a.6.6,0,0,0,0-.066,2,2,0,0,0-1.165.407c-.436-.151-1.4.294-1.894.208a3.513,3.513,0,0,0,.7-.521,1.288,1.288,0,0,0,0-.189,2.14,2.14,0,0,0,.6-.208l.076-.076.71-.208.17-.114a3.124,3.124,0,0,0,.672-.161l.36-.265v-.114c.066-.114.3-.2.331-.322s-.379-.294-.549-.246c-.095-.265-.549-.057-.776,0v-.076a1.894,1.894,0,0,0-1.023.256l-.066-.076c-.369-.057-.634.189-1,.417-.085-.057-.076-.085-.142-.133-.275,0-.767.246-.947.2.114-.114,0-.18.114-.3a2.159,2.159,0,0,0,.644-.284l.123-.142.464-.151.331-.133.133-.161c.151-.1.426-.133.568-.256s.691-.322.549-.568l.208-.151c-.057-.076,0-.114,0-.18s-.161-.085-.237-.114,0-.085,0-.123h0l-.473.066v-.057a1.666,1.666,0,0,0-.824.18l-.057-.057-.776.227-.322.17c-.161-.151-.843.331-1.1.426h-.133A.549.549,0,0,0,33.822,37a2.841,2.841,0,0,0,.862-.4c0-.066.095-.142.151-.208a4.052,4.052,0,0,0,.634-.36v-.114a1.449,1.449,0,0,0,.578-.331v-.066a1.278,1.278,0,0,0,.284-.256l-.123-.085a.758.758,0,0,0,.076-.151,3.125,3.125,0,0,0-.6-.237l-.35.038c-.085,0-.114-.066-.227,0a1.433,1.433,0,0,1-.672.2v.057l-.057.047c-.284-.123-.767.322-1.1.483,0-.057,0,0-.1,0a3.456,3.456,0,0,0-.947.559c-.218-.085-.227,0-.436,0,.161-.114.464-.256.369-.369l.426-.161c.17-.076.256-.17.445-.265l.691-.237c.095,0,.123-.133.2-.17a5.806,5.806,0,0,0,.6-.237c.18-.1.085-.133.142-.17a1.434,1.434,0,0,0,.464-.265l-.114-.085a1.543,1.543,0,0,0,.218-.208c0-.237-.36-.331-.578-.322a.161.161,0,0,0,0-.066,1.25,1.25,0,0,0-.833.17c-.114-.17-.8.133-1.032.237a.265.265,0,0,1,0-.085,2.91,2.91,0,0,0-1.079.436.142.142,0,0,0-.047-.076,3.314,3.314,0,0,0-.833.3c-.142.085-.218.2-.341.256a1.524,1.524,0,0,0-.275-.085h0c.1-.047.227-.123.246-.218h-.076a1.742,1.742,0,0,0,.947-.606,1.894,1.894,0,0,0,.814-.417,1.126,1.126,0,0,1,.076-.151l.208-.085c.142-.066.218-.142.35-.218s0-.076,0-.133.407-.2.436-.312h0l-.1-.057a1.978,1.978,0,0,1,.208-.189h0c-.142,0-.057-.076-.095-.142l-.208-.085v-.085a.947.947,0,0,0-.521-.085.407.407,0,0,0,0-.1,1.894,1.894,0,0,0-.663.227c-.246-.17-.739.085-1.032.35-.17-.114-.6.1-.814.237l-.341.284a.8.8,0,0,0-.218,0c-.521.284-.436.36-.739.691h0c-.2-.294-.824.095-1.108.265-.076.047-.18.161-.256.18a4.251,4.251,0,0,0-1.212.17c-.369.142-.341.4-.644.6s-.634.3-.739.568a2.68,2.68,0,0,0,0,.275c-.066.189-.133.237,0,.4l-.312.265c-.114.2-.218.4-.322.606s.057.142,0,.227a2.84,2.84,0,0,0-.312.606.549.549,0,0,1,.047.133c0,.189-.189.407-.237.6l.057.161a1.686,1.686,0,0,1-.123.464l.161.142c0,.076,0,.161.133.18h.066a.682.682,0,0,0,.256.142c.095-.066.237-.085.312-.208s-.047-.246.237-.4a.483.483,0,0,0,.17.066.786.786,0,0,0,.322-.445l.151-.085.142.151s-.454.606-.473.644,0,.095,0,.142c-.057.2-.218.407-.284.606.133.123.123.2.18.322a.256.256,0,0,0,.161,0,.54.54,0,0,0,.237.133l.133-.1.151.047.35-.341a.142.142,0,0,0,.123,0c.265-.142.284-.36.4-.511s.151-.057.208-.142a1.572,1.572,0,0,1,.53-.492l.341-.511c.265,0,.6-.606.663-.71h0a.1.1,0,0,1,.057.095.757.757,0,0,0-.189.615,2.84,2.84,0,0,0-.492.739v.17c-.123.208-.294.331-.379.511s0,.2,0,.331-.294.464-.341.587,0,.1.066.208-.114.237-.1.341a1.752,1.752,0,0,0,.18.53h.123c.246,0,.047.256.436.151l.18-.161h.123c.066,0,.218-.265.331-.379s.246-.208.331-.3h0a.852.852,0,0,0,.085.947c.189,0,.331.208.606.142a1.5,1.5,0,0,1,.294-.095c.151-.151.151-.341.265-.464s.208-.114.284-.227a1.941,1.941,0,0,0,.151-.388l.17-.114a1.894,1.894,0,0,0,.331-.492c.322-.076.417-.379.5-.578h.208c.085,0,0,.057,0,.095a.881.881,0,0,0-.142.757,2.642,2.642,0,0,0-.568.786.152.152,0,0,1,.076.085,2.2,2.2,0,0,0-.454.8l.057.095a1.894,1.894,0,0,0-.246.729l.085.095c0,.161-.161.36-.047.511l.161.123c.047.066,0,.123.114.17a.57.57,0,0,0,.256.066l.256-.057.1-.142h.18l.17-.275c.057-.057.123,0,.18-.123l.142-.483.142-.114a2.055,2.055,0,0,0,.237-.7c.275-.114.369-.5.417-.672a.871.871,0,0,0,.5-.663h.151v.057c-.133.18-.3.71-.218.852a3.674,3.674,0,0,0-.663.824.183.183,0,0,0,.066.161,2.083,2.083,0,0,0-.417.615c0,.085.066.161,0,.256a.978.978,0,0,0-.18.5c.028.123.1.095.114.161s.057.407.265.473.379-.189.587-.265H32.9a2.4,2.4,0,0,0,.246-.4c.076-.1.189-.151.265-.265a2.765,2.765,0,0,1,.133-.294l.142-.133c.123-.189.151-.492.35-.625s.189-.379.445-.492a.322.322,0,0,0,.1,0h.095a7.4,7.4,0,0,1-.237.833v.123c-.114.208-.331.379-.483.6s0,.076,0,.142-.294.436-.322.578.1.133.095.208-.133.227-.1.341l.133.133c.133.2.161.312.5.284a.521.521,0,0,1,.312-.17c.085-.151.18-.294.275-.436s.256-.237.35-.379.151-.341.237-.454l.312-.246c.057-.1.114-.208.18-.312a1.183,1.183,0,0,0,.4-.142h0a2.443,2.443,0,0,1-.18.947v.123l-.123.133a3.39,3.39,0,0,0-.341.625.312.312,0,0,1,.095.114,1,1,0,0,0-.066.881h.161c0,.312.549.331.739,0h.142l.17-.341c0-.085.123-.095.161-.18a2.433,2.433,0,0,1,.492-.947.947.947,0,0,0,.559-.407c.151.2,0,.464-.095.7s-.066.5-.142.739-.436.511-.483.767c0,.095.085.18.047.284-.133.388-.114.89.521.947.672-.35.8-.947,1.136-1.5l.085-.189c.076-.076.2-.1.294-.189h0l-.085.8a2.462,2.462,0,0,0-.076,1.184c0,.123.3.473.5.454s.492-.36.521-.445l.057-.3a2.907,2.907,0,0,1,.265-.4c.047-.066,0-.17.133-.227h.151a2.121,2.121,0,0,1-.076.682V48c-.066.35-.35.814.256,1.013l.246-.057c.426-.4.445-.739.691-1.127h0c.275.256-.35,1.4.161,1.543a1.089,1.089,0,0,0,.18,0,.218.218,0,0,1,.161-.1,5.415,5.415,0,0,1,.265-.521h0l.066.057c.114.275-.331,1.212.275,1.288.095-.076.2-.095.275-.189l.3-.426Z" transform="translate(-438.752 32.361)" fill="#fff" fill-rule="evenodd"/>
    <path id="Path_19" data-name="Path 19" d="M37.346,58.877v.208c-.294.35-.492.322-.757.445H31.58v-.881h-.047c-.095.133-.237.2-.312.322s0,.189-.076.284a.972.972,0,0,0-.123.294H29.488a3.352,3.352,0,0,0,.331-.739c.076-.35.047-.7.1-1.06s.246-.739.066-.947a1.24,1.24,0,0,1-.587.682,4.838,4.838,0,0,0-.473,1.458c0,.123-.123.151-.151.275s-.085.246-.123.369H27.4a1.458,1.458,0,0,1,.095-.852.256.256,0,0,0-.114-.151,5.53,5.53,0,0,1,.341-.947l.123-.218a.89.89,0,0,0,0-.151,4.5,4.5,0,0,0,.133-1.335v-.047a1.467,1.467,0,0,1-.426.275l-.18.464c-.1.142-.218.275-.322.407a5.925,5.925,0,0,0-.227.691c-.095.2-.237.35-.36.587s-.18.436-.275.663c-.151.076-.17.095-.322.3-.379.114-.407,0-.559-.294l-.161-.151c0-.151.076-.331.095-.5s-.133-.142-.123-.256.322-.71.322-.871-.085-.076,0-.2a9.7,9.7,0,0,0,.483-.947.947.947,0,0,0,0-.161,11.607,11.607,0,0,0,.208-1.212h-.1a.227.227,0,0,1-.114.085c-.265.218-.161.473-.454.776a3.446,3.446,0,0,0-.331.947l-.151.208a1.757,1.757,0,0,1-.123.436c-.038.142-.2.275-.275.426a3.636,3.636,0,0,1-.246.6h-.161c-.237.142-.312.54-.625.483s-.3-.454-.322-.606-.114-.1-.133-.2a4.078,4.078,0,0,1,.161-.72c.047-.189-.076-.227-.057-.35a3.323,3.323,0,0,1,.417-.947l-.161-.218a5.955,5.955,0,0,1,.672-1.278,2.367,2.367,0,0,1,.17-1.231s0,0,0-.066h0l-.161.066a1.458,1.458,0,0,1-.5,1.013c-.047.246-.114.8-.417,1.023a3.92,3.92,0,0,1-.142.843l-.151.2a4.413,4.413,0,0,1-.123.691c-.038.227-.133.114-.189.218a3.317,3.317,0,0,0-.161.407l-.2.095a1.544,1.544,0,0,0-.1.218l-.275.133c-.1,0-.18-.095-.284,0s-.076-.142-.133-.227l-.189-.123c-.123-.189.057-.511,0-.72l-.1-.114a3.683,3.683,0,0,1,.227-1.07c0-.057-.047-.076-.066-.1a3.674,3.674,0,0,1,.445-1.212.208.208,0,0,0-.095-.114,4.033,4.033,0,0,1,.578-1.2,1.524,1.524,0,0,1,.1-1.079.131.131,0,0,0-.047-.123c-.047-.047-.142.076-.237,0-.076.284-.151.72-.511.89a2.746,2.746,0,0,1-.322.748l-.18.189-.142.578c-.076.18-.227.265-.294.369a5.264,5.264,0,0,1-.256.71,1.544,1.544,0,0,0-.312.18c-.294.161-.464-.123-.672-.066a1.354,1.354,0,0,1-.189-1.221.114.114,0,0,1-.047-.047c-.095.151-.256.331-.341.492a2.925,2.925,0,0,1-.341.6c-.076.057-.066.057-.133,0s-.123.161-.189.246c-.417.227-.208-.114-.473-.114-.047,0-.066.047-.142,0a3.3,3.3,0,0,1-.237-.691c0-.151.123-.379.1-.511s-.123-.123-.085-.275.322-.776.331-.881-.095-.218,0-.454.256-.483.379-.786a1.694,1.694,0,0,0,0-.227,5.037,5.037,0,0,1,.464-1.136,1.335,1.335,0,0,1,.17-.947c0-.047,0-.1-.076-.114h0c-.057.151-.388,1.108-.682,1.117-.114.256-.218.521-.331.786a2.443,2.443,0,0,0-.549.8c-.057.123-.189.17-.218.237-.114.237-.123.54-.4.786h-.133c-.114.18-.237.36-.35.549h-.18a1.316,1.316,0,0,1-.142.18.511.511,0,0,1-.256-.133.436.436,0,0,1-.18.085.89.89,0,0,0-.218-.417,8.007,8.007,0,0,0,.275-.947V52.22a5.888,5.888,0,0,1,.473-.947l-.17-.18-.151.142a1.43,1.43,0,0,1-.322.682.218.218,0,0,1-.189-.057c-.3.275-.142.379-.237.606s-.227.237-.322.36-.2-.095-.284-.142a.218.218,0,0,0-.066.066c-.161,0-.123-.133-.17-.227l-.17-.161a5.467,5.467,0,0,1,.095-.672.765.765,0,0,0-.066-.208c0-.275.2-.606.218-.881l-.123-.17a4.374,4.374,0,0,1,.3-.9c0-.133-.057-.2,0-.312l.3-.9.322-.426c-.151-.208-.085-.294,0-.559v-.388c.1-.388.559-.691.776-.947s.265-.691.663-.947a4.27,4.27,0,0,1,1.307-.492c.076,0,.18-.208.265-.294.294-.294.947-.947,1.193-.606h0c.312-.521.218-.606.757-1.108a.71.71,0,0,1,.246,0l.341-.464c.237-.227.682-.625.881-.511.3-.417.824-.871,1.1-.691a2.538,2.538,0,0,1,.71-.454v.142a.947.947,0,0,1,.634-.275v.133l.227.066c0,.085-.047.151.114.18h0s-.142.208-.208.312l.114.057h0a1.155,1.155,0,0,1-.436.53.4.4,0,0,1,0,.18c-.142.123-.218.256-.369.379l-.227.161-.066.218a2.348,2.348,0,0,1-.862.757,2.272,2.272,0,0,1-.947,1.023.085.085,0,0,1,0,.047h.085a.634.634,0,0,1-.246.35h0a1.3,1.3,0,0,1,.3.057c.133-.1.2-.275.35-.417a3.181,3.181,0,0,1,.89-.6s.047,0,.057.085c.417-.322.757-.776,1.146-.814a.464.464,0,0,0,0,.114c.256-.189.947-.767,1.117-.549a1.307,1.307,0,0,1,.89-.407.322.322,0,0,1,0,.095c.237-.057.6,0,.653.331-.076.114-.123.189-.227.322l.123.095c-.142.256-.341.322-.483.464s-.047.161-.142.265-.473.284-.634.445-.1.227-.208.294l-.739.473c-.189.17-.284.3-.454.454l-.464.312c.1.142-.208.4-.369.578.227,0,.227-.095.473,0A4.9,4.9,0,0,1,24,45.347h.114c.35-.294.852-1.013,1.165-.9l.057-.076V44.3c.18,0,.5-.284.72-.417s.151,0,.237,0l.369-.18a2.348,2.348,0,0,1,.672.2.714.714,0,0,1-.076.227l.133.085a2,2,0,0,1-.294.417l.057.076a1.95,1.95,0,0,1-.606.587,1.032,1.032,0,0,0,0,.161,4.961,4.961,0,0,1-.672.625l-.151.322a3.948,3.948,0,0,1-.947.739.947.947,0,0,1-.246.483h.151c.265-.18.947-.947,1.155-.814l.341-.312c.284-.151.559-.312.833-.473a.1.1,0,0,1,.076.066,1.685,1.685,0,0,1,.871-.417.208.208,0,0,0,0,.076l.5-.2h0a1.1,1.1,0,0,0,0,.17c.076,0,.218,0,.256.114s0,.161,0,.246a3.059,3.059,0,0,1-.218.256c.17.3-.35.606-.568.9s-.445.3-.6.473-.095.161-.133.246l-.35.256-.492.3c-.047.076-.095.151-.133.227a2.945,2.945,0,0,1-.682.53c-.1.189,0,.265-.1.454.227,0,.748-.445,1.051-.492.076.047.066.095.151.151.4-.388.672-.776,1.079-.786a.578.578,0,0,0,.066.095,2.055,2.055,0,0,1,1.1-.568c0,.057,0,.047,0,.1.256-.123.729-.511.852-.17.18-.095.644-.066.606.237s-.275.35-.331.511v.161l-.369.445a3.929,3.929,0,0,1-.729.426l-.18.2-.757.436a.54.54,0,0,0-.076.123,2.651,2.651,0,0,1-.634.407,2.482,2.482,0,0,0,0,.265,4.734,4.734,0,0,1-.739.871c.568,0,1.591-.8,2.074-.691a2.225,2.225,0,0,1,1.24-.8.275.275,0,0,1,0,.085l.464-.331.417-.151.057.1a4.213,4.213,0,0,1,.729-.208c.066.057.057,0,0,.142a.521.521,0,0,1,.3.076.89.89,0,0,0,.1.341c0,.095-.085.133-.161.218l.114.1h0a10.538,10.538,0,0,1-.947.767c-.142.123-.17.256-.3.341l-.54.275-.256.265-.559.341a9.954,9.954,0,0,0-.549.947c.218.066.606-.322.843-.417a4.134,4.134,0,0,1,.464-.2,2.84,2.84,0,0,0,.578-.114c.275-.151.578-.426.871-.6s.341-.066.53-.161a1.155,1.155,0,0,1,.492-.161v.066a.549.549,0,0,1,.322-.057v.123c.256.114.275.17.284.436a5.624,5.624,0,0,1-1.25,1.344,2.784,2.784,0,0,0-1.212,1.165h0c.161,0,.426-.284.6-.388l.454-.161a1.893,1.893,0,0,1,.246-.17h.2l.265-.218a3.787,3.787,0,0,1,.8-.331v.1c.246-.066.578-.275.8-.227a3.409,3.409,0,0,1,.6.294,1.77,1.77,0,0,0-.076.417c-.161.161-.265.417-.464.549-.436.275-1.023.473-1.458.786,0,0-.417.653-.483.8.133.047.748-.341.947-.426s.5-.246.6-.265h.1a7.7,7.7,0,0,1,1.43-.606c.331-.066.8.18.634.606a5.955,5.955,0,0,1-.767.7l-.341.123a3.569,3.569,0,0,0-1.07.881s0,0,0,.095a2.289,2.289,0,0,0,.473-.151,6.362,6.362,0,0,1,1.761-.454c.057,0,.18-.047.246-.047a.53.53,0,0,1,.511.606,4.015,4.015,0,0,1-.54.464c-.256.142-1.108.3-1.25.71h0a9.242,9.242,0,0,1,1.95-.615.8.8,0,0,1,.54.426Z" transform="translate(-438.224 31.913)" fill="#fff" fill-rule="evenodd"/>
    <path id="Path_20" data-name="Path 20" d="M11.273,60.132a.445.445,0,0,1,0,.189H8.47c.18-.369.568-1.193.862-.824h0a3.068,3.068,0,0,1,.36-1.335.739.739,0,0,1,.208,0l.18-.549c.142-.284.426-.786.625-.672.151-.5.473-1.079.757-.947a1.7,1.7,0,0,1,.492-.578,1.1,1.1,0,0,0,.057.142.663.663,0,0,1,.483-.369v.151H12.7c.057.095,0,.18.142.189h0a1.206,1.206,0,0,1-.1.36h.114a1.165,1.165,0,0,1-.256.653.559.559,0,0,1,0,.189c-.085.17-.123.322-.218.473a1.742,1.742,0,0,1-.161.208v.436a2.045,2.045,0,0,1-.407.947,2.235,2.235,0,0,1-.578,1.259v.057Z" transform="translate(-437.951 31.121)" fill="#fff" fill-rule="evenodd"/>
    <path id="Path_21" data-name="Path 21" d="M15.071,59.111c-.123.227-.341.369-.426.578s0,.256-.1.35l-.331.4H11.7a.852.852,0,0,1,.076-.2,2.443,2.443,0,0,1,.606-.757.161.161,0,0,1,.076.085c.265-.407.445-.947.767-1.051v.133c.17-.246.644-.947.814-.748.17-.3.436-.568.663-.549v.1a.445.445,0,0,1,.634.294,1.7,1.7,0,0,1-.1.388l.133.1c-.066.294-.218.388-.3.568S15.127,59,15.071,59.111Z" transform="translate(-438.123 31.007)" fill="#fff" fill-rule="evenodd"/>
    <path id="Path_22" data-name="Path 22" d="M16.887,59.947l.057.085a1.193,1.193,0,0,1-.18.454H14.87c.142-.3.3-.578.483-.53v-.085c0-.028,0,0-.047-.085.151,0,.35-.369.511-.54s.123,0,.208,0l.265-.237a1.581,1.581,0,0,1,.615.151v.246l.142.095a2.045,2.045,0,0,1-.161.445Z" transform="translate(-438.291 30.918)" fill="#fff" fill-rule="evenodd"/>
  </g>
  <g id="Group_357" data-name="Group 357" transform="translate(68.72 9.307)">
    <path id="Path_97" data-name="Path 97" d="M164.162,13.665c-.184-.734.122-1.163.918-1.163h.612a1.121,1.121,0,0,1,1.163.918l8.814,33.97c.551,2.081,1.041,4.59,1.041,4.59h.122s.551-2.448,1.164-4.59l9.548-34.031a1.128,1.128,0,0,1,1.163-.857h1.1a1.128,1.128,0,0,1,1.163.857l9.548,34.031c.612,2.142,1.163,4.59,1.163,4.59h.122s.49-2.509,1.041-4.59l9.12-33.97a1.121,1.121,0,0,1,1.163-.918h.612a.843.843,0,0,1,.918,1.163L203.641,54.49a1.127,1.127,0,0,1-1.163.857h-1.469a1.128,1.128,0,0,1-1.163-.857l-8.814-31.46c-.8-2.754-1.653-6.794-1.653-6.794h-.245s-.857,4.04-1.653,6.794l-8.814,31.46a1.127,1.127,0,0,1-1.164.857h-1.469a1.12,1.12,0,0,1-1.163-.918Z" transform="translate(-164.111 -12.197)" fill="#464749"/>
    <path id="Path_98" data-name="Path 98" d="M249.005,13.542a.937.937,0,0,1,1.04-1.04h.49a.937.937,0,0,1,1.04,1.04V30.13a12.847,12.847,0,0,1-.245,2.509h.122a14.107,14.107,0,0,1,12.976-8.631c7.957,0,10.1,4.713,10.1,11.936V54.306a.937.937,0,0,1-1.04,1.041H273a.937.937,0,0,1-1.04-1.041V36.863c0-5.325-.673-10.344-7.528-10.344-6.978,0-12.854,5.753-12.854,13.772V54.306a.937.937,0,0,1-1.04,1.041h-.49a.937.937,0,0,1-1.04-1.041Z" transform="translate(-193.134 -12.197)" fill="#464749"/>
    <path id="Path_99" data-name="Path 99" d="M296.341,15.93V13.542a.937.937,0,0,1,1.04-1.04h.979a.936.936,0,0,1,1.04,1.04V15.93a.936.936,0,0,1-1.04,1.04h-.979a.937.937,0,0,1-1.04-1.04m.245,9.855a.937.937,0,0,1,1.04-1.04h.49a.936.936,0,0,1,1.04,1.04V54.307a.936.936,0,0,1-1.04,1.04h-.49a.937.937,0,0,1-1.04-1.04Z" transform="translate(-209.317 -12.197)" fill="#464749"/>
    <path id="Path_100" data-name="Path 100" d="M313.029,29.193h-3a.937.937,0,0,1-1.04-1.041v-.245a.937.937,0,0,1,1.04-1.041h3V19.215a.937.937,0,0,1,1.04-1.04h.49a.936.936,0,0,1,1.04,1.04v7.651h6.978a.937.937,0,0,1,1.041,1.041v.245a.937.937,0,0,1-1.041,1.041H315.6V46.025c0,8.2,4.958,9,7.468,9.12.917.061,1.224.367,1.224,1.041v.306a.91.91,0,0,1-1.04,1.04c-7.222,0-10.222-4.59-10.222-11.324Z" transform="translate(-213.641 -14.136)" fill="#464749"/>
    <path id="Path_101" data-name="Path 101" d="M350.273,29.987c7.957,0,12.487,5.753,12.487,14.567a1.012,1.012,0,0,1-1.1,1.041H338.093c0,8.876,6,13.956,13.1,13.956a13.482,13.482,0,0,0,8.63-3.122.862.862,0,0,1,1.408.184l.367.49a.934.934,0,0,1-.245,1.347,16.333,16.333,0,0,1-10.16,3.611c-8.631,0-15.792-6.243-15.792-15.975,0-10.344,7.039-16.1,14.873-16.1m9.794,13.22c-.306-7.467-4.774-10.833-9.855-10.833-5.63,0-10.833,3.672-11.935,10.833Z" transform="translate(-222.67 -18.174)" fill="#464749"/>
    <path id="Path_102" data-name="Path 102" d="M385.757,27.095h-2.815a.936.936,0,0,1-1.04-1.04v-.245a.936.936,0,0,1,1.04-1.04h2.815V23.361c0-9.671,6.61-11.323,9.671-11.323h.551a.936.936,0,0,1,1.041,1.04v.367c0,.734-.428.98-1.285,1.04-2.938.122-7.406.918-7.406,8.814v1.469h7.345a.937.937,0,0,1,1.041,1.04v.245a.937.937,0,0,1-1.041,1.04h-7.345V54.148a.937.937,0,0,1-1.04,1.04h-.49a.937.937,0,0,1-1.041-1.04Z" transform="translate(-238.567 -12.038)" fill="#464749"/>
    <path id="Path_103" data-name="Path 103" d="M421.7,29.987c7.957,0,12.487,5.753,12.487,14.567a1.012,1.012,0,0,1-1.1,1.041H409.516c0,8.876,6,13.956,13.1,13.956a13.482,13.482,0,0,0,8.63-3.122.862.862,0,0,1,1.408.184l.367.49a.934.934,0,0,1-.245,1.347,16.333,16.333,0,0,1-10.16,3.611c-8.631,0-15.792-6.243-15.792-15.975,0-10.344,7.039-16.1,14.873-16.1m9.794,13.22c-.306-7.467-4.774-10.833-9.855-10.833-5.63,0-10.833,3.672-11.935,10.833Z" transform="translate(-247.087 -18.174)" fill="#464749"/>
    <path id="Path_104" data-name="Path 104" d="M456.765,32.048a.937.937,0,0,1,1.04-1.04h.49a.937.937,0,0,1,1.04,1.04v4.774a12.847,12.847,0,0,1-.245,2.509h.122c1.53-4.713,5.141-8.508,10.283-8.508.857,0,1.285.367,1.285,1.041v.551c0,.673-.551,1.041-1.347,1.041-6.855,0-10.1,8.14-10.1,14.935v12.18a.937.937,0,0,1-1.04,1.04h-.49a.937.937,0,0,1-1.04-1.04Z" transform="translate(-264.161 -18.46)" fill="#464749"/>
    <path id="Path_105" data-name="Path 105" d="M484.013,31.762a.937.937,0,0,1,1.04-1.04h.49a.937.937,0,0,1,1.04,1.04v4.346a12.845,12.845,0,0,1-.245,2.509h.122a14.105,14.105,0,0,1,12.976-8.63c7.956,0,10.1,4.713,10.1,11.935V60.285a.936.936,0,0,1-1.041,1.04h-.489a.937.937,0,0,1-1.04-1.04V42.84c0-5.325-.673-10.344-7.528-10.344-6.978,0-12.854,5.753-12.854,13.588v14.2a.937.937,0,0,1-1.04,1.04h-.49a.937.937,0,0,1-1.04-1.04Z" transform="translate(-273.476 -18.174)" fill="#464749"/>
  </g>
</svg>
